<svg xmlns="http://www.w3.org/2000/svg" viewBox="0 0 108.41 54.34"><defs><style>.cls-1{opacity:0.32;}.cls-2{fill:#ffffbd;}</style></defs><g id="Layer_2" data-name="Layer 2"><g id="Layer_1-2" data-name="Layer 1"><g class="cls-1"><path class="cls-2" d="M21.85,9.06A24.57,24.57,0,0,0,19.34,14c-.77,2.29-1,7.31.69,10.39a5.39,5.39,0,0,0,1.34,1.67A48.91,48.91,0,0,0,8.74,28.34c-2.45.79-6,2.14-8.53,4.79a.76.76,0,0,0,0,1.08l.15.12a.78.78,0,0,0,.93-.14c1.77-1.85,4.2-3.21,7.89-4.4a47.84,47.84,0,0,1,4.84-1.27,2.19,2.19,0,0,0-.51.5c-2.81,3.81,9.06,8.16,11.37,8.33a.41.41,0,0,0,.29-.05c.18-.13.06-.41-.07-.59-1-1.34-6.2-7.95-9.58-8.48a47.18,47.18,0,0,1,6.06-.66,58,58,0,0,1,6.72.13,3.33,3.33,0,0,0-.66,3c.6,3.82,3.1,7.3,5.09,9.55a52.55,52.55,0,0,0,9.91,8.13c1.86,1.26,3.79,2.54,5.82,3.66a33.28,33.28,0,0,0,4.74,2.18,1.31,1.31,0,0,0,1.83-1.72,38.76,38.76,0,0,0-5-10.73A40.78,40.78,0,0,0,35.68,28.53c1.4.19,2.8.4,4.18.61,2.83.43,5.75.87,8.64,1.18a67.75,67.75,0,0,0,9,.4c0,.07-.05.14-.07.2-.3,1.13.43,2.43,1.91,3.39Q62,36,64.7,37.52a83.89,83.89,0,0,0,23.49,8.71.74.74,0,0,0,.56-.1,1.46,1.46,0,0,0,.7-1.18,3.16,3.16,0,0,0-1.26-2.35A67.79,67.79,0,0,0,70.35,32.2c-.51-.2-1.08-.44-1.68-.7C67.45,31,66.1,30.41,64.75,30a29.52,29.52,0,0,0,10.55-4.1c4.92-3.19,8.63-8.06,11.91-12.35a.76.76,0,0,0,.12-.71.73.73,0,0,0-.53-.49C76.23,9.56,64,15.4,59.42,25.33a6,6,0,0,0-.66,3.81,62.84,62.84,0,0,1-10.09-.34c-2.11-.23-4.25-.53-6.35-.84l.41-.17c1.83-.71,3.79-1.05,5.55-1.93a13.71,13.71,0,0,0,6.24-7.35,40.68,40.68,0,0,0,2.17-9.59L57.86.74C56.39.15,54.76,1,53.53,2a27.21,27.21,0,0,0-6.79,8.92,56.6,56.6,0,0,0-4.83,12.89,18.82,18.82,0,0,0-.71,3.38,3.9,3.9,0,0,0,0,.61l-1.12-.17A130.35,130.35,0,0,0,26.6,26.07,15,15,0,0,0,33,16.77c1.24-5.9-.93-11.7-3-15.53A2.14,2.14,0,0,0,28.77.05c-.57-.15-1.42,0-2.24,1.31ZM60.19,33c-1-.63-1.36-1.34-1.26-1.72a.82.82,0,0,1,.11-.17,170,170,0,0,1,21.6,10.17l.37.21a24.46,24.46,0,0,0,6.78,2.94l.08.14A82.69,82.69,0,0,1,60.19,33Zm7.88-.12c.62.26,1.19.51,1.72.71a68.36,68.36,0,0,1,7.79,3.67,65.37,65.37,0,0,1,9.64,6.5,1.42,1.42,0,0,1,.22.2,25.5,25.5,0,0,1-6.24-2.81L80.82,41A169,169,0,0,0,59.43,30.88a3.09,3.09,0,0,1,1-.19C62.55,30.56,65.61,31.86,68.07,32.91Zm6.4-8.34a28,28,0,0,1-10,3.89c5.31-3.1,10.7-6.17,16.08-9.15A31.58,31.58,0,0,1,74.47,24.57Zm6.83-6.12c-6,3.3-12,6.72-17.92,10.19-.62.1-1.24.19-1.88.26a49.38,49.38,0,0,0,6.78-4.41c.75-.56,1.49-1.1,2.22-1.61,1.55-1.09,3.22-2,4.84-3,1.12-.64,2.28-1.3,3.4-2,2.15-1.36,4.2-2.91,6.2-4.44l.34.06C84,15.19,82.69,16.86,81.3,18.45Zm3.13-5.07c-1.9,1.45-3.86,2.92-5.9,4.2-1.1.7-2.26,1.36-3.38,2-1.63.93-3.31,1.89-4.87,3-.73.51-1.47,1.05-2.23,1.61A42.1,42.1,0,0,1,60.33,29v0a2.06,2.06,0,0,1-.13-.74,51.55,51.55,0,0,1,5.11-6,33.19,33.19,0,0,1,6.7-5.4,45.85,45.85,0,0,1,8.67-3.67A20.59,20.59,0,0,1,84.43,13.38Zm-5.23-.12a41.26,41.26,0,0,0-7.4,3.25A33.22,33.22,0,0,0,65,22a52.33,52.33,0,0,0-4.76,5.53A8.13,8.13,0,0,1,60.81,26C64,18.89,71.48,14,79.2,13.26ZM52.05,48.61c.15.33.28.67.41,1-1.29-.91-2.58-1.69-3.83-2.44a41.75,41.75,0,0,1-5.5-3.7A101.44,101.44,0,0,1,32,33.33a6.51,6.51,0,0,1-1.71-4.92,2.9,2.9,0,0,1,.59,0A89.08,89.08,0,0,1,52.05,48.61Zm-8.52-1.52a50.86,50.86,0,0,1-9.62-7.88c-1.86-2.09-4.19-5.31-4.73-8.76-.14-.91,0-1.51.37-1.79a1.27,1.27,0,0,1,.35-.17,6.83,6.83,0,0,0,1.82,5.09A99.17,99.17,0,0,0,42.88,43.76a42.92,42.92,0,0,0,5.55,3.74c1.4.84,2.84,1.71,4.29,2.77.29.79.57,1.6.81,2.41A46.77,46.77,0,0,1,43.53,47.09Zm5.26-4.49A37.85,37.85,0,0,1,51.33,47a89.76,89.76,0,0,0-19.58-18.5,9.59,9.59,0,0,1,2.19.8c.39.2.78.4,1.16.61A39.3,39.3,0,0,1,48.79,42.6Zm-18-35.41A26.14,26.14,0,0,1,23,25.26a2.77,2.77,0,0,1-.57-.34c.62-1.15,1.33-2.28,2-3.37a29,29,0,0,0,3.33-6.3c1.63-4.89,2-9.06,1.23-12.68a28.91,28.91,0,0,1,1.84,4.49A.17.17,0,0,0,30.77,7.19Zm-2.4-5.54c1.11,3.78.79,8.2-1,13.48a28.67,28.67,0,0,1-3.28,6.22c-.62,1-1.27,2-1.84,3a26.3,26.3,0,0,1,1.09-9.2A74.89,74.89,0,0,1,28.37,1.65Zm-7,22c-1.39-2.59-1.28-7.09-.58-9.18a23.6,23.6,0,0,1,2.36-4.61L27.3,3a74.72,74.72,0,0,0-4.3,12,26.6,26.6,0,0,0-1.09,9.35A5.33,5.33,0,0,1,21.37,23.65Zm10.14-7.19a13.11,13.11,0,0,1-3.17,6.12c-1.92,2.09-3.78,3.15-5,2.84A26.58,26.58,0,0,0,31.12,8,18.2,18.2,0,0,1,31.51,16.46Z"/><path class="cls-2" d="M82.48,29.23a3,3,0,0,0,.69.29,4.5,4.5,0,0,0,4-1.05,3.75,3.75,0,0,0,1.36-2,2.8,2.8,0,0,0-.86-2.59,4.94,4.94,0,0,0-4.08-1.46,3.82,3.82,0,0,0-3,3.38A3.69,3.69,0,0,0,82.48,29.23Zm1.43-5.33a3.53,3.53,0,0,1,2.69,1,1.34,1.34,0,0,1,.46,1.18,2.32,2.32,0,0,1-.85,1.18,3.08,3.08,0,0,1-2.62.76,2.14,2.14,0,0,1-1.48-2.15A2.33,2.33,0,0,1,83.91,23.9Z"/><path class="cls-2" d="M89,33.89a3.16,3.16,0,0,0-1.2.42A3.1,3.1,0,0,0,86.58,38a3.41,3.41,0,0,0,1.59,1.8,3.77,3.77,0,0,0,1.48.46A3,3,0,0,0,91,40.07a2.93,2.93,0,0,0,1.75-2.16A3.41,3.41,0,0,0,92,34.75,3.29,3.29,0,0,0,89,33.89Zm-.42,1.73a1.71,1.71,0,0,1,.66-.22,1.86,1.86,0,0,1,1.65.4,2,2,0,0,1,.33,1.79,1.44,1.44,0,0,1-.8,1,1.53,1.53,0,0,1-.66.07A2.08,2.08,0,0,1,88,37.45,1.57,1.57,0,0,1,88.6,35.62Z"/><path class="cls-2" d="M95.35,28a2,2,0,0,0,.8.93,1.52,1.52,0,0,0,1.53-.18,3.22,3.22,0,0,0,1-1.26c1-1.88-2-2.63-3.16-1.55a1.57,1.57,0,0,0-.41.61A1.93,1.93,0,0,0,95.35,28Z"/><path class="cls-2" d="M106.27,31.57a1.69,1.69,0,0,0-.86,1.64,1.37,1.37,0,0,0,.61,1.11,1.28,1.28,0,0,0,.5.16,1.74,1.74,0,0,0,1.67-.74A1.53,1.53,0,0,0,106.27,31.57Z"/></g></g></g></svg>