<svg xmlns="http://www.w3.org/2000/svg" viewBox="0 0 662.65 103.28"><defs><style>.cls-1{opacity:0.3;}.cls-2{fill:#ffffbd;}</style></defs><g id="Layer_2" data-name="Layer 2"><g id="Layer_1-2" data-name="Layer 1"><g class="cls-1"><path class="cls-2" d="M662.63,102.48c-.09-.22-.19-.44-.29-.65a.42.42,0,0,0-.15-.58l-.21-.13a10.77,10.77,0,0,0-1-1.52,1.57,1.57,0,0,0-.31-.32.81.81,0,0,0-.29-.16,75.92,75.92,0,0,0-8.93-11,85.85,85.85,0,0,0-29.74-20A86.58,86.58,0,0,0,583,62.17l-1.16.1q-8.43-2.55-17.05-4.39c8.47.33,17,.47,25.42.08a51.69,51.69,0,0,0,7.55-.79c2-.39,4.36-.87,5.87-2.37a3.55,3.55,0,0,0,.56-4.74,5.52,5.52,0,0,0-5-1.5,5.94,5.94,0,0,0-4.61,3.34,5.18,5.18,0,0,0,.49,5l0,.05h0c-2,.25-4,.36-6.07.44-4.68.18-9.36.2-14,.16-4.32,0-8.65-.17-13-.26-1.08-.21-2.17-.42-3.26-.61-2-.35-3.94-.66-5.92-1a116.11,116.11,0,0,0,22-2c2.35-.45,4.84-1.08,6.59-2.83a.51.51,0,0,0-.12-.86c-4.45-1.88-8.83.93-12.34,3.44a.51.51,0,0,0-.18.24c-.41.06-.82.13-1.23.18A127.21,127.21,0,0,1,552,55.07c-1.44,0-2.88,0-4.32,0a239,239,0,0,0-48-.66c2.47-1.09,4.95-2.16,7.46-3.15q5.7-2.25,11.54-4.13l1.16-.36a.23.23,0,0,0,.16,0c3.13.46,6.28.77,9.43,1.09,3.32.33,6.65.63,10,.86a193.9,193.9,0,0,0,19.88.5,158.83,158.83,0,0,0,19.58-2c6.38-1,12.73-2.23,19.12-3.16a113.79,113.79,0,0,1,19.24-1.41c.77,0,1.54.06,2.31.1l0,0c.66.34,1.1-.73.44-1.07a81.32,81.32,0,0,0-18.63-6.83,118.38,118.38,0,0,0-19.83-2.89,171.09,171.09,0,0,0-20.63-.23,72,72,0,0,0-20.72,3.8,73.26,73.26,0,0,0-9.45,4.23c-3,1.59-6,3.28-8.86,5.1l-1.16.74a184,184,0,0,0-22.33,8.7l-.55.27c-2.32.2-4.64.45-7,.71a131.26,131.26,0,0,0,16.54-7.9q4.35-2.41,8.52-5.1c2.72-1.74,5.44-3.52,8-5.51a18.93,18.93,0,0,0,6.19-7.36.44.44,0,0,0-.35-.6h0a.55.55,0,0,0-.73-.09,1.22,1.22,0,0,0-.19.12,8.39,8.39,0,0,0-5.24,2.76,19.87,19.87,0,0,0-3.7,6.77.44.44,0,0,0,0,.3c-1.19.82-2.4,1.61-3.61,2.4a167.36,167.36,0,0,1-17.13,9.77c-3.18,1.59-6.43,3-9.67,4.48v0a.38.38,0,0,1,0-.1l0-.11s-.06-.09-.07,0l0,.13a.42.42,0,0,1,0,.1s0,0,0,0h0l0,0,0,.1-.17.07c-10.66,1.27-21.24,3.09-31.74,5.32l.53-.22a54.53,54.53,0,0,0,5.64-2.77c1.92-1.08,3.79-2.26,5.6-3.51,1.45-.7,2.9-1.39,4.4-2,.58-.23,1.17-.43,1.76-.63a37.73,37.73,0,0,0,5.34-1.6c2.69-.7,5.41-1.27,8.13-1.87,6.78-1.5,13.63-3.27,19.42-7.27a102.8,102.8,0,0,0,8.57-7,73,73,0,0,1,9.05-6.77c6.51-4.07,13.56-7.16,20.28-10.85,6.22-3.42,12.3-7.26,17-12.6.34-.38.66-.78,1-1.18.38-.22.75-.45,1.12-.69s0-.94-.43-.76A.51.51,0,0,0,564,1c-.18.24-.38.47-.57.69l-.43.21a.33.33,0,0,0-.3.1l-.09.09c-1.05.51-2.09,1-3.15,1.48-1.78.79-3.59,1.5-5.42,2.16-3.71,1.33-7.51,2.43-11.33,3.41-7.48,1.93-15.08,3.36-22.55,5.28A100.53,100.53,0,0,0,500,21.63a51,51,0,0,0-16.5,12.68c-4.78,5.72-8.37,12.32-13.17,18-.12.15-.26.29-.39.44A61.64,61.64,0,0,1,454.79,61c-.77.28-1.54.55-2.31.84-3.87.86-7.72,1.79-11.56,2.74l-.91.09a.13.13,0,0,0-.1.16l-1.53.38-5.6,1.46c1.07-.58,2.12-1.18,3.16-1.78A67.68,67.68,0,0,0,442,61a42.44,42.44,0,0,0,5.75-5c.46-.41.92-.82,1.39-1.22q1.81-1.56,3.74-3c1.46-1.1,2.95-2.16,4.47-3.16l.05.05h0A7.62,7.62,0,0,0,465.56,51c2.59-.84,5.2-3.33,5.05-6.23a2.6,2.6,0,0,0-2.31-2.61,4.87,4.87,0,0,0-2.36.57c-.8.37-1.57.8-2.35,1.22s-1.62.9-2.42,1.37a24.5,24.5,0,0,0,3.17-3.19c1.79-2.24,3.28-5.11,3.22-8.05a4.07,4.07,0,0,0-1.67-3.45,3.21,3.21,0,0,0-3.55.19A9,9,0,0,0,459.6,34,17,17,0,0,0,458,37.94a17.66,17.66,0,0,0,0,9.24l-.81.68c-.9.6-1.78,1.21-2.65,1.84-1.47,1.06-2.89,2.18-4.28,3.34.32-.42.62-.86.92-1.3A23.16,23.16,0,0,0,454,45.87a6.79,6.79,0,0,0-.53-6,3.91,3.91,0,0,0-4.7-1.51,6.67,6.67,0,0,0-3.47,4.28,11.4,11.4,0,0,0,3.09,11.51,40.18,40.18,0,0,1-6.56,6.07,67,67,0,0,1-6.27,4.11c-1.76,1-3.61,1.94-5.34,3l-1.6.43c-.93.2-1.85.43-2.77.71A31.78,31.78,0,0,0,432.66,61a35.48,35.48,0,0,0,3.45-6.68,2.36,2.36,0,0,0,.71-1.57c0-.22,0-.44.05-.66s.18-.6.26-.9a8.2,8.2,0,0,0-.31-5.93.42.42,0,0,0-.71-.09,11.22,11.22,0,0,0-2,4.69,11.45,11.45,0,0,0-.16,2.48,2.82,2.82,0,0,0,.58,1.87,1.2,1.2,0,0,0,.74.37c-.15.38-.31.76-.47,1.13a34.86,34.86,0,0,1-5.45,8.63,43.3,43.3,0,0,1-4.19,4.16.24.24,0,0,0-.07.27l-.23.08q-7.41,2-14.8,4.23a31.37,31.37,0,0,0,7.61-4.75A20.27,20.27,0,0,0,423.05,61c1.31-3.12,1.87-6.47,2.94-9.67a32.91,32.91,0,0,1,5-8.71,47,47,0,0,0,5.19-8.45c2.72-6.12,3.85-12.78,6.44-18.94,2.09-5,5.3-10,10.15-12.61.41-.13.81-.28,1.22-.4.8-.25,1.6-.49,2.4-.76a.32.32,0,0,0,.19-.15c.33-.07.66-.12,1-.2s.56-.71.1-.86A5.63,5.63,0,0,0,454,.41a10.19,10.19,0,0,0-1.66.81,6,6,0,0,0-1.13.81c-1.59.6-3.15,1.3-4.64,2a50.93,50.93,0,0,0-8.61,5.35A51.73,51.73,0,0,0,424.58,24.6a48.37,48.37,0,0,0-4.13,9.27c-1.21,3.75-2.07,7.78-4.4,11-2.13,3-5.36,5-7.34,8.15s-2.36,7.14-3,10.83a21.45,21.45,0,0,1-1.56,5.31,16.91,16.91,0,0,1-2.84,4.22,18,18,0,0,1-4.35,3.44q-2.28.84-4.56,1.6l-1.12.41c-.36.06-.73.11-1.1.15a.15.15,0,0,0-.11.24c-3.4,1.11-6.79,2.22-10.17,3.37L372.72,85c-.12,0,0,.22.08.18q9-2.76,17.92-5.55A99.39,99.39,0,0,1,408,77.06a90.79,90.79,0,0,1,9.76,0l.64,0h-.05a.53.53,0,0,0-.11.9,10.25,10.25,0,0,0,4.07,2.15,8.32,8.32,0,0,0,4.4.14,1.58,1.58,0,0,0,1.17-1.2,1.76,1.76,0,0,0-.8-1.6A4.9,4.9,0,0,0,425,76.9c-.92-.12-1.84-.23-2.76-.32a89.38,89.38,0,0,0-21.68.53c-1.13.17-2.25.36-3.37.57,8.52-2.62,17.06-5.18,25.65-7.58a.45.45,0,0,0,.59.24l.17-.06c5.78,2.68,10.49,7.1,15.57,10.87a40.38,40.38,0,0,0,8.69,5.11,63.5,63.5,0,0,0,10.64,3.09c3.74.81,7.48,1.6,11.15,2.69s7.41,2.41,11.07,3.73c7.16,2.57,14.34,5.23,21.86,6.56a57.41,57.41,0,0,0,8.46.9,26.61,26.61,0,0,0,4.55-.1,36.31,36.31,0,0,0,8.47-1.61c.86-.28,1.71-.6,2.55-1a.51.51,0,0,0-.4-.93c-.64.28-1.29.52-1.95.75-.86.09-1.72.16-2.59.21a76.89,76.89,0,0,1-9-1.92A76.2,76.2,0,0,1,502.81,95a173.18,173.18,0,0,1-18.68-10.19c-6.12-3.7-12.21-7.45-18.63-10.62a70.92,70.92,0,0,0-19.8-6.7A48.38,48.38,0,0,0,434.49,67c2.59-.67,5.18-1.31,7.78-1.94,2.85.06,5.69.08,8.54.33A82.22,82.22,0,0,1,461.41,67c1.7.37,3.38.81,5,1.28a.51.51,0,0,0,.36.1l.09,0a.43.43,0,0,0-.11.72,29.54,29.54,0,0,0,9,6.14,3.14,3.14,0,0,0,2.34.25,1.6,1.6,0,0,0,1.07-1.43,2.37,2.37,0,0,0-1.12-1.76,14.47,14.47,0,0,0-2.26-1.45,33.29,33.29,0,0,0-5.3-2.12c-.7-.23-1.41-.44-2.11-.65.34-.09.68-.19,1-.3a9.41,9.41,0,0,0,1.37-.62,2,2,0,0,0,1-.91c.36-.87-.49-1.45-1.27-1.47a4.37,4.37,0,0,0-2.35.78,5,5,0,0,0-1.73,1.94l-1.53-.41A84.23,84.23,0,0,0,453.25,65q-3.31-.36-6.63-.47c-.7,0-1.39,0-2.09,0q5.66-1.33,11.35-2.53c1.2-.07,2.4-.21,3.6-.3,1.82-.13,3.65-.24,5.48-.31a79.78,79.78,0,0,1,11,.24c1.62.15,3.24.39,4.84.7a4,4,0,0,0-.79,3.9,6.65,6.65,0,0,0,3.22,3.64,4.91,4.91,0,0,0,4.87.28,3.2,3.2,0,0,0,1.46-3.81,5.32,5.32,0,0,0-3.39-3.2c-.31-.12-.63-.22-.95-.32a43.45,43.45,0,0,0,5.23.32,11,11,0,0,0,3.15,1.75,5.5,5.5,0,0,0,3.69.09,3.62,3.62,0,0,0,2.2-2.19,2.94,2.94,0,0,0-.56-2.85l0-.08c-.92-1.41-3.21-1.33-4.63-.94A6.52,6.52,0,0,0,490,62.51c-.68,0-1.36,0-2,0a58.45,58.45,0,0,1-6.86-.73.16.16,0,0,0-.1,0l-.45-.08a66.76,66.76,0,0,0-12.47-.91c-2.29,0-4.59.13-6.89.27l-1.6.11c10.15-2,20.37-3.67,30.66-4.8l1.59-.16c2.43.33,4.84.73,7.23,1.24.22.08.45.15.66.24a7.81,7.81,0,0,0,1.31.53c1.65,2.38,3.43,4.69,5.27,6.92a60.84,60.84,0,0,0,6.85,7.14A43.83,43.83,0,0,0,521.71,78c3.12,1.63,6.36,3,9.56,4.42,6.55,3,12.76,6.61,19.42,9.31s13.84,3.92,21,4.64c6.69.66,13.41,1,20,2.28l1.29.27.59.1c.8.17,1.59.35,2.38.55.51.12.75-.76.24-.9-1.18-.32-2.36-.59-3.55-.84-1.25-.44-2.52-.82-3.76-1.29q-2.31-.87-4.53-1.94a78,78,0,0,1-8.67-4.93c-5.62-3.66-10.87-7.86-16.24-11.88a107.46,107.46,0,0,0-17.12-11,85.79,85.79,0,0,0-19-6.34,193.82,193.82,0,0,0-20.18-3.2c-.62-.07-1.25-.13-1.87-.18a7.73,7.73,0,0,0-2.13-1.29l-.57-.22c7.26-.59,14.55-.91,21.84-.91,7.82,1.26,15.62,2.6,23.29,4.61,2,.52,4,1,6,1.6a.49.49,0,0,0,.11.43,20,20,0,0,0,8.87,5.82c.64.32,1.28.62,1.93.91a2.09,2.09,0,0,0,2,0,1.37,1.37,0,0,0,0-2,13.77,13.77,0,0,0-4.31-3.21c-3.41-1.78-7.27-2.68-11-3.66-4.15-1.09-8.34-2-12.56-2.84-3.32-.65-6.67-1.21-10-1.65,5.26.09,10.52.35,15.77.81a127.26,127.26,0,0,1,26.48,8c2.4,1,4.76,2.15,7.09,3.34,1.58.82,3.17,1.64,4.72,2.54-2.24.75-3.11,3.29-2.93,5.52.2,2.47,1.16,5.39,3.36,6.78a4.29,4.29,0,0,0,5-.13c.17.08.4,0,.4-.22v-.1a5.85,5.85,0,0,0,.53-.57,6,6,0,0,0,.16-6.66c-1.3-2.32-3.55-3.8-5.82-5.09-2.5-1.43-5.05-2.75-7.65-4a121,121,0,0,0-16-6.34c-3.07-1-6.18-1.82-9.32-2.52,1.45.17,2.91.35,4.36.55a197.25,197.25,0,0,1,29.28,6.42.5.5,0,0,0,.55.36l.46,0c2.47.75,4.92,1.53,7.36,2.36a24,24,0,0,1,4.61,4.34s-.08,0,0,.07l.44.42a40.53,40.53,0,0,1,3,4.31c2.39,4,4.28,8.32,6.85,12.2a4.25,4.25,0,0,0,.72,1,28.1,28.1,0,0,0,1.85,2.38,29.21,29.21,0,0,0,14.47,8.57A67.73,67.73,0,0,0,638.31,101c7,0,14-.26,20.93.85l.89.14a6.32,6.32,0,0,0,1,.57c.18.08.35.16.53.22a5.17,5.17,0,0,0,.64.19A.35.35,0,0,0,662.63,102.48ZM601.89,55.34a20,20,0,0,1-6.09,1.54l.22-.24a3.71,3.71,0,0,0,1.75-.84,9.94,9.94,0,0,0,1.78-1.94,10.93,10.93,0,0,1,1.89-2.13,4.33,4.33,0,0,1,1.26-.7,4.9,4.9,0,0,1,1.37-.17C605,52.61,603.43,54.57,601.89,55.34Zm-.51-5.87c.32,0,.68,0,1,0a3.47,3.47,0,0,1,1.35.94,3.6,3.6,0,0,0-2,.56,7.51,7.51,0,0,0-1.95,1.82A24.76,24.76,0,0,1,598,55a6.13,6.13,0,0,1-1.07.83,4.81,4.81,0,0,1-.46.22,6.15,6.15,0,0,0,.4-.76c.43-1,.64-2.09,1.06-3.11a4.26,4.26,0,0,1,2.06-2.3A4.9,4.9,0,0,1,601.38,49.47Zm-6.32,2.79a5.22,5.22,0,0,1,4-3.06,6.27,6.27,0,0,1,1.45-.11,4.19,4.19,0,0,0-.46.16,4.77,4.77,0,0,0-2.16,1.91,17.53,17.53,0,0,0-1.2,3.14,6.57,6.57,0,0,1-.69,1.44,4,4,0,0,1-.5.66l0,0A4.64,4.64,0,0,1,595.06,52.26ZM611.13,39c1,.38,2,.78,3,1.21a184.17,184.17,0,0,0-19.7-2.79,191.23,191.23,0,0,0-49.17,2.16,189.25,189.25,0,0,0-20.09,4.65c2.44-1,4.87-2,7.36-2.89q4.33-1.56,8.79-2.79A127.19,127.19,0,0,1,559.31,35a130,130,0,0,1,18.29-1,128,128,0,0,1,18.23,1.58A121.41,121.41,0,0,1,611.13,39Zm-73-1.72a67.24,67.24,0,0,1,20.34-4.39,160.75,160.75,0,0,1,20.59,0,128.4,128.4,0,0,1,19.63,2.52c.72.16,1.44.32,2.16.5-.87-.17-1.74-.34-2.61-.49a127.14,127.14,0,0,0-18.37-1.92,128.67,128.67,0,0,0-36.43,4.05,118.55,118.55,0,0,0-17.38,5.9c-.4.17-.79.36-1.19.54A111.15,111.15,0,0,1,538.13,37.28Zm4.44,3.79a192,192,0,0,1,49-2.73c5.1.37,10.19.95,15.24,1.74-2.81,0-5.61.21-8.4.48-6.13.58-12.22,1.5-18.31,2.41s-12.26,1.79-18.44,2.26-12.62.6-18.94.56c-3.55,0-7.09-.11-10.64-.22-2.45-.08-4.91-.23-7.37-.26C530.56,43.62,536.54,42.19,542.57,41.07Zm-18.69,3.46a.25.25,0,0,0,0,.08l-.3.08Zm-.6,1.18c2.56.21,5.14.25,7.7.34q4.71.16,9.43.23c6.23.09,12.47,0,18.69-.35s12.36-1.14,18.5-2,12.19-1.93,18.32-2.52c3.47-.33,7-.55,10.43-.57,1.92,0,3.84.06,5.75.18,1,.19,2,.38,3,.59a111,111,0,0,0-14.57,1c-6.41.84-12.75,2.08-19.11,3.17A165.57,165.57,0,0,1,562,48.2,174.17,174.17,0,0,1,542,48c-6.66-.41-13.31-1.08-20-1.73l-.56,0C522.06,46.05,522.67,45.89,523.28,45.71Zm-51.46,6.67.29-.22.28,0Zm75.75-37.85C541,18.25,534.16,21.3,527.7,25.14a70.91,70.91,0,0,0-9.32,6.54c-2.82,2.35-5.48,4.9-8.4,7.12a37.93,37.93,0,0,1-9.27,5.26A70.25,70.25,0,0,1,490.62,47l-.95.21q1.31-.47,2.58-1.05a43,43,0,0,0,7.46-4.52c5.11-3.76,9.64-8.26,14.9-11.83a95.49,95.49,0,0,1,16.61-8.55c5.53-2.33,11.15-4.53,16.5-7.26a68.23,68.23,0,0,0,7-4.1A72.76,72.76,0,0,1,547.57,14.53Zm1.57-2A166.33,166.33,0,0,1,533,19.94a111.41,111.41,0,0,0-16.44,8c-5.32,3.32-9.86,7.64-14.76,11.52-4.66,3.7-9.81,7.07-15.72,8.29l-.42.08c1.7-.87,3.37-1.82,5-2.83,6.23-3.9,11.82-8.69,17.68-13.09a91.83,91.83,0,0,1,9.28-6.25,86.93,86.93,0,0,1,8.66-4.27c6-2.56,12.09-4.65,18.05-7.18a77.14,77.14,0,0,0,11.41-5.84A60.75,60.75,0,0,1,549.14,12.55ZM558.05,6a63.56,63.56,0,0,1-11.9,6.79c-5.86,2.62-11.94,4.72-17.87,7.16a95,95,0,0,0-8.75,4,77.7,77.7,0,0,0-9,5.66c-5.94,4.28-11.47,9.11-17.51,13.25a63.23,63.23,0,0,1-10.54,6,62.55,62.55,0,0,0-8.73,2.7c-.35.07-.7.12-1.05.17l1.34-1c6.85-5.36,13.06-11.47,19.78-17a94.91,94.91,0,0,1,10.58-7.66,72.84,72.84,0,0,1,11.13-5.5c7.66-3.06,15.65-5.15,23.54-7.51A114.8,114.8,0,0,0,558.05,6Zm-37.86,9.38c2.13-.54,4.26-1,6.41-1.51,3-.64,6-1.23,9-1.83,3.71-.76,7.44-1.52,11.1-2.5q-2.61.9-5.25,1.73c-7.84,2.45-15.81,4.49-23.51,7.34a84.28,84.28,0,0,0-11.15,5,78.59,78.59,0,0,0-10.72,7.18C489.2,36.13,483,42.26,476.32,47.82c-.84.7-1.69,1.38-2.54,2.06,1.37-1.64,2.72-3.3,4.11-4.93q3.11-3.64,6.4-7.12a98.92,98.92,0,0,1,14.33-12.64,62.82,62.82,0,0,1,17.25-8.58C517.3,16.16,518.74,15.75,520.19,15.37Zm-38,21.77a48.49,48.49,0,0,1,7.47-7.95,52.59,52.59,0,0,1,8.73-5.85,72.55,72.55,0,0,1,8.81-4,60.61,60.61,0,0,0-7.13,4,89,89,0,0,0-14.45,12.27c-4.46,4.58-8.61,9.5-12.62,14.48-.23.28-.44.57-.67.86l-.79.61C475.47,47.14,478.54,41.92,482.16,37.14ZM466.59,49.63a7.11,7.11,0,0,1-8.13-1,10.2,10.2,0,0,0,6,.58,11.48,11.48,0,0,0,3-1,9.71,9.71,0,0,0,1.64-1A6.86,6.86,0,0,1,466.59,49.63Zm3-5.6a3.33,3.33,0,0,1-.06,2.2,19.63,19.63,0,0,1-2.37,1.54,11.5,11.5,0,0,1-2.87.94,12.22,12.22,0,0,1-5.7-.28,35.66,35.66,0,0,0,10.93-4.34S469.61,44.05,469.63,44Zm-4.56,0c1.14-.59,3.08-1.75,4.21-.55l.07.09s0,0,0,0A44.87,44.87,0,0,1,458,48.1c.92-.6,1.85-1.19,2.8-1.74Q462.91,45.12,465.07,44Zm1-12.34a4,4,0,0,1,.83,2.46,12.28,12.28,0,0,1-3,7.39,27.43,27.43,0,0,1-4,4A25.42,25.42,0,0,0,463.57,40a33.38,33.38,0,0,0,2.51-8.35Zm-1.43-.82.32.06a2.32,2.32,0,0,1,.88.5.21.21,0,0,0-.25.2,21.34,21.34,0,0,1-2.35,8.18,26.43,26.43,0,0,1-4.38,6.35A33.49,33.49,0,0,0,464.65,30.85Zm-5.91,14.67c0-.4,0-.8.08-1.2.08-.67.17-1.34.3-2A24.93,24.93,0,0,1,464,31.51,37.83,37.83,0,0,1,458.74,45.52Zm-.45-6.06a14.84,14.84,0,0,1,3.22-7.05,4.65,4.65,0,0,1,2.31-1.53,26.36,26.36,0,0,0-4,7.1,25.63,25.63,0,0,0-1.16,4.11,24.21,24.21,0,0,0-.43,2.89A16.24,16.24,0,0,1,458.29,39.46Zm-5.3,1c1.23,1.8.82,4.1.09,6a24.48,24.48,0,0,1-2.85,5.31l-.1.14a23.55,23.55,0,0,0,1.37-10.33,5.08,5.08,0,0,0-.58-2.61h0A3.5,3.5,0,0,1,453,40.47Zm-3.61-.58c.17-.59.89-1.09,1.24-.35a7.52,7.52,0,0,1,.41,2.59,23.48,23.48,0,0,1-.28,5.68,28.08,28.08,0,0,1-1.62,5.46l-.11.15-.08-.08a24.24,24.24,0,0,0-.14-2.69c0-1.07-.06-2.14,0-3.21,0-2,.2-4.08.42-6.12A9.84,9.84,0,0,1,449.38,39.89ZM445.89,44a6.88,6.88,0,0,1,2.53-4.48.53.53,0,0,0,.1-.06,13.76,13.76,0,0,0-2,6.41,15.36,15.36,0,0,0,.22,3.83c.06.32.14.64.22,1A10.51,10.51,0,0,1,445.89,44Zm2.45,7.52c0,.4,0,.82,0,1.23l-.18-.23c-.15-.35-.34-.71-.46-1.06a13.41,13.41,0,0,1-.5-1.75,14.15,14.15,0,0,1-.27-3.78,15.34,15.34,0,0,1,2.14-6.78h0a2.39,2.39,0,0,0-.39,1.07c-.09.61-.14,1.22-.19,1.83-.1,1.19-.16,2.38-.21,3.57s-.06,2.64-.06,4C448.31,50.22,448.32,50.87,448.34,51.52Zm-15.95-12A92.36,92.36,0,0,0,427,47.72a31.07,31.07,0,0,0-2.21,5.8c0-.21.05-.42.07-.63.15-1,.32-2.1.54-3.13a21.39,21.39,0,0,1,2.13-5.92c2-3.65,5.34-6.31,7.81-9.62A37.35,37.35,0,0,1,432.39,39.51Zm4.46-9.12c-.09.26-.19.51-.29.76A17.26,17.26,0,0,1,435,33.68a59.67,59.67,0,0,1-4.09,4.76,26.84,26.84,0,0,0-3.71,4.91,21.42,21.42,0,0,0-2.11,5.76,34,34,0,0,0-.6,3.47c-.1.89-.24,1.81-.26,2.71-.18.65-.36,1.3-.56,2l-.18.58c.3-2.18.19-4.47.39-6.63a22.9,22.9,0,0,1,2.57-8.42c2.73-5.29,6.88-9.6,10.18-14.5.64-.94,1.22-1.92,1.77-2.91C437.92,27.05,437.42,28.73,436.85,30.39ZM407.66,57a13.9,13.9,0,0,1,2.65-5c1.21-1.45,2.64-2.7,4-4a19.48,19.48,0,0,0,3.32-4.29,29.88,29.88,0,0,0,2.2-5.48c.58-1.83,1.09-3.68,1.75-5.49.34-.92.71-1.83,1.1-2.72-.34,1.13-.63,2.28-.89,3.43a54.74,54.74,0,0,1-2.45,9.18c-2.55,6.11-7.51,10.79-10.86,16.43a30.53,30.53,0,0,0-2,4A49.38,49.38,0,0,1,407.66,57Zm-2.57,11.42c0,.17,0,.33,0,.5,0,0,0,0,0,0,0-.28.08-.56.13-.84a23,23,0,0,0,.92-3.44c1.69-4.7,4.91-8.74,7.92-12.73a47.71,47.71,0,0,0,5.16-8,40,40,0,0,0,2.7-8.84c.37-1.7.74-3.41,1.25-5.08a37.79,37.79,0,0,1,2-4.82.12.12,0,0,0,0-.14A50.5,50.5,0,0,1,444.85,6a48.63,48.63,0,0,0-8.31,8.1,69.78,69.78,0,0,0-10.39,18.1c-1.4,3.46-2.62,7-3.71,10.56s-2,7-2.95,10.49a45,45,0,0,1-3.74,9.7,24.84,24.84,0,0,1-6.33,7.32,41.51,41.51,0,0,1-10.06,5.62A17.5,17.5,0,0,0,405.09,68.39Zm-2.52,6.9a40.49,40.49,0,0,0,5.09-2.79,26.76,26.76,0,0,0,6.81-6.27A32.53,32.53,0,0,0,419,57.08c1.13-3.36,2-6.81,2.92-10.22,1-3.6,2.13-7.17,3.41-10.68a75.68,75.68,0,0,1,9.94-19.13,53.37,53.37,0,0,1,6.53-7.39,48.48,48.48,0,0,1,6.44-5l-.27.26a27.85,27.85,0,0,0-4.87,7,60.28,60.28,0,0,0-3.87,10.52c-.14.34-.29.68-.46,1a37.44,37.44,0,0,1-2.21,3.84c-1.59,2.46-3.37,4.77-5.12,7.11-3.41,4.56-6.86,9.47-7.74,15.23a47.11,47.11,0,0,0-.36,5.18,25.19,25.19,0,0,1-.76,5.33.11.11,0,0,0,0,.08,19.76,19.76,0,0,1-3.35,5.53C415.16,70.52,409.4,73,403.62,75ZM483,95.76c-3.6-1.3-7.2-2.62-10.85-3.77s-7.25-2.06-10.93-2.86a96.19,96.19,0,0,1-10.85-2.73,36.55,36.55,0,0,1-9.25-4.72c-5.32-3.69-10-8.43-15.9-11.25-.23-.12-.47-.22-.71-.33h0a80.28,80.28,0,0,1,8.42,3.76c2.87,1.51,5.65,3.18,8.46,4.82s5.5,3.18,8.35,4.56a59,59,0,0,0,9.31,3.58c6.64,1.94,13.52,3,20.1,5.16s12.68,5.62,19.15,8.16c1.12.44,2.27.85,3.43,1.23A125.82,125.82,0,0,1,483,95.76Zm36.26,5.93a43.06,43.06,0,0,1-11.11.53,42.39,42.39,0,0,1-7.84-2c-6.49-2.31-12.5-5.76-18.95-8.13s-13.27-3.48-19.89-5.22A62.4,62.4,0,0,1,452,83.59c-2.91-1.28-5.7-2.8-8.47-4.36-5.53-3.13-11-6.52-17-8.76l-1.12-.4a59,59,0,0,1,8.61.26,71.82,71.82,0,0,1,10.18,1.89A106.74,106.74,0,0,1,464,79.77c6.43,3.12,12.57,6.75,18.84,10.17a112,112,0,0,0,19.69,8.89,59.38,59.38,0,0,0,10.29,2.32,46.41,46.41,0,0,0,7.08.38ZM443.63,68.16a68,68,0,0,1,19.88,6,201.12,201.12,0,0,1,18.73,10.38,201.13,201.13,0,0,0,18.41,10.19,68.43,68.43,0,0,0,17.94,5.9c-1.15,0-2.3,0-3.45-.12a55.15,55.15,0,0,1-10.51-2,100.3,100.3,0,0,1-19.82-8.51c-6.3-3.38-12.47-7-18.87-10.17a114.86,114.86,0,0,0-19.63-7.81A64.31,64.31,0,0,0,426,69.56l-.52,0A41.8,41.8,0,0,1,443.63,68.16Zm55.3-5.36a3.24,3.24,0,0,1-2.33,1.74,5.53,5.53,0,0,1-3.28-.4c-.2-.08-.38-.19-.57-.28a6.57,6.57,0,0,0,3.9.11,4.54,4.54,0,0,0,1.85-1.13,3.56,3.56,0,0,0,.63-.83A2.42,2.42,0,0,1,498.93,62.8Zm-.35-.89a2,2,0,0,0,.48-.69.07.07,0,0,0,0,.05,5,5,0,0,1-.81,1.33,4,4,0,0,1-1.84,1.07c-1.65.46-3.46-.11-5-.61h0l0,0a42.17,42.17,0,0,0,4.36-.27A4.93,4.93,0,0,0,498.58,61.91Zm-7.32.58a9.58,9.58,0,0,1,3.25-1.6,8.71,8.71,0,0,1,3.87-.06.12.12,0,0,0,.12,0,1.91,1.91,0,0,1-1.4,1.12,21.34,21.34,0,0,1-2.86.38C493.25,62.41,492.26,62.46,491.26,62.49Zm2.62-2.8c1.22-.49,3.37-.81,4.38.31a.92.92,0,0,1,.26.57.14.14,0,0,0-.1-.07,9,9,0,0,0-7.51,1.78A6,6,0,0,1,493.88,59.69Zm-7.53,4.09a4.26,4.26,0,0,1,2.77,3.48A2.37,2.37,0,0,1,489,68a4.55,4.55,0,0,0-.74-1.11,16.3,16.3,0,0,0-2-1.94,16.48,16.48,0,0,0-2.31-1.57c-.41-.23-.84-.45-1.27-.65l-.44-.21A19,19,0,0,1,486.35,63.78Zm-4.16-.57c.39.17.78.35,1.17.55a20,20,0,0,1,2.25,1.39,18,18,0,0,1,2,1.62,5.17,5.17,0,0,1,.85,1,2.75,2.75,0,0,1,.23.49l-.51-.26c-.38-.2-.75-.41-1.12-.64-.69-.43-1.36-.9-2-1.4a31.07,31.07,0,0,1-3.1-2.86Zm2.55,3.14a23.07,23.07,0,0,0,2.06,1.45c.34.21.69.42,1.05.62s.47.27.72.39a2.33,2.33,0,0,1-.36.34,9.58,9.58,0,0,0-1.07-.19,7,7,0,0,1-1.27-.35A6.9,6.9,0,0,1,481.4,63,18,18,0,0,0,484.74,66.35Zm-3.61-3.11a7.15,7.15,0,0,0,2.17,4.35,7.05,7.05,0,0,0,2.39,1.48,7.8,7.8,0,0,0,1.28.35,6,6,0,0,0,.73.08,3.37,3.37,0,0,1-1.68.41,6.32,6.32,0,0,1-4.57-2.69A3.7,3.7,0,0,1,481.13,63.24ZM574.94,95.6c-7.16-.64-14.36-1.44-21.19-3.83-2.08-.73-4.11-1.58-6.11-2.49l.12,0c2.53.76,5.11,1.37,7.7,1.92,5.44,1.15,10.91,2.13,16.37,3.18,3.15.6,6.29,1.29,9.46,1.76Zm6.52.6,0,0,.11,0ZM510.67,59c3.34.49,6.68,1,10,1.71A92.87,92.87,0,0,1,540,66.63,92.51,92.51,0,0,1,557.45,77.3c5.39,4,10.6,8.28,16.16,12.06a83.68,83.68,0,0,0,10.07,6c-3.08-1-6.13-2.11-9.12-3.37a208.21,208.21,0,0,1-20.17-10.06c-6.58-3.66-13.08-7.47-19.71-11a176.87,176.87,0,0,0-20.47-9.66c-2.81-1.08-5.67-2.05-8.57-2.89C507.32,58.54,509,58.75,510.67,59Zm1,2.13a161.62,161.62,0,0,1,20.54,9.46c6.65,3.56,13.15,7.39,19.71,11.09S565.11,88.94,572,92c2.08.92,4.18,1.78,6.31,2.6q-5.41-1.55-10.76-3.34-8.46-2.86-16.7-6.34t-16.27-7.56q-8-4.07-15.71-8.73t-15-9.83c-.13-.1-.27-.19-.41-.28C506.22,59.26,509,60.14,511.67,61.13Zm-9.1-2.86c2.15,1.65,4.38,3.17,6.62,4.68q3.73,2.53,7.56,4.91C521.82,71,527,74,532.3,76.77s10.75,5.4,16.27,7.8,11.17,4.6,16.88,6.59q6,2.1,12.08,3.89L573,94.19l-8.31-1.61c-5.29-1-10.6-2-15.79-3.54-2.21-.64-4.35-1.44-6.49-2.27-2.68-1.33-5.33-2.69-8-4-6.3-3-13-5.24-18.65-9.45-5.37-4-9.55-9.33-13.54-14.65l-.53-.69ZM577.11,77a7.85,7.85,0,0,1-.2-4.45,3.81,3.81,0,0,1,1.82-2.21,11,11,0,0,0-.61,6.13,12.33,12.33,0,0,0,1,3.18,12.07,12.07,0,0,0,.74,1.37l.12.21A7.46,7.46,0,0,1,577.11,77Zm2.67-7c.34.21.69.41,1,.63,2,1.34,4,3.14,4.48,5.6a5,5,0,0,1-.81,3.94A10.5,10.5,0,0,0,582.11,76a14.62,14.62,0,0,1-1.83-2.66,6,6,0,0,1-.48-3.29A.11.11,0,0,0,579.78,70Zm-.36,0,0,0c-.92,1.8.4,4.06,1.47,5.47,1.2,1.58,2.79,3.19,3,5.24a3.64,3.64,0,0,1-1.33.76,3.13,3.13,0,0,1-1.59.1,9.81,9.81,0,0,0-.58-.81,12,12,0,0,1-1.75-4.45,13.89,13.89,0,0,1,.43-6.21Zm8.5-5.86a102.64,102.64,0,0,1,12.71,1.59,96.29,96.29,0,0,1,16.07,4.58,104.3,104.3,0,0,1,15,7.21,93.08,93.08,0,0,1,13.56,9.6,102.18,102.18,0,0,1,9.66,9.41c-5.55-3.43-11.22-6.67-16.93-9.83C629.73,82.2,621.33,77.9,612.74,74A256.77,256.77,0,0,0,587.92,64.21Zm3.22,2.46q7.32,2.58,14.46,5.63a373.54,373.54,0,0,1,42.46,21.8,43.46,43.46,0,0,0-4.67-1c-5.19-.88-10.47-.93-15.71-1.22a50.07,50.07,0,0,1-14.53-2.45,25.59,25.59,0,0,1-6.21-3.21,22.66,22.66,0,0,1-4.74-4.69c-1.72-2.23-3.19-4.68-4.88-6.94A32.66,32.66,0,0,0,591.14,66.67Zm8,11.12c.65,1,1.3,2,2,2.93a26.11,26.11,0,0,0,4.26,4.83,23.55,23.55,0,0,0,5.75,3.57c9.41,4.2,19.84,3,29.8,4.25a40,40,0,0,1,7.8,1.74,27.75,27.75,0,0,1,3.84,1.65l1.11.67a25.4,25.4,0,0,0-3.67-.75c-4.47-.58-9-.17-13.49-.07-7.81.16-15.9-.62-23.22-3.51a36.35,36.35,0,0,1-5.82-2.91c-.45-.28-.92-.57-1.38-.88C603.23,85.85,601.25,81.76,599.13,77.79ZM657,100.41c-1.73-.19-3.47-.31-5.21-.37-3.49-.13-7-.06-10.45,0-6.24.08-12.52,0-18.63-1.34-5.57-1.23-11-3.58-15.09-7.7-.14-.13-.25-.28-.38-.42a34.18,34.18,0,0,0,3.45,1.93,44,44,0,0,0,11,3.6,68.53,68.53,0,0,0,12,1.14c4.49.07,9-.33,13.46,0A28.85,28.85,0,0,1,654,98.46a18.31,18.31,0,0,1,3.1,1.3,13,13,0,0,1,1.13.68s.08.09.11.14Zm.51-2.18a94.47,94.47,0,0,0-10.11-10.29,101.11,101.11,0,0,0-13.58-9.86,95.73,95.73,0,0,0-15-7.45,103.36,103.36,0,0,0-16-4.84,91.81,91.81,0,0,0-16.09-2l-.27-.13a14.33,14.33,0,0,0-1.68-.55,84,84,0,0,1,15.37.5,85.55,85.55,0,0,1,19,4.58,84.46,84.46,0,0,1,16.4,8.16,85.9,85.9,0,0,1,13.67,10.89,97.83,97.83,0,0,1,10.57,12.42C659,99.17,658.24,98.71,657.49,98.23Z"/><path class="cls-2" d="M533.36,31.57a10.68,10.68,0,0,0-1.56.45,10.36,10.36,0,0,0-3.18,1.92.48.48,0,0,0,.24.85H529l.09.05a7.64,7.64,0,0,0,6.28-1.07,1.39,1.39,0,0,0,.71-1.23,1.27,1.27,0,0,0-.95-1.07A3.67,3.67,0,0,0,533.36,31.57Z"/><path class="cls-2" d="M436.91,57.28c-.09.38.37.62.67.5a12.21,12.21,0,0,0,3.09-1.91,7.4,7.4,0,0,0,2-3.39c.07-.27-.1-.66-.44-.57A7.43,7.43,0,0,0,436.91,57.28Z"/><path class="cls-2" d="M587.46,51a7.06,7.06,0,0,0-1.56.42,14.08,14.08,0,0,0-1.65.7,14.9,14.9,0,0,0-3.32,2.24.51.51,0,0,0,.38.89c.44-.06.87-.14,1.29-.23l.31,0H583l.06,0a11.1,11.1,0,0,0,2.09-.45,12.28,12.28,0,0,0,1.73-.7,6.33,6.33,0,0,0,1.49-.91,1.13,1.13,0,0,0,.3-1.45A1.32,1.32,0,0,0,587.46,51Z"/><path class="cls-2" d="M417.39,73.82c-.33.3-.82.66-.9,1.12a.78.78,0,0,0,.87.89,3.47,3.47,0,0,0,1.24-.4,10,10,0,0,0,1.1-.62,7,7,0,0,0,.89-.48A6.09,6.09,0,0,0,422.68,72a.43.43,0,0,0-.46-.59A10.65,10.65,0,0,0,417.39,73.82Z"/></g><g class="cls-1"><path class="cls-2" d="M0,102.48c.09-.22.19-.44.29-.65a.42.42,0,0,1,.15-.58l.21-.13a10.77,10.77,0,0,1,1-1.52,1.83,1.83,0,0,1,.3-.32,1,1,0,0,1,.3-.16,75.92,75.92,0,0,1,8.93-11,85.93,85.93,0,0,1,29.73-20,86.65,86.65,0,0,1,38.74-5.9l1.16.1q8.43-2.55,17-4.39c-8.47.33-17,.47-25.42.08a51.69,51.69,0,0,1-7.55-.79c-2-.39-4.36-.87-5.87-2.37a3.55,3.55,0,0,1-.56-4.74,5.52,5.52,0,0,1,5-1.5A5.94,5.94,0,0,1,68.1,51.9a5.18,5.18,0,0,1-.49,5l0,.05h0c2,.25,4,.36,6.07.44,4.68.18,9.36.2,14,.16,4.32,0,8.64-.17,13-.26,1.08-.21,2.17-.42,3.26-.61,2-.35,3.94-.66,5.92-1a116.11,116.11,0,0,1-22-2c-2.35-.45-4.84-1.08-6.59-2.83a.51.51,0,0,1,.12-.86c4.45-1.88,8.83.93,12.34,3.44a.51.51,0,0,1,.18.24c.41.06.82.13,1.23.18a127.21,127.21,0,0,0,15.47,1.16c1.44,0,2.88,0,4.32,0a239,239,0,0,1,48-.66c-2.47-1.09-4.95-2.16-7.46-3.15Q149.85,49,144,47.12l-1.16-.36a.23.23,0,0,1-.16,0c-3.13.46-6.28.77-9.43,1.09-3.32.33-6.65.63-10,.86a193.9,193.9,0,0,1-19.88.5,158.83,158.83,0,0,1-19.58-2c-6.38-1-12.73-2.23-19.12-3.16A113.79,113.79,0,0,0,45.46,42.6c-.77,0-1.54.06-2.31.1l0,0c-.66.34-1.1-.73-.44-1.07a81.32,81.32,0,0,1,18.63-6.83,118.41,118.41,0,0,1,19.82-2.89,171.28,171.28,0,0,1,20.64-.23,71.88,71.88,0,0,1,20.71,3.8,72.78,72.78,0,0,1,9.46,4.23c3,1.59,6,3.28,8.86,5.1l1.16.74a184,184,0,0,1,22.33,8.7l.55.27c2.32.2,4.64.45,7,.71a131.26,131.26,0,0,1-16.54-7.9q-4.35-2.41-8.52-5.1c-2.72-1.74-5.44-3.52-8-5.51a18.93,18.93,0,0,1-6.19-7.36.44.44,0,0,1,.35-.6h0a.55.55,0,0,1,.73-.09,1.22,1.22,0,0,1,.19.12,8.39,8.39,0,0,1,5.24,2.76,19.87,19.87,0,0,1,3.7,6.77.44.44,0,0,1,0,.3c1.19.82,2.4,1.61,3.61,2.4a167.36,167.36,0,0,0,17.13,9.77c3.18,1.59,6.43,3,9.67,4.48v0a.38.38,0,0,0,0-.1l0-.11s0-.09.07,0l.05.13a.42.42,0,0,0,0,.1s0,0,0,0h0l0,0,0,.1.17.07c10.66,1.27,21.24,3.09,31.74,5.32l-.53-.22a54.53,54.53,0,0,1-5.64-2.77c-1.92-1.08-3.79-2.26-5.6-3.51-1.45-.7-2.9-1.39-4.4-2-.58-.23-1.17-.43-1.76-.63a37.73,37.73,0,0,1-5.34-1.6c-2.69-.7-5.41-1.27-8.13-1.87-6.78-1.5-13.63-3.27-19.42-7.27a102.8,102.8,0,0,1-8.57-7,73,73,0,0,0-9-6.77c-6.51-4.07-13.56-7.16-20.28-10.85-6.22-3.42-12.3-7.26-17-12.6-.34-.38-.66-.78-1-1.18-.38-.22-.75-.45-1.12-.69s0-.94.43-.76a.51.51,0,0,1,.83,0c.18.24.38.47.57.69l.43.21a.33.33,0,0,1,.3.1l.09.09c1,.51,2.09,1,3.15,1.48,1.78.79,3.59,1.5,5.42,2.16,3.71,1.33,7.51,2.43,11.33,3.41,7.48,1.93,15.08,3.36,22.55,5.28a100.53,100.53,0,0,1,20.15,7.18,51,51,0,0,1,16.5,12.68c4.78,5.72,8.37,12.32,13.17,18,.12.15.26.29.39.44A61.64,61.64,0,0,0,207.86,61l2.31.84c3.87.86,7.72,1.79,11.56,2.74l.91.09a.13.13,0,0,1,.1.16l1.53.38,5.6,1.46c-1.07-.58-2.12-1.18-3.16-1.78a67.68,67.68,0,0,1-6.05-3.9,42.44,42.44,0,0,1-5.75-5c-.46-.41-.92-.82-1.39-1.22q-1.83-1.56-3.74-3c-1.46-1.1-2.95-2.16-4.47-3.16l-.05.05h0A7.62,7.62,0,0,1,197.09,51c-2.59-.84-5.2-3.33-5.05-6.23a2.59,2.59,0,0,1,2.31-2.61,4.87,4.87,0,0,1,2.36.57c.8.37,1.57.8,2.35,1.22s1.62.9,2.42,1.37a23.89,23.89,0,0,1-3.17-3.19,13,13,0,0,1-3.22-8.05,4.07,4.07,0,0,1,1.67-3.45,3.21,3.21,0,0,1,3.55.19A9,9,0,0,1,203.05,34a17,17,0,0,1,1.63,3.91,17.56,17.56,0,0,1,0,9.24l.82.68c.9.6,1.78,1.21,2.65,1.84,1.47,1.06,2.89,2.18,4.28,3.34-.32-.42-.63-.86-.92-1.3a23.16,23.16,0,0,1-2.92-5.87,6.79,6.79,0,0,1,.53-6,3.91,3.91,0,0,1,4.7-1.51,6.67,6.67,0,0,1,3.47,4.28,11.4,11.4,0,0,1-3.09,11.51,40.18,40.18,0,0,0,6.56,6.07,67,67,0,0,0,6.27,4.11c1.76,1,3.6,1.94,5.34,3l1.6.43c.93.2,1.85.43,2.77.71A31.78,31.78,0,0,1,230,61a35.48,35.48,0,0,1-3.45-6.68,2.32,2.32,0,0,1-.71-1.57c0-.22,0-.44-.05-.66s-.18-.6-.26-.9a8.2,8.2,0,0,1,.31-5.93.42.42,0,0,1,.71-.09,11.22,11.22,0,0,1,2.17,7.17,2.82,2.82,0,0,1-.58,1.87,1.2,1.2,0,0,1-.74.37c.15.38.31.76.47,1.13a34.86,34.86,0,0,0,5.45,8.63,43.3,43.3,0,0,0,4.19,4.16.24.24,0,0,1,.07.27l.23.08q7.41,2,14.8,4.23A31.37,31.37,0,0,1,245,68.29,20.27,20.27,0,0,1,239.6,61c-1.31-3.12-1.87-6.47-2.94-9.67a32.91,32.91,0,0,0-5-8.71,47,47,0,0,1-5.19-8.45c-2.72-6.12-3.85-12.78-6.44-18.94-2.09-5-5.3-10-10.16-12.61-.4-.13-.8-.28-1.21-.4-.8-.25-1.6-.49-2.4-.76a.32.32,0,0,1-.19-.15c-.33-.07-.66-.12-1-.2s-.56-.71-.1-.86a5.63,5.63,0,0,1,3.69.18,10.19,10.19,0,0,1,1.66.81,6,6,0,0,1,1.13.81c1.59.6,3.15,1.3,4.64,2a50.93,50.93,0,0,1,8.61,5.35A51.73,51.73,0,0,1,238.07,24.6a48.37,48.37,0,0,1,4.13,9.27c1.21,3.75,2.07,7.78,4.4,11,2.13,3,5.36,5,7.34,8.15s2.36,7.14,3,10.83a21.45,21.45,0,0,0,1.56,5.31,16.91,16.91,0,0,0,2.84,4.22,18,18,0,0,0,4.35,3.44c1.51.56,3,1.09,4.55,1.6.39.13.76.27,1.13.41s.73.11,1.1.15a.15.15,0,0,1,.11.24c3.4,1.11,6.79,2.22,10.17,3.37L289.93,85c.12,0,0,.22-.08.18q-9-2.76-17.92-5.55a99.39,99.39,0,0,0-17.32-2.61,90.79,90.79,0,0,0-9.76,0l-.64,0h0a.53.53,0,0,1,.11.9,10.25,10.25,0,0,1-4.07,2.15,8.32,8.32,0,0,1-4.4.14,1.58,1.58,0,0,1-1.17-1.2,1.76,1.76,0,0,1,.8-1.6,4.9,4.9,0,0,1,2.17-.57c.92-.12,1.84-.23,2.76-.32a89.38,89.38,0,0,1,21.68.53c1.13.17,2.25.36,3.37.57-8.52-2.62-17.07-5.18-25.65-7.58a.45.45,0,0,1-.59.24l-.17-.06c-5.79,2.68-10.49,7.1-15.57,10.87a40.38,40.38,0,0,1-8.69,5.11,63.5,63.5,0,0,1-10.64,3.09c-3.74.81-7.48,1.6-11.15,2.69s-7.41,2.41-11.07,3.73c-7.16,2.57-14.34,5.23-21.86,6.56a57.41,57.41,0,0,1-8.46.9,26.59,26.59,0,0,1-4.55-.1,36.31,36.31,0,0,1-8.47-1.61c-.86-.28-1.71-.6-2.55-1a.51.51,0,0,1,.4-.93c.64.28,1.29.52,1.95.75.86.09,1.72.16,2.59.21a76.89,76.89,0,0,0,9-1.92A76.2,76.2,0,0,0,159.84,95a173.18,173.18,0,0,0,18.68-10.19c6.11-3.7,12.21-7.45,18.63-10.62a70.92,70.92,0,0,1,19.8-6.7A48.38,48.38,0,0,1,228.16,67c-2.59-.67-5.18-1.31-7.78-1.94-2.85.06-5.69.08-8.54.33A82.22,82.22,0,0,0,201.24,67c-1.7.37-3.38.81-5.05,1.28a.51.51,0,0,1-.36.1l-.09,0a.43.43,0,0,1,.11.72,29.54,29.54,0,0,1-9,6.14,3.14,3.14,0,0,1-2.34.25,1.6,1.6,0,0,1-1.07-1.43,2.37,2.37,0,0,1,1.12-1.76,14.47,14.47,0,0,1,2.26-1.45,33.29,33.29,0,0,1,5.3-2.12c.7-.23,1.4-.44,2.11-.65-.34-.09-.68-.19-1-.3a9,9,0,0,1-1.37-.62,2,2,0,0,1-1-.91c-.36-.87.49-1.45,1.27-1.47a4.37,4.37,0,0,1,2.35.78,5,5,0,0,1,1.73,1.94l1.53-.41A84.23,84.23,0,0,1,209.4,65c2.2-.24,4.42-.4,6.63-.47.7,0,1.39,0,2.09,0q-5.66-1.33-11.35-2.53c-1.2-.07-2.4-.21-3.6-.3-1.82-.13-3.65-.24-5.48-.31a79.78,79.78,0,0,0-11,.24c-1.62.15-3.24.39-4.85.7a4,4,0,0,1,.8,3.9,6.65,6.65,0,0,1-3.22,3.64,4.91,4.91,0,0,1-4.87.28,3.2,3.2,0,0,1-1.46-3.81,5.32,5.32,0,0,1,3.39-3.2c.31-.12.63-.22.95-.32a43.45,43.45,0,0,1-5.23.32A11,11,0,0,1,169,64.82a5.5,5.5,0,0,1-3.69.09,3.62,3.62,0,0,1-2.2-2.19,2.94,2.94,0,0,1,.56-2.85.59.59,0,0,1,0-.08c.92-1.41,3.21-1.33,4.63-.94a6.52,6.52,0,0,1,4.27,3.66c.68,0,1.36,0,2,0a58.45,58.45,0,0,0,6.86-.73.12.12,0,0,1,.09,0l.46-.08a66.76,66.76,0,0,1,12.47-.91c2.29,0,4.59.13,6.89.27l1.6.11c-10.15-2-20.37-3.67-30.66-4.8l-1.59-.16c-2.43.33-4.84.73-7.23,1.24-.22.08-.45.15-.66.24a7.81,7.81,0,0,1-1.31.53c-1.66,2.38-3.43,4.69-5.27,6.92a60.84,60.84,0,0,1-6.85,7.14A43.6,43.6,0,0,1,140.93,78c-3.11,1.63-6.35,3-9.55,4.42-6.55,3-12.76,6.61-19.42,9.31s-13.84,3.92-21,4.64c-6.69.66-13.41,1-20,2.28-.43.09-.86.19-1.29.27L69,99c-.8.17-1.59.35-2.38.55-.51.12-.75-.76-.24-.9,1.18-.32,2.36-.59,3.55-.84,1.25-.44,2.52-.82,3.76-1.29q2.31-.87,4.53-1.94a78,78,0,0,0,8.67-4.93c5.62-3.66,10.87-7.86,16.24-11.88a107,107,0,0,1,17.12-11,85.79,85.79,0,0,1,19-6.34,193.82,193.82,0,0,1,20.18-3.2c.62-.07,1.24-.13,1.87-.18a7.73,7.73,0,0,1,2.13-1.29l.57-.22c-7.26-.59-14.55-.91-21.84-.91-7.82,1.26-15.62,2.6-23.29,4.61-2,.52-4,1-6,1.6a.49.49,0,0,1-.11.43A20,20,0,0,1,104,67.12c-.64.32-1.28.62-1.93.91a2.09,2.09,0,0,1-2,0,1.37,1.37,0,0,1,0-2,13.84,13.84,0,0,1,4.3-3.21c3.42-1.78,7.28-2.68,11-3.66,4.15-1.09,8.34-2,12.56-2.84,3.32-.65,6.67-1.21,10-1.65-5.26.09-10.52.35-15.77.81a127.26,127.26,0,0,0-26.48,8c-2.4,1-4.76,2.15-7.09,3.34-1.58.82-3.17,1.64-4.72,2.54,2.24.75,3.11,3.29,2.93,5.52-.2,2.47-1.16,5.39-3.36,6.78a4.29,4.29,0,0,1-5-.13c-.17.08-.4,0-.4-.22v-.1a5.85,5.85,0,0,1-.53-.57,6,6,0,0,1-.16-6.66c1.3-2.32,3.55-3.8,5.82-5.09,2.5-1.43,5-2.75,7.65-4a121,121,0,0,1,16-6.34c3.07-1,6.18-1.82,9.32-2.52-1.45.17-2.91.35-4.36.55a197.25,197.25,0,0,0-29.28,6.42.5.5,0,0,1-.55.36l-.46,0c-2.47.75-4.92,1.53-7.36,2.36a24,24,0,0,0-4.61,4.34s.08,0,0,.07l-.44.42a40.53,40.53,0,0,0-2.95,4.31c-2.39,4-4.28,8.32-6.85,12.2a4.25,4.25,0,0,1-.72,1,28.1,28.1,0,0,1-1.85,2.38,29.21,29.21,0,0,1-14.47,8.57A67.73,67.73,0,0,1,24.34,101c-7,0-14-.26-20.93.85l-.89.14a6.83,6.83,0,0,1-1,.57c-.18.08-.35.16-.53.22a5.17,5.17,0,0,1-.64.19A.35.35,0,0,1,0,102.48ZM60.76,55.34a20,20,0,0,0,6.09,1.54l-.22-.24a3.71,3.71,0,0,1-1.75-.84,9.94,9.94,0,0,1-1.78-1.94,11.27,11.27,0,0,0-1.89-2.13A4.46,4.46,0,0,0,60,51a4.9,4.9,0,0,0-1.37-.17C57.61,52.61,59.22,54.57,60.76,55.34Zm.51-5.87c-.32,0-.68,0-1,0a3.47,3.47,0,0,0-1.35.94,3.6,3.6,0,0,1,1.95.56,7.67,7.67,0,0,1,2,1.82A24.76,24.76,0,0,0,64.66,55a6.13,6.13,0,0,0,1.07.83,4.81,4.81,0,0,0,.46.22,6.15,6.15,0,0,1-.4-.76c-.43-1-.64-2.09-1.06-3.11a4.26,4.26,0,0,0-2.06-2.3A4.9,4.9,0,0,0,61.27,49.47Zm6.32,2.79a5.22,5.22,0,0,0-4-3.06,6.27,6.27,0,0,0-1.45-.11,4.19,4.19,0,0,1,.46.16,4.77,4.77,0,0,1,2.16,1.91A16.77,16.77,0,0,1,66,54.3a7.1,7.1,0,0,0,.7,1.44,3.48,3.48,0,0,0,.5.66l0,0A4.64,4.64,0,0,0,67.59,52.26ZM51.52,39c-1,.38-2,.78-3.05,1.21a184.17,184.17,0,0,1,19.7-2.79,191.23,191.23,0,0,1,49.17,2.16,189.25,189.25,0,0,1,20.09,4.65c-2.44-1-4.87-2-7.36-2.89q-4.33-1.56-8.79-2.79A127.19,127.19,0,0,0,103.34,35a130,130,0,0,0-18.29-1,128,128,0,0,0-18.23,1.58A121.41,121.41,0,0,0,51.52,39Zm73-1.72a67.24,67.24,0,0,0-20.34-4.39,160.75,160.75,0,0,0-20.59,0A128.4,128.4,0,0,0,64,35.38c-.72.16-1.44.32-2.16.5.87-.17,1.74-.34,2.6-.49a127.43,127.43,0,0,1,18.38-1.92,128.67,128.67,0,0,1,36.43,4.05,118.55,118.55,0,0,1,17.38,5.9c.4.17.79.36,1.19.54A111.15,111.15,0,0,0,124.52,37.28Zm-4.44,3.79a192,192,0,0,0-49-2.73c-5.1.37-10.19.95-15.24,1.74,2.81,0,5.61.21,8.4.48,6.13.58,12.22,1.5,18.31,2.41S94.85,44.76,101,45.23s12.62.6,18.94.56c3.55,0,7.09-.11,10.63-.22,2.46-.08,4.92-.23,7.38-.26C132.08,43.62,126.11,42.19,120.08,41.07Zm18.69,3.46a.25.25,0,0,1,0,.08l.3.08Zm.6,1.18c-2.56.21-5.14.25-7.7.34q-4.71.16-9.43.23c-6.23.09-12.47,0-18.69-.35s-12.36-1.14-18.5-2S72.86,42,66.73,41.37c-3.47-.33-7-.55-10.43-.57-1.92,0-3.84.06-5.75.18-1,.19-2,.38-3,.59a111,111,0,0,1,14.57,1c6.4.84,12.75,2.08,19.11,3.17a165.57,165.57,0,0,0,19.45,2.41A174.17,174.17,0,0,0,120.68,48c6.66-.41,13.31-1.08,19.95-1.73l.56,0C140.59,46.05,140,45.89,139.37,45.71Zm51.46,6.67-.29-.22-.28,0ZM115.08,14.53c6.53,3.72,13.41,6.77,19.87,10.61a71.59,71.59,0,0,1,9.32,6.54c2.82,2.35,5.48,4.9,8.4,7.12a38,38,0,0,0,9.26,5.26A70.76,70.76,0,0,0,172,47l.95.21q-1.3-.47-2.58-1.05a43,43,0,0,1-7.46-4.52c-5.11-3.76-9.64-8.26-14.9-11.83a95.49,95.49,0,0,0-16.61-8.55c-5.53-2.33-11.15-4.53-16.5-7.26a68.23,68.23,0,0,1-7-4.1A72.76,72.76,0,0,0,115.08,14.53Zm-1.57-2a166.33,166.33,0,0,0,16.12,7.39,111.41,111.41,0,0,1,16.44,8c5.32,3.32,9.86,7.64,14.76,11.52,4.66,3.7,9.81,7.07,15.72,8.29l.42.08C175.26,47,173.6,46,172,45c-6.23-3.9-11.82-8.69-17.68-13.09A91.83,91.83,0,0,0,145,25.66a86.93,86.93,0,0,0-8.66-4.27c-6-2.56-12.09-4.65-18.05-7.18A77.14,77.14,0,0,1,106.9,8.37,60.75,60.75,0,0,0,113.51,12.55ZM104.6,6a63.56,63.56,0,0,0,11.9,6.79c5.86,2.62,11.94,4.72,17.87,7.16a95,95,0,0,1,8.75,4,77.7,77.7,0,0,1,9,5.66c5.94,4.28,11.47,9.11,17.51,13.25a63.23,63.23,0,0,0,10.54,6,62.55,62.55,0,0,1,8.73,2.7c.35.07.7.12,1,.17l-1.34-1c-6.85-5.36-13.06-11.47-19.78-17a94.91,94.91,0,0,0-10.58-7.66,72.84,72.84,0,0,0-11.13-5.5c-7.66-3.06-15.65-5.15-23.54-7.51A114.8,114.8,0,0,1,104.6,6Zm37.86,9.38c-2.13-.54-4.26-1-6.41-1.51-3-.64-6-1.23-9-1.83-3.71-.76-7.44-1.52-11.1-2.5q2.61.9,5.25,1.73c7.84,2.45,15.81,4.49,23.51,7.34a84.28,84.28,0,0,1,11.15,5,78.59,78.59,0,0,1,10.72,7.18c6.85,5.36,13.05,11.49,19.73,17.05.84.7,1.69,1.38,2.54,2.06-1.37-1.64-2.72-3.3-4.11-4.93q-3.1-3.64-6.41-7.12A98.32,98.32,0,0,0,164,25.19a62.82,62.82,0,0,0-17.25-8.58C145.35,16.16,143.91,15.75,142.46,15.37Zm38,21.77A48.49,48.49,0,0,0,173,29.19a52.59,52.59,0,0,0-8.73-5.85,73.25,73.25,0,0,0-8.81-4,60.61,60.61,0,0,1,7.13,4,89,89,0,0,1,14.45,12.27c4.46,4.58,8.61,9.5,12.62,14.48.23.28.44.57.67.86l.79.61C187.18,47.14,184.11,41.92,180.49,37.14Zm15.57,12.49a7.11,7.11,0,0,0,8.13-1,10.2,10.2,0,0,1-6,.58,11.68,11.68,0,0,1-3-1,10,10,0,0,1-1.63-1A6.86,6.86,0,0,0,196.06,49.63ZM193,44a3.27,3.27,0,0,0,.06,2.2,19.63,19.63,0,0,0,2.37,1.54,11.56,11.56,0,0,0,2.86.94,12.26,12.26,0,0,0,5.71-.28,35.66,35.66,0,0,1-10.93-4.34S193,44.05,193,44Zm4.56,0c-1.14-.59-3.08-1.75-4.21-.55l-.07.09h0a44.87,44.87,0,0,0,11.31,4.54c-.92-.6-1.85-1.19-2.8-1.74Q199.75,45.12,197.58,44Zm-1-12.34a4,4,0,0,0-.83,2.46,12.28,12.28,0,0,0,2.95,7.39,27.43,27.43,0,0,0,4,4A25.42,25.42,0,0,1,199.08,40a33.38,33.38,0,0,1-2.51-8.35Zm1.43-.82-.32.06a2.32,2.32,0,0,0-.88.5.21.21,0,0,1,.25.2,21.34,21.34,0,0,0,2.35,8.18,26.43,26.43,0,0,0,4.38,6.35A33.49,33.49,0,0,1,198,30.85Zm5.91,14.67c0-.4,0-.8-.08-1.2-.08-.67-.17-1.34-.3-2a25.76,25.76,0,0,0-1.18-4.23,25.28,25.28,0,0,0-3.71-6.58A38,38,0,0,0,203.91,45.52Zm.45-6.06a14.84,14.84,0,0,0-3.22-7.05,4.65,4.65,0,0,0-2.31-1.53,26.63,26.63,0,0,1,4,7.1A25.63,25.63,0,0,1,204,42.09a24.21,24.21,0,0,1,.43,2.89A16.24,16.24,0,0,0,204.36,39.46Zm5.3,1c-1.23,1.8-.82,4.1-.09,6a24.48,24.48,0,0,0,2.85,5.31l.1.14a23.55,23.55,0,0,1-1.37-10.33,5.08,5.08,0,0,1,.58-2.61h0A3.5,3.5,0,0,0,209.66,40.47Zm3.61-.58c-.18-.59-.89-1.09-1.25-.35a7.76,7.76,0,0,0-.4,2.59,23.48,23.48,0,0,0,.28,5.68,28.08,28.08,0,0,0,1.62,5.46l.11.15.08-.08a24.24,24.24,0,0,1,.14-2.69c0-1.07.06-2.14,0-3.21,0-2-.2-4.08-.42-6.12A9.84,9.84,0,0,0,213.27,39.89ZM216.76,44a6.92,6.92,0,0,0-2.53-4.48.53.53,0,0,1-.1-.06,13.76,13.76,0,0,1,2,6.41,15.85,15.85,0,0,1-.22,3.83c-.06.32-.14.64-.22,1A10.51,10.51,0,0,0,216.76,44Zm-2.45,7.52c0,.4,0,.82,0,1.23l.18-.23c.15-.35.33-.71.46-1.06a13.41,13.41,0,0,0,.5-1.75,14.15,14.15,0,0,0,.27-3.78,15.34,15.34,0,0,0-2.14-6.78h0a2.39,2.39,0,0,1,.39,1.07c.09.61.14,1.22.19,1.83.1,1.19.16,2.38.21,3.57s.06,2.64.06,4C214.34,50.22,214.33,50.87,214.31,51.52Zm15.95-12a92.36,92.36,0,0,1,5.42,8.21,31.07,31.07,0,0,1,2.21,5.8c0-.21,0-.42-.07-.63-.15-1-.32-2.1-.54-3.13a21.39,21.39,0,0,0-2.13-5.92c-2-3.65-5.34-6.31-7.81-9.62A37.35,37.35,0,0,0,230.26,39.51Zm-4.46-9.12c.09.26.19.51.28.76a18.24,18.24,0,0,0,1.55,2.53,57.68,57.68,0,0,0,4.09,4.76,26.84,26.84,0,0,1,3.71,4.91,21.42,21.42,0,0,1,2.11,5.76c.26,1.15.45,2.3.6,3.47.1.89.24,1.81.26,2.71.18.65.36,1.3.56,2l.18.58c-.3-2.18-.19-4.47-.39-6.63a22.9,22.9,0,0,0-2.57-8.42c-2.73-5.29-6.88-9.6-10.18-14.5-.64-.94-1.22-1.92-1.77-2.91C224.73,27.05,225.23,28.73,225.8,30.39ZM255,57a13.9,13.9,0,0,0-2.65-5c-1.21-1.45-2.64-2.7-4-4a19.48,19.48,0,0,1-3.32-4.29,29.88,29.88,0,0,1-2.2-5.48c-.58-1.83-1.1-3.68-1.75-5.49-.34-.92-.71-1.83-1.1-2.72.34,1.13.63,2.28.89,3.43a54.74,54.74,0,0,0,2.45,9.18c2.55,6.11,7.51,10.79,10.86,16.43a30.53,30.53,0,0,1,2,4A49.38,49.38,0,0,0,255,57Zm2.57,11.42c0,.17,0,.33.05.5,0,0,0,0-.05,0,0-.28-.08-.56-.13-.84a23,23,0,0,1-.92-3.44c-1.69-4.7-4.91-8.74-7.92-12.73a47.71,47.71,0,0,1-5.16-8,39.46,39.46,0,0,1-2.7-8.84c-.37-1.7-.74-3.41-1.25-5.08a37.79,37.79,0,0,0-2-4.82.12.12,0,0,1,0-.14A50.5,50.5,0,0,0,217.8,6a49,49,0,0,1,8.31,8.1,69.78,69.78,0,0,1,10.39,18.1c1.4,3.46,2.62,7,3.71,10.56s2,7,2.95,10.49A45,45,0,0,0,246.9,63a24.84,24.84,0,0,0,6.33,7.32,41.64,41.64,0,0,0,10,5.62A17.56,17.56,0,0,1,257.56,68.39Zm2.52,6.9A40.49,40.49,0,0,1,255,72.5a26.76,26.76,0,0,1-6.81-6.27,32.26,32.26,0,0,1-4.56-9.15c-1.13-3.36-2-6.81-2.92-10.22-1-3.6-2.13-7.17-3.41-10.68a75.68,75.68,0,0,0-9.94-19.13,54,54,0,0,0-6.53-7.39,48.48,48.48,0,0,0-6.44-5l.27.26a27.85,27.85,0,0,1,4.87,7,60.28,60.28,0,0,1,3.87,10.52c.14.34.29.68.46,1a37.44,37.44,0,0,0,2.21,3.84c1.58,2.46,3.37,4.77,5.12,7.11,3.41,4.56,6.86,9.47,7.74,15.23a47.11,47.11,0,0,1,.36,5.18,25.19,25.19,0,0,0,.76,5.33.11.11,0,0,1,0,.08,19.76,19.76,0,0,0,3.35,5.53C247.49,70.52,253.25,73,259,75ZM179.66,95.76c3.6-1.3,7.2-2.62,10.85-3.77s7.25-2.06,10.93-2.86a96.19,96.19,0,0,0,10.85-2.73,36.55,36.55,0,0,0,9.25-4.72c5.32-3.69,10-8.43,15.9-11.25.23-.12.47-.22.71-.33h0a80.28,80.28,0,0,0-8.42,3.76c-2.87,1.51-5.65,3.18-8.46,4.82s-5.5,3.18-8.36,4.56a58.54,58.54,0,0,1-9.3,3.58c-6.64,1.94-13.52,3-20.1,5.16s-12.68,5.62-19.15,8.16c-1.12.44-2.27.85-3.43,1.23A125.82,125.82,0,0,0,179.66,95.76Zm-36.26,5.93a43.06,43.06,0,0,0,11.11.53,42.39,42.39,0,0,0,7.84-2c6.49-2.31,12.5-5.76,19-8.13s13.27-3.48,19.89-5.22a62.4,62.4,0,0,0,9.51-3.26c2.91-1.28,5.7-2.8,8.47-4.36,5.53-3.13,11-6.52,17-8.76l1.12-.4a59,59,0,0,0-8.61.26,72.22,72.22,0,0,0-10.19,1.89,106.92,106.92,0,0,0-19.79,7.55c-6.43,3.12-12.58,6.75-18.84,10.17a112,112,0,0,1-19.69,8.89,59.59,59.59,0,0,1-10.29,2.32,46.41,46.41,0,0,1-7.08.38ZM219,68.16a68,68,0,0,0-19.88,6,201.12,201.12,0,0,0-18.73,10.38A201.13,201.13,0,0,1,162,94.78a68.43,68.43,0,0,1-17.94,5.9c1.15,0,2.3,0,3.45-.12a55.15,55.15,0,0,0,10.51-2,100.3,100.3,0,0,0,19.82-8.51c6.3-3.38,12.47-7,18.87-10.17a114.86,114.86,0,0,1,19.63-7.81,64.31,64.31,0,0,1,20.36-2.56l.52,0A41.8,41.8,0,0,0,219,68.16Zm-55.3-5.36a3.24,3.24,0,0,0,2.33,1.74,5.54,5.54,0,0,0,3.28-.4c.2-.08.38-.19.57-.28A6.57,6.57,0,0,1,166,64a4.54,4.54,0,0,1-1.85-1.13,3.56,3.56,0,0,1-.63-.83A2.42,2.42,0,0,0,163.72,62.8Zm.35-.89a2,2,0,0,1-.48-.69.07.07,0,0,1,0,.05,5,5,0,0,0,.81,1.33,4,4,0,0,0,1.84,1.07c1.65.46,3.46-.11,5-.61h0l0,0a42.17,42.17,0,0,1-4.36-.27A4.93,4.93,0,0,1,164.07,61.91Zm7.32.58a9.58,9.58,0,0,0-3.25-1.6,8.71,8.71,0,0,0-3.87-.06.12.12,0,0,1-.12,0,1.89,1.89,0,0,0,1.4,1.12,21.12,21.12,0,0,0,2.86.38C169.4,62.41,170.39,62.46,171.39,62.49Zm-2.62-2.8c-1.22-.49-3.38-.81-4.38.31a.92.92,0,0,0-.26.57.14.14,0,0,1,.1-.07,9,9,0,0,1,7.51,1.78A6,6,0,0,0,168.77,59.69Zm7.53,4.09a4.26,4.26,0,0,0-2.77,3.48,2.37,2.37,0,0,0,.11.76,4.55,4.55,0,0,1,.74-1.11,16.3,16.3,0,0,1,2-1.94,16.48,16.48,0,0,1,2.31-1.57c.41-.23.83-.45,1.27-.65l.44-.21A19,19,0,0,0,176.3,63.78Zm4.16-.57c-.39.17-.78.35-1.17.55A20,20,0,0,0,177,65.15a18,18,0,0,0-2,1.62,5.17,5.17,0,0,0-.85,1,2.75,2.75,0,0,0-.23.49l.51-.26c.38-.2.75-.41,1.12-.64.69-.43,1.36-.9,2-1.4a29.91,29.91,0,0,0,3.09-2.86Zm-2.55,3.14a23.07,23.07,0,0,1-2.06,1.45c-.34.21-.69.42-1,.62s-.47.27-.72.39a2.33,2.33,0,0,0,.36.34,9.58,9.58,0,0,1,1.07-.19,7,7,0,0,0,1.27-.35A6.9,6.9,0,0,0,181.25,63,18,18,0,0,1,177.91,66.35Zm3.61-3.11a7.2,7.2,0,0,1-2.17,4.35A7.05,7.05,0,0,1,177,69.07a7.8,7.8,0,0,1-1.28.35,6,6,0,0,1-.73.08,3.37,3.37,0,0,0,1.68.41,6.32,6.32,0,0,0,4.57-2.69A3.7,3.7,0,0,0,181.52,63.24ZM87.71,95.6c7.16-.64,14.36-1.44,21.19-3.83C111,91,113,90.19,115,89.28l-.12,0c-2.54.76-5.11,1.37-7.7,1.92-5.44,1.15-10.91,2.13-16.37,3.18-3.15.6-6.29,1.29-9.46,1.76Zm-6.52.6-.06,0-.1,0ZM152,59c-3.34.49-6.68,1-10,1.71a92.87,92.87,0,0,0-19.35,5.92A92.19,92.19,0,0,0,105.2,77.3c-5.39,4-10.6,8.28-16.16,12.06a83.68,83.68,0,0,1-10.07,6c3.08-1,6.13-2.11,9.12-3.37a208.21,208.21,0,0,0,20.17-10.06c6.58-3.66,13.08-7.47,19.71-11a176.87,176.87,0,0,1,20.47-9.66c2.81-1.08,5.67-2.05,8.57-2.89C155.33,58.54,153.65,58.75,152,59Zm-1,2.13a161,161,0,0,0-20.54,9.46c-6.65,3.56-13.15,7.39-19.71,11.09S97.54,88.94,90.66,92c-2.08.92-4.18,1.78-6.31,2.6Q89.76,93,95.11,91.24q8.46-2.86,16.7-6.34t16.27-7.56q8-4.07,15.71-8.73t15-9.83c.13-.1.27-.19.41-.28C156.43,59.26,153.68,60.14,151,61.13Zm9.1-2.86c-2.15,1.65-4.38,3.17-6.62,4.68q-3.74,2.53-7.56,4.91C140.83,71,135.63,74,130.35,76.77s-10.75,5.4-16.27,7.8-11.17,4.6-16.88,6.59q-6,2.1-12.08,3.89l4.55-.86L98,92.58c5.29-1,10.6-2,15.79-3.54,2.21-.64,4.35-1.44,6.49-2.27,2.67-1.33,5.33-2.69,8-4,6.3-3,13-5.24,18.65-9.45,5.37-4,9.55-9.33,13.54-14.65L161,58ZM85.54,77a7.85,7.85,0,0,0,.2-4.45,3.81,3.81,0,0,0-1.82-2.21,11,11,0,0,1,.61,6.13,12.33,12.33,0,0,1-1,3.18A13.88,13.88,0,0,1,82.81,81c0,.06-.08.14-.13.21A7.43,7.43,0,0,0,85.54,77Zm-2.67-7c-.34.21-.69.41-1,.63-2,1.34-3.95,3.14-4.48,5.6a5,5,0,0,0,.81,3.94A10.5,10.5,0,0,1,80.54,76a14.62,14.62,0,0,0,1.83-2.66,6,6,0,0,0,.48-3.29A.11.11,0,0,1,82.87,70Zm.36,0,0,0c.92,1.8-.4,4.06-1.47,5.47-1.2,1.58-2.79,3.19-3,5.24a3.56,3.56,0,0,0,1.33.76,3.13,3.13,0,0,0,1.59.1,9.81,9.81,0,0,1,.58-.81A11.63,11.63,0,0,0,83,79.39a12.14,12.14,0,0,0,1-3,13.89,13.89,0,0,0-.43-6.21Zm-8.51-5.86A102.72,102.72,0,0,0,62,65.8,96.29,96.29,0,0,0,46,70.38a103.8,103.8,0,0,0-15,7.21,92.55,92.55,0,0,0-13.56,9.6A102.18,102.18,0,0,0,7.74,96.6c5.55-3.43,11.22-6.67,16.93-9.83C32.92,82.2,41.32,77.9,49.91,74A257.61,257.61,0,0,1,74.72,64.21Zm-3.21,2.46q-7.32,2.58-14.46,5.63A373.54,373.54,0,0,0,14.59,94.1a43.83,43.83,0,0,1,4.66-1c5.2-.88,10.48-.93,15.72-1.22A50.07,50.07,0,0,0,49.5,89.39a25.59,25.59,0,0,0,6.21-3.21,22.66,22.66,0,0,0,4.74-4.69c1.72-2.23,3.19-4.68,4.88-6.94A32.66,32.66,0,0,1,71.51,66.67Zm-8,11.12c-.65,1-1.3,2-2,2.93a26.11,26.11,0,0,1-4.26,4.83,23.55,23.55,0,0,1-5.75,3.57c-9.41,4.2-19.84,3-29.8,4.25a40,40,0,0,0-7.8,1.74,27.75,27.75,0,0,0-3.84,1.65L9,97.43a25.4,25.4,0,0,1,3.67-.75c4.47-.58,9-.17,13.49-.07C34,96.77,42,96,49.35,93.1a36.45,36.45,0,0,0,5.83-2.91c.44-.28.92-.57,1.38-.88C59.42,85.85,61.4,81.76,63.52,77.79ZM5.67,100.41c1.73-.19,3.47-.31,5.21-.37,3.49-.13,7-.06,10.45,0,6.24.08,12.52,0,18.63-1.34,5.57-1.23,11-3.58,15.09-7.7.14-.13.25-.28.38-.42A34.18,34.18,0,0,1,52,92.49a44,44,0,0,1-11,3.6,68.55,68.55,0,0,1-12,1.14c-4.48.07-9-.33-13.45,0a28.85,28.85,0,0,0-6.89,1.26,18.31,18.31,0,0,0-3.1,1.3,13,13,0,0,0-1.13.68,1.34,1.34,0,0,0-.11.14Zm-.51-2.18A94.47,94.47,0,0,1,15.27,87.94a101.11,101.11,0,0,1,13.58-9.86,95.73,95.73,0,0,1,15-7.45,103.36,103.36,0,0,1,16-4.84,91.81,91.81,0,0,1,16.09-2l.27-.13a14.33,14.33,0,0,1,1.68-.55,84.1,84.1,0,0,0-15.38.5,85.6,85.6,0,0,0-19,4.58,84.46,84.46,0,0,0-16.4,8.16A85.9,85.9,0,0,0,13.47,87.24,97.83,97.83,0,0,0,2.9,99.66C3.65,99.17,4.41,98.71,5.16,98.23Z"/><path class="cls-2" d="M129.29,31.57A10.27,10.27,0,0,1,134,33.94a.48.48,0,0,1-.23.85h-.11l-.09.05a7.64,7.64,0,0,1-6.28-1.07,1.39,1.39,0,0,1-.71-1.23,1.27,1.27,0,0,1,1-1.07A3.67,3.67,0,0,1,129.29,31.57Z"/><path class="cls-2" d="M225.74,57.28c.09.38-.37.62-.67.5A12.21,12.21,0,0,1,222,55.87a7.32,7.32,0,0,1-2-3.39c-.07-.27.1-.66.44-.57A7.43,7.43,0,0,1,225.74,57.28Z"/><path class="cls-2" d="M75.19,51a7.06,7.06,0,0,1,1.56.42,14.08,14.08,0,0,1,1.65.7,14.9,14.9,0,0,1,3.32,2.24.51.51,0,0,1-.38.89c-.44-.06-.87-.14-1.3-.23l-.3,0h-.13l-.06,0a10.93,10.93,0,0,1-2.09-.45,12.28,12.28,0,0,1-1.73-.7,6.33,6.33,0,0,1-1.49-.91,1.13,1.13,0,0,1-.3-1.45A1.31,1.31,0,0,1,75.19,51Z"/><path class="cls-2" d="M245.26,73.82c.33.3.82.66.9,1.12a.78.78,0,0,1-.87.89,3.47,3.47,0,0,1-1.24-.4,9.13,9.13,0,0,1-1.1-.62,7,7,0,0,1-.89-.48A6.19,6.19,0,0,1,240,72a.44.44,0,0,1,.47-.59A10.65,10.65,0,0,1,245.26,73.82Z"/></g></g></g></svg>