<svg xmlns="http://www.w3.org/2000/svg" viewBox="0 0 447.05 72.28"><defs><style>.cls-1{opacity:0.29;}.cls-2{fill:#ffffbd;}</style></defs><g id="Layer_2" data-name="Layer 2"><g id="Layer_1-2" data-name="Layer 1"><g class="cls-1"><polygon class="cls-2" points="12.69 24.43 12.69 24.41 12.55 24.41 12.55 24.43 12.69 24.43"/><path class="cls-2" d="M215.67,33.85c-3.6.85-7.2,1.62-10.82,2.27l-1,.17c-2.9.5-5.83.93-8.77,1.23a62.42,62.42,0,0,1-9.63-2.38h0v-.06a35.12,35.12,0,0,0-9.2-12.48c-4.2-3.64-9.24-6.17-13.47-9.78a25.93,25.93,0,0,1-3.12-3.08,26.07,26.07,0,0,1-2.47-3.6l-.07-.06L157.06,6c0-.08-.18,0-.14.06l0,.08a.12.12,0,0,0,0,.15c0,.14.12.26.18.4-.13-.2-.26-.39-.4-.57a.1.1,0,0,0-.1,0L156.55,6c-.08-.11-.23,0-.16.12l.32.49c.63,1.28,1.29,2.54,1.85,3.87s1.14,3,1.65,4.46a91.39,91.39,0,0,0,3.12,8.62,26,26,0,0,0,4.37,6.89,15.43,15.43,0,0,0,7.1,4.45,34.71,34.71,0,0,0,10.22.86,60.37,60.37,0,0,0,7.45,2c-1.33.11-2.66.21-4,.29a26.34,26.34,0,0,0-5.4.21H183l-.84,0a5,5,0,0,0-1.1-.22l-1.39-.18c-.89-.13-1.78-.27-2.66-.43q-2.7-.49-5.35-1.19c-.84-.22-1.66-.46-2.48-.72a.25.25,0,0,0-.11-.17,56.71,56.71,0,0,1-8.41-7,1.1,1.1,0,0,0,0-.18.7.7,0,0,0-.06-.19l0,0h0l-.06-.08h0l0,0a.57.57,0,0,0-.08-.25.54.54,0,0,0-.39-.22.62.62,0,0,0-.45.14.69.69,0,0,0-.24.43.83.83,0,0,0,.32.78.7.7,0,0,0,.48.13.52.52,0,0,0,.33-.14l0,0,.08-.09a48.42,48.42,0,0,0,7.09,6.4c-2.07-.71-4.12-1.51-6.11-2.42q-2.39-1.08-4.67-2.34a1,1,0,0,0-.37-1.15.36.36,0,0,0-.42,0,.7.7,0,0,0-.22.29.6.6,0,0,0-.25.13.69.69,0,0,0-.2.35.76.76,0,0,0,.14.58.84.84,0,0,0,.27.22.71.71,0,0,0,.35.07.81.81,0,0,0,.57-.3A67.31,67.31,0,0,0,176.19,38c.64.14,1.28.26,1.92.38q-3.54,0-7.07-.12c-4.8-.16-9.59-.46-14.38-.84l-.07-.05c-1.46-.58-2.9-1.22-4.32-1.9v-.1c-.84-6.41-6.3-10.56-11.33-13.85S130.45,15,125.49,11.25a73.65,73.65,0,0,1-7.15-6.16c-.16-.23-.31-.47-.48-.7,0-.08-.19,0-.15.09v0l-.1-.1c-.14-.14-.38,0-.25.2l.09.1h0c.7,1.61,1.4,3.2,2,4.87s1,3.32,1.54,5a49.15,49.15,0,0,0,3.43,9.2,19.27,19.27,0,0,0,6.09,7,25,25,0,0,0,8.59,3.59A66.72,66.72,0,0,0,151,35.61c1.11.55,2.24,1.08,3.38,1.58-9.18-.78-18.34-1.84-27.5-2.8a39.31,39.31,0,0,1-4.26-.89.33.33,0,0,0-.18-.08l-.15,0-.62-.17a45.71,45.71,0,0,1-6.76-2.68,77.35,77.35,0,0,1-12.65-8C98,19.42,94,16.05,89.75,12.87a82.43,82.43,0,0,0-12.62-8A40.83,40.83,0,0,0,63.39.54c-.25,0-.51,0-.76-.05L61.93,0c-.19-.12-.4.13-.24.28a.25.25,0,0,0,0,.12h-.1c-.09,0-.12.15,0,.16l.22,0a98,98,0,0,0,9.29,11A92.17,92.17,0,0,0,81.3,20.79,57.31,57.31,0,0,0,93,27.8a65.37,65.37,0,0,0,13.48,4.1c2.54.51,5.11.91,7.68,1.26a245.52,245.52,0,0,0-33.21-.93c-1.21.06-2.41.14-3.61.23a40.58,40.58,0,0,1-6.87-1.3c-4.79-1.33-9.36-3.32-14-5A63.06,63.06,0,0,0,49.29,24a42.86,42.86,0,0,0-7.49-1,102,102,0,0,0-15.42.78c-2.56.26-5.12.53-7.69.71a27.93,27.93,0,0,1-7.42-.1,7.27,7.27,0,0,1-.77-.2L10.38,24a.09.09,0,0,0-.15,0l-.82-.56a.11.11,0,0,0-.18.07.23.23,0,0,0-.07.31l.11.15a.18.18,0,0,0,.11.2l0,0a42.5,42.5,0,0,0,7.47,9,22,22,0,0,0,4.92,3.29A21.41,21.41,0,0,0,28,38.34a47,47,0,0,0,13.18-.53c4.89-.7,9.77-1.48,14.65-2.22l2.6-.39a113.34,113.34,0,0,0-19.86,6.27l-1.85.81-.33.13c-1.71.61-3.44,1.16-5.16,1.71C27.77,45.21,24.3,46.26,21,47.69A40.4,40.4,0,0,0,5.72,59,36.75,36.75,0,0,0,.14,68v0h0a.11.11,0,0,0,0,.22.18.18,0,0,0,.3.08l0,0s0,0,.08,0q.45-.08.9-.18a45.86,45.86,0,0,0,8-1.3,22.88,22.88,0,0,0,8.17-3.8c4.84-3.7,7.75-9.19,11.65-13.75a28.43,28.43,0,0,1,3.57-3.54c.25-.21.51-.4.77-.59l.92-.52c0,.09.09.18.18.13A67.38,67.38,0,0,1,41,41.6c1-.48,2.12-.93,3.19-1.35s2-.69,2.93-1.14A125.55,125.55,0,0,1,77,33.31a22.26,22.26,0,0,0,6.57-.12l1-.24L87,32.9l-.23,0L85,33.21a.17.17,0,0,0-.16-.07,2.74,2.74,0,0,0-.67.21c-1.19.2-2.38.42-3.57.67a99.84,99.84,0,0,0-12,3.3q-3.16,1.09-6.24,2.4a.65.65,0,0,0-1,0,.71.71,0,0,0,.32,1.06.76.76,0,0,0,.59,0,.62.62,0,0,0,.35-.51.5.5,0,0,0-.09-.32A109.15,109.15,0,0,1,74,36.1q4.32-1.18,8.72-2l-.48.24-2.57,1.28-5.23,2.63c-3.5,1.75-7,3.52-10.47,5.27L59.05,46a.8.8,0,0,0-1-.5.51.51,0,0,0-.16.09.79.79,0,0,0-.47.43.88.88,0,0,0,.51,1.11.87.87,0,0,0,.78-.12,1,1,0,0,0,.38-.61.81.81,0,0,0,0-.22q10.08-4.8,20.09-9.72L82.1,35l1.52-.75a9.11,9.11,0,0,0,1-.51l1.46-.25c1.15-.17,2.3-.33,3.46-.46.53-.07,1.07-.12,1.61-.17,6.62,0,13.24.37,19.84.9-3.06.28-6.12.67-9.15,1.2a120.52,120.52,0,0,0-27.19,8.15,116.12,116.12,0,0,0-12.72,6.49,106.08,106.08,0,0,0-11.74,8l-.91.74h0a.15.15,0,0,0-.13.12l-.32.25a.16.16,0,0,0,.06.28s0,0,0,0l.07.09a.22.22,0,0,0,.17,0l.19,0a.14.14,0,0,0,.09,0c5.06-.79,10.14-1.16,15.25-1.47a119.12,119.12,0,0,0,15.08-1.56,46.69,46.69,0,0,0,7.18-1.94,41.31,41.31,0,0,0,6.91-3.3c4.39-2.59,8.38-5.77,12.55-8.69s8.46-5.55,13.32-6.9c.61-.17,1.22-.31,1.83-.44a.34.34,0,0,0,.16-.07l.32,0c6,.6,12,1.26,18,1.9-2.77,1-5.57,2-8.39,2.88a.28.28,0,0,0-.27-.13c-1.24.09-2.48.34-3.72.5l-3.65.43c-2.22.24-4.45.39-6.68.54l0-.11a.63.63,0,0,0-.72-.22l-.16.1a.69.69,0,0,0-.11.13.61.61,0,0,0-.12.34,1,1,0,0,0,0,.18.94.94,0,0,0,.1.23.62.62,0,0,0,.27.21.8.8,0,0,0,.34,0,.75.75,0,0,0,.32-.13.67.67,0,0,0,.14-.19l0,0,0-.12V41.2h0c2.23-.06,4.46-.21,6.69-.38,1.22-.1,2.44-.22,3.66-.35l1.29-.14c-3.12.89-6.28,1.68-9.46,2.35q-2.93.61-5.88,1.11h0l0-.12-.06-.08-.12,0h-.17a.71.71,0,0,0-.41.17.81.81,0,0,0-.25.35.78.78,0,0,0,0,.22v.13a.29.29,0,0,0,.09.16.79.79,0,0,0,.45.53.7.7,0,0,0,1-.93l0-.07a141.41,141.41,0,0,0,21-5c2-.64,3.94-1.3,5.88-2a.28.28,0,0,0,.18-.22c4.11.43,8.23.85,12.35,1.2l-7.09,2.17-1.79.55-2.37.73c-4.41,1.36-8.8,2.79-13.21,4.14-4,1.22-8.17,2.36-11.74,4.65a15.42,15.42,0,0,0-6.75,8.48c-1.1,3.78-.87,8.11-3.23,11.45a9.6,9.6,0,0,1-.86,1,.15.15,0,0,0,0,.22.12.12,0,0,0,.1.07.14.14,0,0,0,.09.11.17.17,0,0,0,.19.15,22.71,22.71,0,0,0,7.91-2.11,27.23,27.23,0,0,0,6.88-4.5,26,26,0,0,0,5.13-6.35c.85-1.5,1.56-3.07,2.34-4.6a26.67,26.67,0,0,1,2.47-4,25.86,25.86,0,0,1,7.3-6.6c.73-.28,1.46-.55,2.21-.79a23.44,23.44,0,0,0,2.49-.83.3.3,0,0,0,.18-.26l3.51-1.07c2.5-.69,5-1.33,7.52-1.94l1.59-.39.12-.06c3.5.28,7,.52,10.5.69,2.79.14,5.59.22,8.4.26l-.66.19a24.63,24.63,0,0,0-5.11,2.35l0,0c-2.06.75-4.11,1.55-6.15,2.37a65.56,65.56,0,0,0-11.6,5.67,35.29,35.29,0,0,0-8.9,8.55,87.21,87.21,0,0,0-6.52,10.44l-.09.17c-.21.27-.41.54-.61.82-.17.09-.35.19-.53.27a.11.11,0,0,0,.09.21l.18-.09h0a.13.13,0,0,0,.18.14h.05a.19.19,0,0,0,.32,0l0,0a82.35,82.35,0,0,0,10.49-1.53,25.57,25.57,0,0,0,8.75-3.1c5.21-3.34,6.58-9.69,8.87-15a23.27,23.27,0,0,1,2.33-4.31A14.32,14.32,0,0,1,168,44.49a19.72,19.72,0,0,1,1.63-1.4l3.84-1.86c.48-.15,1-.31,1.45-.45a53.93,53.93,0,0,1,7.1-1.59c5.16-.1,10.33-.41,15.45-1a20.3,20.3,0,0,0-2,1A45.67,45.67,0,0,0,190,42.12,46.52,46.52,0,0,0,180,50.56a41,41,0,0,0-4.43,6v.12a.14.14,0,0,0,.15.19,12.21,12.21,0,0,0,6.65-3,34.83,34.83,0,0,0,5.22-5.63,48.06,48.06,0,0,1,5.16-6,19.33,19.33,0,0,1,3.19-2.43l.39-.22c.82-.35,1.64-.68,2.47-1,1-.38,2.12-.65,3.15-1,3-.46,5.87-1,8.78-1.71,1.74-.42,3.44-.88,5.14-1.43C216.16,34.33,216,33.77,215.67,33.85Zm-38.74.43A14.15,14.15,0,0,1,170.57,31a25.31,25.31,0,0,1-4.41-5.52,70,70,0,0,1-3.75-7c-.64-1.35-1.25-2.73-1.82-4.12-.17-.41-.33-.83-.49-1.25s-.35-.93-.54-1.39-.27-.69-.41-1c.78,1.53,1.58,3,2.43,4.54a60.68,60.68,0,0,0,5.65,8.45,36.63,36.63,0,0,0,7.44,7,40.32,40.32,0,0,0,8,4.26A25.73,25.73,0,0,1,176.93,34.28Zm-9.18-17.06c2.36,1.62,4.76,3.17,7,5a34.63,34.63,0,0,1,9.08,11.21c-.32-.47-.67-.93-1-1.37a25.14,25.14,0,0,0-2.5-2.66c-1.83-1.71-3.85-3.21-5.83-4.75a85.45,85.45,0,0,1-12.08-11.36l-.4-.48A52.66,52.66,0,0,0,167.75,17.22Zm-6.3-4.55q2.67,3.06,5.56,5.9t6.21,5.51c2,1.58,4,3.06,5.88,4.72a25.77,25.77,0,0,1,2.93,3,18.85,18.85,0,0,1,1.84,2.78A42.13,42.13,0,0,1,176,30.67a36.41,36.41,0,0,1-7.61-6.56,53.94,53.94,0,0,1-5.82-8.1c-1.17-2-2.25-4-3.32-6C160,10.93,160.7,11.81,161.45,12.67Zm.13,4.58.21.47c1.14,2.48,2.42,4.89,3.79,7.25a28.61,28.61,0,0,0,4.14,5.8,15.05,15.05,0,0,0,4.15,3,14.77,14.77,0,0,1-5.22-3.38C165.06,26.82,163.24,22,161.58,17.25Zm-12.64,17.5-2.25-.12A18.36,18.36,0,0,1,141,32.22c-2.53-1.49-5.06-3-7.44-4.77a34.12,34.12,0,0,1-6.4-5.9,41.38,41.38,0,0,1-4.6-7.09c-1.26-2.44-2.34-5-3.42-7.47.4.62.8,1.24,1.21,1.85.94,1.4,1.92,2.78,3,4.12a76.36,76.36,0,0,0,6.67,7.6A79.89,79.89,0,0,0,146,33c1,.61,2.11,1.19,3.18,1.75ZM118.43,5.81c0,.09.11.17.16.25.12.35.26.7.39,1-.2-.46-.4-.92-.63-1.37Zm13.28,24.92a18.33,18.33,0,0,1-6.43-6.63,43.57,43.57,0,0,1-3.54-8.83c-.57-1.83-1.1-3.67-1.74-5.49l-.37-1a52.6,52.6,0,0,0,6.75,12.39,32.59,32.59,0,0,0,6.23,6.13c2.42,1.83,5,3.41,7.58,5a29.54,29.54,0,0,0,4,2.17A29.38,29.38,0,0,1,131.71,30.73ZM151,34.84a80.29,80.29,0,0,1-12-7.33,82.62,82.62,0,0,1-14.58-13.88c-1.2-1.47-2.35-3-3.45-4.52-.46-.66-.91-1.34-1.35-2a55.92,55.92,0,0,0,4.34,3.8c2.39,1.89,4.89,3.63,7.43,5.3s5.14,3.31,7.7,5a50.48,50.48,0,0,1,7.57,5.67,15.33,15.33,0,0,1,4.68,8ZM2,67.77c5-2,9.2-5.65,13.16-9.27,2.22-2,4.44-4.08,6.85-5.91s4.66-3.42,7.11-4.94L30.16,47c-.65.48-1.3,1-1.92,1.48-2.2,1.77-4.26,3.7-6.3,5.65-4,3.83-8,7.82-12.79,10.68a27.17,27.17,0,0,1-6.38,2.83ZM12.1,53.59a39.18,39.18,0,0,1,8.19-4.93A90.78,90.78,0,0,1,30.4,45l1.33-.42A109.14,109.14,0,0,0,3.63,64.57Q2.3,65.91,1,67.3A40.93,40.93,0,0,1,12.1,53.59Zm19.18-7.92-1.4.84a76.14,76.14,0,0,0-7.15,5C18,55.21,13.91,59.65,9.12,63.29A31.46,31.46,0,0,1,.88,67.94h0A120.53,120.53,0,0,1,31.28,45.67Zm-7,9.15a41.17,41.17,0,0,1-5.92,6.92,21.44,21.44,0,0,1-8,4.34A39.11,39.11,0,0,1,5.3,67.25l-1.22.19A35.93,35.93,0,0,0,14.9,61c4.36-3.59,8.17-7.79,12.5-11.41.89-.76,1.81-1.48,2.76-2.17l-.34.35A73.42,73.42,0,0,0,24.32,54.82ZM37.8,42.61l.19-.07-.18.09S37.81,42.62,37.8,42.61ZM16.36,25.19c2.6-.09,5.18-.32,7.77-.56a138.34,138.34,0,0,1,15.62-1,45.4,45.4,0,0,1,7.73.76,52.83,52.83,0,0,1,7.22,2C59.44,28,64,30.07,68.82,31.54c.94.29,1.88.55,2.83.79l-.83.13c-.87-.07-1.74-.16-2.6-.3-2-.33-4.06-.83-6.06-1.36a92.35,92.35,0,0,0-12-2.74,93.56,93.56,0,0,0-12.3-.58c-4.11,0-8.22.13-12.33,0a56.3,56.3,0,0,1-12.12-1.7l-.87-.24c-.31-.18-.63-.37-.93-.57A20.23,20.23,0,0,0,16.36,25.19ZM14.43,27a39.12,39.12,0,0,0,5.81,2.28,64.27,64.27,0,0,0,13.28,2.33c4.75.41,9.51.67,14.27.91q6.63.34,13.27.52c-1.06.1-2.12.2-3.18.32-4.5.49-9,1.14-13.5,1.49A65.33,65.33,0,0,1,31,34.7a36.26,36.26,0,0,1-11-3.13,26.53,26.53,0,0,1-8.46-6.2A32,32,0,0,0,14.43,27ZM64,32.45Q56.9,32.3,49.78,32c-4.73-.18-9.47-.37-14.2-.7a76.13,76.13,0,0,1-13.52-2,38.29,38.29,0,0,1-8.57-3.31,35.12,35.12,0,0,0,4.16.92,57.47,57.47,0,0,0,6.13.69c4.14.25,8.29.17,12.44.14a109.77,109.77,0,0,1,12.43.42,52.28,52.28,0,0,1,6.09,1c2,.47,4.07,1.05,6.1,1.61,2.24.62,4.51,1.23,6.81,1.66Zm-6.23,2L43.1,36.75A60.53,60.53,0,0,1,30,37.81a23.31,23.31,0,0,1-6.29-1.23,20,20,0,0,1-5.33-2.92,40.32,40.32,0,0,1-8-8.85l-.19-.26.32.1.27.19a21.31,21.31,0,0,0,3.19,3.25,28.45,28.45,0,0,0,4.51,3,35.15,35.15,0,0,0,10.42,3.57,59.5,59.5,0,0,0,13.4.67c4.58-.22,9.13-.76,13.69-1.22,2.81-.29,5.63-.55,8.45-.69Zm59.53.76c-1.06.39-2.1.84-3.13,1.33-2.14.94-4.26,1.94-6.37,3-4.37,2.13-8.68,4.41-13,6.56A139.37,139.37,0,0,1,81.5,51.91a90.12,90.12,0,0,1-14.8,4C61.82,56.81,56.89,57.4,52,58,56,57.18,60,56.15,64,55q7.26-2.1,14.33-4.8c4.7-1.8,9.35-3.76,13.9-5.92,4.39-2.1,8.66-4.48,13.14-6.4,1.25-.54,2.53-1,3.82-1.5,2.12-.57,4.24-1.13,6.36-1.66a24.88,24.88,0,0,1,2.72-.31l.88.08ZM50.2,58.56l.4,0-.55.1Zm2.28-1.06c3.33-1.55,6.65-3.11,10-4.59,4.48-2,9-3.82,13.55-5.6s9.1-3.45,13.72-5q6.7-2.27,13.52-4.25c-3.12,1.49-6.16,3.15-9.25,4.7Q87.26,46.14,80.26,49c-4.69,1.89-9.49,3.54-14.33,5C63.5,54.7,61,55.39,58.58,56,56.56,56.55,54.52,57,52.48,57.5Zm23.06-53a74.79,74.79,0,0,1,12.7,7.93c4.22,3.16,8.25,6.55,12.43,9.76a85.6,85.6,0,0,0,12.52,8.24c1,.51,2,1,3,1.44-2.66-.73-5.31-1.49-8-2.32A119.21,119.21,0,0,1,95.68,25,70.75,70.75,0,0,1,84,18.53,97,97,0,0,1,73.61,9.84,122.33,122.33,0,0,0,63.32,1L63,.77A42.64,42.64,0,0,1,75.54,4.53Zm32.86,27a69.7,69.7,0,0,1-13.53-3.71,55.52,55.52,0,0,1-11.82-6.61,90.57,90.57,0,0,1-10.32-8.85A125.47,125.47,0,0,1,63.12,1.64l-.4-.51c1.44,1.14,2.9,2.26,4.3,3.47,1.72,1.49,3.4,3,5.08,4.57A120,120,0,0,0,82.48,18,68.18,68.18,0,0,0,93.9,24.67a114.91,114.91,0,0,0,12.5,4.85c3.72,1.22,7.48,2.31,11.25,3.36C114.56,32.51,111.47,32.1,108.4,31.55ZM60.74,51A120.78,120.78,0,0,1,86.6,39.46a118.1,118.1,0,0,1,26.12-5,43.79,43.79,0,0,0-5.6,1.87l-.91.39-.74.21q-7,2.07-14,4.41T77.69,46.29q-6.85,2.61-13.6,5.49c-4.49,1.92-9,3.9-13.36,6l-.4.2-.12,0C53.61,55.53,57.11,53.17,60.74,51ZM95.4,49.12a45,45,0,0,1-6.73,3.7,41.37,41.37,0,0,1-7.25,2.33,93.55,93.55,0,0,1-15,1.84c-2.17.14-4.35.27-6.52.43,1.68-.24,3.36-.49,5-.78a97.26,97.26,0,0,0,14.86-3.71A128,128,0,0,0,93.25,47.3c4.4-2.09,8.73-4.3,13.11-6.41l1.86-.9-.39.26C103.6,43.08,99.66,46.33,95.4,49.12Zm15.92,21.22-.61.25c-1,.26-1.92.47-2.9.64l-.56,0a17.43,17.43,0,0,0,7.26-4.67c2.33-2.52,3.72-5.73,5.68-8.52a39.69,39.69,0,0,1,6.14-6.93c.43-.38.86-.75,1.31-1.11a32.6,32.6,0,0,0-2.42,2.7,57.15,57.15,0,0,0-4.77,7.58,31.08,31.08,0,0,1-5.17,7.27A13.73,13.73,0,0,1,111.32,70.34Zm15.83-20.45a40.9,40.9,0,0,0-6.28,6.67,40.21,40.21,0,0,0-2.66,4,43.77,43.77,0,0,1-2.85,4.5,17.94,17.94,0,0,1-7.8,5.77,53,53,0,0,0,6.75-7.74,96.91,96.91,0,0,1,7.18-9A40.64,40.64,0,0,1,130.81,47l.11-.06A46.64,46.64,0,0,0,127.15,49.89Zm-16.66,11a14.58,14.58,0,0,1,2.12-5.52,15.9,15.9,0,0,1,3.83-3.89c3.35-2.46,7.37-3.77,11.3-5,2.18-.66,4.35-1.36,6.53-2l.84-.25-.3.17c-1,.45-1.94.91-2.89,1.42a43.2,43.2,0,0,0-9.59,6.77A65,65,0,0,0,115,61.45a67.77,67.77,0,0,1-7.34,8.94l0,0C109.63,67.77,109.86,64,110.49,60.84ZM132,48.62a26.4,26.4,0,0,0-2.46,3.64c-.84,1.5-1.56,3.07-2.33,4.6a26.94,26.94,0,0,1-5,7,26.62,26.62,0,0,1-6.65,4.84,25.94,25.94,0,0,1-2.76,1.21,14,14,0,0,0,1.49-1,24,24,0,0,0,5.39-6.64c1.6-2.69,3-5.51,4.82-8.05a31.92,31.92,0,0,1,5.64-6l.55-.42c1-.68,2.1-1.32,3.2-1.92.55-.3,1.1-.57,1.65-.84A25.17,25.17,0,0,0,132,48.62ZM142.42,60a36.81,36.81,0,0,1,8.52-8.69,55.92,55.92,0,0,1,11.34-5.87c1.78-.73,3.57-1.45,5.37-2.13l-.21.17-.39.25c-2.43,1.25-4.82,2.56-7.15,4a81.07,81.07,0,0,0-16.36,12.79c-1.43,1.5-2.82,3.05-4.15,4.65-.36.43-.72.86-1.07,1.3C139.61,64.22,140.92,62,142.42,60Zm-5.56,8.94c.81-1,1.6-2,2.4-3,1.15-1.42,2.32-2.83,3.54-4.2a61.07,61.07,0,0,1,7.77-7.31,86.21,86.21,0,0,1,13-8.19c-.83.65-1.65,1.32-2.43,2-5.57,4.82-10.39,10.43-16,15.19a49.44,49.44,0,0,1-8.46,5.89Zm2.12.5.86-.31a23.9,23.9,0,0,0,3.85-1.85,37.26,37.26,0,0,0,6.93-5.39c2.25-2.18,4.33-4.52,6.37-6.9s4-4.7,6.13-6.9l.29-.28c-.49.65-1,1.33-1.39,2-1.44,2.34-2.63,4.82-4,7.21a24.09,24.09,0,0,1-5.24,6.59,23.82,23.82,0,0,1-7.09,4,35.79,35.79,0,0,1-5.07,1.46C140.09,69.19,139.54,69.3,139,69.4ZM160.75,50c-1,1.16-2,2.34-3,3.52-3.94,4.67-7.86,9.44-13.07,12.74a26.39,26.39,0,0,1-4.36,2.24,28,28,0,0,1-3.79,1.13c5.94-2.91,10.89-7.41,15.61-12,3.56-3.44,7.06-7,10.91-10.12C162.27,48.37,161.5,49.19,160.75,50Zm.15,7A18.18,18.18,0,0,1,156,64.3c-2.41,2-5.48,2.92-8.48,3.61-1.7.39-3.4.73-5.12,1,.72-.18,1.44-.39,2.14-.62a25.88,25.88,0,0,0,7.4-3.68,21.08,21.08,0,0,0,5.46-6.17c1.45-2.41,2.69-4.93,4.13-7.34a28.52,28.52,0,0,1,2.6-3.66,19,19,0,0,1,2.22-2.18,21.87,21.87,0,0,0-2.16,3.6C162.91,51.54,162,54.35,160.9,57.06ZM184.41,47a47.37,47.37,0,0,1,7.21-5.05q-1.92,1.61-3.7,3.35c-2.52,2.44-4.87,5.05-7.43,7.46-.71.67-1.44,1.32-2.18,2s-1.41,1.13-2.11,1.71l-.34.09A48.94,48.94,0,0,1,184.41,47Zm-1.36,5.56a18.82,18.82,0,0,1-3.45,2.56,13.09,13.09,0,0,1-2.66,1.1,36.51,36.51,0,0,0,3.26-2.83c1.25-1.17,2.46-2.39,3.68-3.61a90.37,90.37,0,0,1,7-6.57C188.18,46.23,186,49.78,183.05,52.55Z"/><rect class="cls-2" x="434.42" y="24.87" width="0.02" height="0.13" transform="translate(403.77 459) rotate(-89.25)"/><path class="cls-2" d="M231.21,35c1.7.55,3.41,1,5.15,1.43,2.9.69,5.83,1.26,8.77,1.71,1,.4,2.12.68,3.15,1,.84.3,1.66.64,2.48,1l.39.21a19.26,19.26,0,0,1,3.19,2.44,47.78,47.78,0,0,1,5.15,5.95,34,34,0,0,0,5.23,5.63,12.19,12.19,0,0,0,6.65,3,.15.15,0,0,0,.14-.2v-.11a41.18,41.18,0,0,0-4.44-6A46.05,46.05,0,0,0,257,42.64a47.83,47.83,0,0,0-5.47-2.92,18.36,18.36,0,0,0-2-1,153.52,153.52,0,0,0,15.46,1,53.93,53.93,0,0,1,7.1,1.59l1.44.45c1.29.62,2.57,1.24,3.84,1.87A18.1,18.1,0,0,1,279,45a14.26,14.26,0,0,1,1.54,1.85,23.36,23.36,0,0,1,2.33,4.32c2.29,5.32,3.66,11.66,8.87,15a25.78,25.78,0,0,0,8.75,3.1A82.43,82.43,0,0,0,311,70.81l0,0a.2.2,0,0,0,.33,0h0a.14.14,0,0,0,.19-.15h0l.19.09c.13.06.21-.14.09-.2l-.54-.27c-.19-.28-.4-.56-.6-.83l-.09-.16a88.62,88.62,0,0,0-6.52-10.45,35.67,35.67,0,0,0-8.91-8.55,66.51,66.51,0,0,0-11.59-5.67c-2-.82-4.09-1.62-6.16-2.37,0,0,0,0,0,0a25.2,25.2,0,0,0-5.11-2.36l-.66-.19c2.8,0,5.6-.12,8.39-.26,3.51-.17,7-.41,10.51-.69a.23.23,0,0,0,.12.06l1.58.39c2.52.62,5,1.26,7.52,1.95l3.52,1.06a.28.28,0,0,0,.17.26,21.53,21.53,0,0,0,2.5.83c.74.24,1.48.51,2.21.8a25.68,25.68,0,0,1,7.3,6.59,26.67,26.67,0,0,1,2.47,4c.78,1.54,1.49,3.11,2.34,4.6a25.84,25.84,0,0,0,5.13,6.36,27.23,27.23,0,0,0,6.87,4.49,22.77,22.77,0,0,0,7.92,2.12.19.19,0,0,0,.19-.15.2.2,0,0,0,.08-.12.1.1,0,0,0,.11-.06.17.17,0,0,0,0-.22,8.66,8.66,0,0,1-.86-1.06c-2.36-3.33-2.13-7.66-3.23-11.45a15.37,15.37,0,0,0-6.75-8.47c-3.58-2.3-7.72-3.43-11.74-4.66-4.42-1.35-8.81-2.78-13.22-4.14l-2.36-.72c-.6-.19-1.2-.38-1.79-.55l-7.09-2.17c4.12-.36,8.24-.77,12.35-1.2a.26.26,0,0,0,.18.22c1.94.73,3.9,1.4,5.87,2a141.54,141.54,0,0,0,21,5l-.05.07a.71.71,0,0,0,1,.94.83.83,0,0,0,.45-.54.28.28,0,0,0,.09-.16v-.13a.85.85,0,0,0,0-.22.86.86,0,0,0-.26-.34.7.7,0,0,0-.41-.18h-.08l-.08,0-.12,0-.07.09,0,.11h-.05c-2-.33-3.92-.69-5.87-1.11-3.18-.67-6.34-1.46-9.47-2.34l1.29.13c1.22.14,2.45.25,3.67.35,2.23.17,4.45.32,6.69.38h0v.11l0,.12,0,0a.59.59,0,0,0,.14.18.58.58,0,0,0,.31.13.7.7,0,0,0,.35,0,.56.56,0,0,0,.36-.43.55.55,0,0,0,0-.18.86.86,0,0,0-.12-.35.49.49,0,0,0-.12-.13.46.46,0,0,0-.15-.09.62.62,0,0,0-.73.22l0,.11c-2.22-.15-4.45-.31-6.67-.55-1.22-.13-2.44-.27-3.66-.43s-2.47-.4-3.71-.49a.27.27,0,0,0-.27.12c-2.83-.87-5.62-1.84-8.39-2.88,6-.63,12-1.3,18.05-1.9l.31,0a.46.46,0,0,0,.16.07c.62.13,1.23.28,1.84.44,4.85,1.36,9.22,4,13.32,6.91s8.16,6.09,12.54,8.68a41.4,41.4,0,0,0,6.92,3.3,45.58,45.58,0,0,0,7.18,1.94,115.56,115.56,0,0,0,15.08,1.56c5.11.31,10.19.69,15.25,1.48a.15.15,0,0,0,.09,0l.18,0a.28.28,0,0,0,.18,0l.07-.09s0,0,0,0a.16.16,0,0,0,.06-.28l-.32-.26a.16.16,0,0,0-.14-.12h0l-.92-.73a104.67,104.67,0,0,0-11.73-8,116.2,116.2,0,0,0-12.73-6.48,119.58,119.58,0,0,0-27.18-8.16c-3-.53-6.09-.92-9.16-1.2,6.61-.52,13.23-.87,19.85-.9l1.61.17c1.15.14,2.3.29,3.45.47.49.07,1,.16,1.47.24a9.11,9.11,0,0,0,1,.51l1.51.76L367.86,37q10,4.92,20.09,9.72a.81.81,0,0,0,0,.22,1,1,0,0,0,.38.62.88.88,0,0,0,.77.12.85.85,0,0,0,.48-.45.87.87,0,0,0,0-.67.74.74,0,0,0-.47-.43A.42.42,0,0,0,389,46a.81.81,0,0,0-1,.5c-1.63-.83-3.26-1.67-4.9-2.49-3.49-1.75-7-3.53-10.47-5.28l-5.24-2.63-2.56-1.28-.48-.24c2.93.55,5.84,1.23,8.72,2a106.64,106.64,0,0,1,11.39,3.85.59.59,0,0,0-.09.32.63.63,0,0,0,.36.51.68.68,0,0,0,.59,0,.72.72,0,0,0,.32-1.06.65.65,0,0,0-1,0q-3.07-1.32-6.24-2.4a100.4,100.4,0,0,0-12-3.31c-1.19-.24-2.38-.46-3.58-.67a2.52,2.52,0,0,0-.66-.2.14.14,0,0,0-.16.07c-.58-.1-1.16-.2-1.74-.28l-.23,0c.83,0,1.66,0,2.49,0,.32.08.66.17,1,.23a21.92,21.92,0,0,0,6.57.13A126.13,126.13,0,0,1,400,39.63c.94.46,1.95.76,2.92,1.14s2.15.88,3.2,1.36a67.29,67.29,0,0,1,6.27,3.21c.09.06.17,0,.17-.12l.93.51.77.59a29.2,29.2,0,0,1,3.57,3.55c3.9,4.55,6.81,10.05,11.65,13.74a22.76,22.76,0,0,0,8.16,3.8,46,46,0,0,0,8,1.31l.89.17a.06.06,0,0,0,.08,0l.05.05a.18.18,0,0,0,.29-.09c.13,0,.16-.19,0-.21h0v0a36.85,36.85,0,0,0-5.57-9,40.68,40.68,0,0,0-15.24-11.33c-3.34-1.42-6.81-2.48-10.27-3.57-1.73-.54-3.46-1.1-5.16-1.71l-.33-.13-1.85-.8a113.64,113.64,0,0,0-19.86-6.28l2.6.39c4.88.75,9.75,1.52,14.64,2.23a47.06,47.06,0,0,0,13.19.52,20.81,20.81,0,0,0,6.21-1.81,21.87,21.87,0,0,0,4.92-3.28,42.46,42.46,0,0,0,7.46-9h0a.2.2,0,0,0,.11-.2l.1-.16a.21.21,0,0,0-.06-.3.12.12,0,0,0-.18-.08l-.82.56a.09.09,0,0,0-.15,0l-.12.15c-.26.07-.52.14-.78.19a27.43,27.43,0,0,1-7.41.1c-2.57-.18-5.13-.44-7.69-.71a102,102,0,0,0-15.43-.77,42,42,0,0,0-7.49,1,65,65,0,0,0-7.09,2.15c-4.68,1.67-9.25,3.66-14,5A39.59,39.59,0,0,1,369.75,33c-1.2-.09-2.4-.17-3.61-.23a243.86,243.86,0,0,0-33.21.94c2.57-.35,5.13-.76,7.68-1.27a64.73,64.73,0,0,0,13.48-4.09,57.42,57.42,0,0,0,11.65-7A93.36,93.36,0,0,0,376,12.08a99.92,99.92,0,0,0,9.29-10.95l.22,0a.08.08,0,0,0,0-.15h-.1a.14.14,0,0,0,0-.11.18.18,0,0,0-.24-.28c-.23.14-.47.29-.69.45s-.51,0-.76.06a40.81,40.81,0,0,0-13.74,4.28,81.47,81.47,0,0,0-12.62,8c-4.2,3.18-8.25,6.56-12.47,9.72a78.37,78.37,0,0,1-12.64,8,45.66,45.66,0,0,1-6.76,2.67l-.62.18h-.15a.3.3,0,0,0-.18.08,39,39,0,0,1-4.27.89c-9.16,1-18.31,2-27.49,2.81,1.14-.5,2.26-1,3.38-1.59A64.92,64.92,0,0,0,308,34.87a25.17,25.17,0,0,0,8.59-3.58,19.23,19.23,0,0,0,6.08-7,49.45,49.45,0,0,0,3.44-9.2c.49-1.68,1-3.35,1.53-5s1.27-3.26,2-4.87h0l.09-.1c.13-.16-.11-.33-.26-.19l-.1.09h0c.05-.09-.09-.17-.15-.09l-.47.69a73.46,73.46,0,0,1-7.15,6.16c-5,3.7-10.3,6.84-15.46,10.23s-10.5,7.44-11.33,13.86V36c-1.42.67-2.86,1.31-4.32,1.9l-.08,0c-4.78.38-9.57.68-14.37.84q-3.54.11-7.08.11c.65-.12,1.29-.24,1.93-.38A67.4,67.4,0,0,0,290.32,31a.81.81,0,0,0,.57.29.71.71,0,0,0,.35-.07.62.62,0,0,0,.26-.22.71.71,0,0,0,.14-.58.67.67,0,0,0-.19-.35.75.75,0,0,0-.25-.13.79.79,0,0,0-.23-.28.35.35,0,0,0-.41,0,1,1,0,0,0-.37,1.16q-2.29,1.26-4.67,2.34-3,1.35-6.11,2.41a48.36,48.36,0,0,0,7.09-6.4l.08.09,0,0a.56.56,0,0,0,.33.15.67.67,0,0,0,.47-.14.81.81,0,0,0,.32-.78.67.67,0,0,0-.24-.43.62.62,0,0,0-.44-.13.51.51,0,0,0-.39.22.54.54,0,0,0-.09.24l0,0h0l0,.07,0,0,0,0a.36.36,0,0,0-.06.2.88.88,0,0,0,0,.17,57.4,57.4,0,0,1-8.41,7,.22.22,0,0,0-.11.16c-.82.26-1.65.5-2.48.72q-2.65.71-5.35,1.19c-.89.16-1.77.31-2.66.43l-1.4.19a5.21,5.21,0,0,0-1.1.21H264a26.42,26.42,0,0,0-5.41-.22c-1.33-.08-2.66-.17-4-.28a60.08,60.08,0,0,0,7.46-2,34.41,34.41,0,0,0,10.22-.86,15.35,15.35,0,0,0,7.09-4.45,26.11,26.11,0,0,0,4.38-6.88c1.26-2.79,2.14-5.73,3.12-8.63.51-1.5,1-3,1.65-4.46s1.22-2.58,1.85-3.87l.31-.48c.07-.11-.07-.24-.16-.13l-.05.07a.1.1,0,0,0-.1,0l-.41.57c.07-.13.13-.26.19-.39a.13.13,0,0,0,0-.16l0-.07a.08.08,0,0,0-.14-.06l-.06.11-.06.06a25.29,25.29,0,0,1-2.48,3.6,26.69,26.69,0,0,1-3.11,3.09C280,17,275,19.47,270.79,23.11a35.18,35.18,0,0,0-9.19,12.48v.06h0A63,63,0,0,1,252,38.05c-2.95-.31-5.87-.73-8.78-1.24l-1-.17c-3.62-.65-7.23-1.42-10.82-2.27C231,34.3,230.89,34.85,231.21,35Zm33.17.42a40.4,40.4,0,0,0,8-4.26,36.56,36.56,0,0,0,7.43-6.95,59.88,59.88,0,0,0,5.66-8.45c.85-1.49,1.65-3,2.42-4.54-.14.34-.27.68-.41,1s-.36.93-.53,1.4l-.49,1.24c-.57,1.39-1.18,2.77-1.83,4.13a72.15,72.15,0,0,1-3.74,7,25.79,25.79,0,0,1-4.41,5.52,14.2,14.2,0,0,1-6.36,3.33A26.36,26.36,0,0,1,264.38,35.37Zm20.69-22.06c-.14.15-.27.31-.41.47a86,86,0,0,1-12.07,11.37c-2,1.54-4,3-5.83,4.75a25,25,0,0,0-2.5,2.65c-.35.44-.7.9-1,1.38a34.52,34.52,0,0,1,9.08-11.22c2.22-1.8,4.62-3.35,7-5A53.06,53.06,0,0,0,285.07,13.31Zm2.74-2.75c-1.07,2-2.15,4-3.32,6a55.27,55.27,0,0,1-5.82,8.11,36.33,36.33,0,0,1-7.61,6.55,42.17,42.17,0,0,1-7.88,3.9A18.94,18.94,0,0,1,265,32.3a25.77,25.77,0,0,1,2.93-3c1.89-1.66,3.92-3.14,5.87-4.72C276,22.86,278.05,21,280,19.09s3.79-3.86,5.57-5.9C286.34,12.34,287.09,11.46,287.81,10.56ZM278.39,31a14.51,14.51,0,0,1-5.21,3.38,15.2,15.2,0,0,0,4.15-3,29.63,29.63,0,0,0,4.14-5.79c1.37-2.37,2.64-4.78,3.79-7.26l.21-.46C283.81,22.51,282,27.35,278.39,31Zm19.45,4.3c1.07-.57,2.13-1.15,3.18-1.76a79.85,79.85,0,0,0,16.05-12.4,77.78,77.78,0,0,0,6.67-7.61q1.54-2,2.95-4.12c.4-.61.81-1.22,1.2-1.85-1.07,2.52-2.15,5-3.42,7.47a40.67,40.67,0,0,1-4.6,7.1A34,34,0,0,1,313.48,28c-2.39,1.73-4.91,3.28-7.45,4.77a18,18,0,0,1-5.67,2.41c-.75.05-1.51.09-2.25.12Zm30.85-29c-.22.45-.43.91-.63,1.37.14-.34.27-.69.4-1,.05-.09.11-.17.15-.25ZM302.81,35a29.13,29.13,0,0,0,4.05-2.18c2.57-1.59,5.16-3.16,7.57-5a32.59,32.59,0,0,0,6.23-6.13,52.86,52.86,0,0,0,6.76-12.4c-.13.36-.25.71-.38,1.06-.63,1.81-1.17,3.65-1.73,5.49a42.94,42.94,0,0,1-3.55,8.82,18.25,18.25,0,0,1-6.42,6.64A29.42,29.42,0,0,1,302.81,35Zm-7.14.42a15.37,15.37,0,0,1,4.68-8,49.75,49.75,0,0,1,7.57-5.66c2.56-1.67,5.14-3.3,7.69-5s5.05-3.42,7.43-5.31a53.89,53.89,0,0,0,4.35-3.79c-.44.68-.89,1.35-1.36,2q-1.63,2.32-3.45,4.52A81.86,81.86,0,0,1,308,28a78.27,78.27,0,0,1-12,7.33Zm148.61,32.8a27.85,27.85,0,0,1-6.39-2.83c-4.78-2.87-8.78-6.86-12.79-10.69-2-1.95-4.09-3.88-6.29-5.65-.63-.5-1.27-1-1.93-1.48l1.09.65c2.46,1.52,4.82,3.19,7.12,4.94S429.71,57,431.94,59c4,3.62,8.12,7.28,13.16,9.28Zm1.78-.35c-.87-.92-1.75-1.84-2.65-2.73a109.17,109.17,0,0,0-28.1-19.94l1.33.42a88.23,88.23,0,0,1,10.12,3.61A39.61,39.61,0,0,1,435,54.11,41.25,41.25,0,0,1,446.06,67.82Zm.15.65h0a31.41,31.41,0,0,1-8.23-4.65c-4.79-3.63-8.9-8.08-13.62-11.8a77.3,77.3,0,0,0-7.15-5l-1.39-.83A120.23,120.23,0,0,1,446.21,68.47Zm-29-20.18-.34-.35c.94.68,1.86,1.41,2.76,2.16,4.33,3.62,8.14,7.82,12.5,11.41A36,36,0,0,0,443,68l-1.23-.19a40.64,40.64,0,0,1-5.11-1.17,21.29,21.29,0,0,1-8-4.34,41.24,41.24,0,0,1-5.92-6.93A76.6,76.6,0,0,0,417.23,48.29Zm-8-5.14-.17-.09.18.08Zm26.25-17.69c-.31.19-.62.38-.94.56l-.87.24A55,55,0,0,1,421.56,28c-4.11.17-8.22.07-12.34.05a93.4,93.4,0,0,0-12.29.57,93.78,93.78,0,0,0-12.05,2.74,60,60,0,0,1-6.05,1.36c-.87.14-1.74.23-2.61.3l-.82-.13q1.43-.36,2.82-.78c4.8-1.48,9.39-3.53,14.13-5.16a53.09,53.09,0,0,1,7.21-2,46.65,46.65,0,0,1,7.73-.76,138.52,138.52,0,0,1,15.63,1c2.58.25,5.17.48,7.77.57A21.37,21.37,0,0,0,435.48,25.46Zm0,.43a26.64,26.64,0,0,1-8.47,6.21,36.84,36.84,0,0,1-11,3.13,65.23,65.23,0,0,1-13.4.14c-4.52-.35-9-1-13.5-1.49-1.06-.11-2.12-.22-3.18-.31q6.63-.2,13.27-.53c4.75-.24,9.52-.49,14.27-.9a64.41,64.41,0,0,0,13.28-2.34,37.06,37.06,0,0,0,5.81-2.28A27.78,27.78,0,0,0,435.52,25.89ZM379.4,33c2.3-.43,4.57-1,6.8-1.66,2-.56,4.06-1.13,6.11-1.61a52.11,52.11,0,0,1,6.08-1,109.87,109.87,0,0,1,12.44-.41c4.15,0,8.3.11,12.44-.15a60.15,60.15,0,0,0,6.13-.68,40.16,40.16,0,0,0,4.16-.92,37.69,37.69,0,0,1-8.58,3.3,74.21,74.21,0,0,1-13.52,2c-4.72.34-9.46.52-14.2.71s-9.48.33-14.23.43Zm3.23.94c2.83.14,5.65.41,8.46.69,4.55.46,9.11,1,13.69,1.23a59.5,59.5,0,0,0,13.4-.68,34.63,34.63,0,0,0,10.41-3.57,27,27,0,0,0,4.51-3,20.93,20.93,0,0,0,3.2-3.25l.27-.19.31-.09-.19.26a40,40,0,0,1-8,8.84,19.92,19.92,0,0,1-5.33,2.92,23.38,23.38,0,0,1-6.3,1.23,60.48,60.48,0,0,1-13.08-1L389.26,35ZM327.89,35l.88-.08c.91.05,1.81.17,2.71.31,2.13.53,4.25,1.09,6.37,1.66,1.29.46,2.56,1,3.82,1.5,4.48,1.93,8.74,4.3,13.14,6.4,4.55,2.17,9.19,4.12,13.9,5.92s9.48,3.4,14.32,4.8c4,1.15,8,2.18,12.05,3-4.92-.58-9.85-1.16-14.73-2.06a89.17,89.17,0,0,1-14.8-4,137,137,0,0,1-13.27-5.81c-4.36-2.15-8.67-4.42-13-6.56q-3.15-1.55-6.37-3c-1-.49-2.06-.94-3.13-1.33ZM397,59.15l-.54-.11.4,0Zm-8.53-2.6c-2.46-.64-4.91-1.32-7.34-2.06-4.84-1.46-9.64-3.1-14.33-5s-9.26-4-13.77-6.22c-3.09-1.54-6.13-3.2-9.25-4.7q6.8,2,13.52,4.25c4.61,1.55,9.18,3.24,13.71,5s9.08,3.64,13.55,5.61c3.36,1.48,6.69,3,10,4.58C392.53,57.54,390.49,57.07,388.46,56.55ZM384,1.29l-.29.21a120.54,120.54,0,0,0-10.3,8.86A96,96,0,0,1,363,19.05a70.42,70.42,0,0,1-11.66,6.43,118.62,118.62,0,0,1-12.55,4.63c-2.63.82-5.28,1.58-7.94,2.31,1-.44,2-.92,3-1.43a86.48,86.48,0,0,0,12.52-8.25c4.17-3.21,8.21-6.6,12.43-9.75A74.08,74.08,0,0,1,371.5,5.06,42.63,42.63,0,0,1,384,1.29ZM329.4,33.41c3.76-1.06,7.52-2.15,11.24-3.37a109.49,109.49,0,0,0,12.5-4.85,67.78,67.78,0,0,0,11.42-6.65A121.63,121.63,0,0,0,375,9.69c1.68-1.54,3.36-3.08,5.08-4.57,1.39-1.21,2.85-2.33,4.3-3.47l-.41.51a123.8,123.8,0,0,1-9.61,10.74A88.74,88.74,0,0,1,364,21.75a54.78,54.78,0,0,1-11.81,6.61,69.89,69.89,0,0,1-13.53,3.71C335.58,32.62,332.49,33,329.4,33.41Zm67.43,25.15-.11,0c-.14-.06-.27-.14-.4-.2-4.4-2.13-8.87-4.11-13.36-6s-9-3.75-13.6-5.48-9.18-3.37-13.81-4.94-9.29-3-14-4.41l-.73-.22-.92-.39A42.1,42.1,0,0,0,334.33,35a116.47,116.47,0,0,1,12.35,1.59A117.73,117.73,0,0,1,360.45,40a120.78,120.78,0,0,1,25.86,11.55C389.93,53.69,393.44,56.06,396.83,58.56ZM339.22,40.77l-.4-.26,1.86.9c4.38,2.12,8.72,4.32,13.11,6.41a129.08,129.08,0,0,0,13.48,5.63,96,96,0,0,0,14.85,3.71c1.68.29,3.36.55,5,.79-2.17-.17-4.35-.29-6.52-.43a94.56,94.56,0,0,1-15-1.84,42.83,42.83,0,0,1-7.25-2.33,45.93,45.93,0,0,1-6.73-3.71C347.39,46.85,343.45,43.6,339.22,40.77Zm-7.46,27.35a31.61,31.61,0,0,1-5.16-7.28,56.84,56.84,0,0,0-4.78-7.58,30.82,30.82,0,0,0-2.41-2.69c.44.35.88.72,1.31,1.1a40.47,40.47,0,0,1,6.14,6.93c2,2.79,3.34,6,5.68,8.52a17.48,17.48,0,0,0,7.26,4.68l-.56,0c-1-.18-1.95-.38-2.9-.65a6.5,6.5,0,0,1-.61-.25A14,14,0,0,1,331.76,68.12ZM316.13,47.5l.11.06a40.38,40.38,0,0,1,9.31,7.12,95.51,95.51,0,0,1,7.19,9,54,54,0,0,0,6.74,7.74,17.91,17.91,0,0,1-7.79-5.77,42.26,42.26,0,0,1-2.85-4.51,43.3,43.3,0,0,0-2.66-4,41.75,41.75,0,0,0-6.28-6.67C318.69,49.39,317.43,48.41,316.13,47.5ZM339.46,71l0,0a68.52,68.52,0,0,1-7.34-9,65,65,0,0,0-7.36-8.85,43.18,43.18,0,0,0-9.58-6.78c-.95-.5-1.92-1-2.9-1.42l-.3-.16.85.24c2.18.63,4.35,1.32,6.52,2,3.93,1.2,8,2.52,11.31,5a16.08,16.08,0,0,1,3.83,3.89,14.81,14.81,0,0,1,2.12,5.52C337.19,64.57,337.41,68.29,339.46,71Zm-28-25.4q.84.4,1.65.84,1.65.9,3.21,1.92l.54.42a31.71,31.71,0,0,1,5.65,6c1.84,2.53,3.22,5.35,4.82,8a23.74,23.74,0,0,0,5.39,6.64,13.51,13.51,0,0,0,1.48,1c-.93-.36-1.86-.76-2.75-1.21a26.17,26.17,0,0,1-11.62-11.84c-.78-1.53-1.5-3.09-2.34-4.59a26.21,26.21,0,0,0-2.46-3.65A24.66,24.66,0,0,0,311.48,45.56Zm-2.75,21.38-1.08-1.3c-1.33-1.59-2.72-3.14-4.15-4.64a80.52,80.52,0,0,0-16.36-12.79c-2.32-1.43-4.72-2.74-7.15-4l-.38-.26-.22-.17c1.81.69,3.6,1.41,5.38,2.14a55.37,55.37,0,0,1,11.34,5.86,37.38,37.38,0,0,1,8.52,8.69C306.12,62.56,307.44,64.74,308.73,66.94Zm1.7,2.9a49.57,49.57,0,0,1-8.47-5.9c-5.62-4.76-10.43-10.37-16-15.19-.79-.68-1.6-1.34-2.43-2a85.86,85.86,0,0,1,13,8.18,60.44,60.44,0,0,1,7.77,7.32c1.22,1.36,2.38,2.77,3.54,4.2.8,1,1.59,2,2.39,3C310.26,69.56,310.34,69.7,310.43,69.84Zm-4-.24a38.64,38.64,0,0,1-5.07-1.46,24,24,0,0,1-7.09-4A23.94,23.94,0,0,1,289,57.52c-1.35-2.39-2.53-4.87-4-7.2a23.58,23.58,0,0,0-1.4-2l.29.29c2.15,2.2,4.13,4.56,6.13,6.89s4.13,4.72,6.38,6.91a36.61,36.61,0,0,0,6.93,5.39,24.67,24.67,0,0,0,3.84,1.85c.29.1.58.21.87.3C307.51,69.82,307,69.72,306.4,69.6ZM284,48.08c3.86,3.11,7.36,6.67,10.92,10.12,4.72,4.57,9.66,9.07,15.6,12a28.38,28.38,0,0,1-3.79-1.13,26.64,26.64,0,0,1-4.35-2.23c-5.22-3.31-9.14-8.07-13.07-12.75-1-1.18-2-2.36-3-3.51C285.55,49.72,284.77,48.9,284,48.08Zm-1.15,1.34a22,22,0,0,0-2.17-3.61A19,19,0,0,1,282.9,48a27,27,0,0,1,2.6,3.67c1.45,2.4,2.69,4.93,4.14,7.33a20.91,20.91,0,0,0,5.45,6.17,26.17,26.17,0,0,0,7.4,3.69c.71.23,1.43.43,2.14.62-1.71-.31-3.42-.64-5.11-1A20.33,20.33,0,0,1,291,64.83a18.37,18.37,0,0,1-4.88-7.25C285,54.88,284.14,52.06,282.85,49.42ZM271.19,57l-.35-.09c-.69-.57-1.41-1.12-2.1-1.7s-1.47-1.29-2.19-2c-2.55-2.41-4.9-5-7.42-7.46-1.19-1.15-2.43-2.28-3.7-3.35a48.09,48.09,0,0,1,7.21,5A48.94,48.94,0,0,1,271.19,57Zm-15-13.3a90.5,90.5,0,0,1,7,6.58c1.22,1.21,2.43,2.43,3.68,3.61a40.06,40.06,0,0,0,3.26,2.83,13.81,13.81,0,0,1-2.67-1.11A17.88,17.88,0,0,1,264,53.07C261,50.3,258.87,46.76,256.18,43.72Z"/></g></g></g></svg>