<svg width="76" height="78" viewBox="0 0 76 78" fill="none" xmlns="http://www.w3.org/2000/svg">
<g clip-path="url(#clip0_285_363)">
<path d="M35.031 62.0978C34.2116 62.0978 33.5466 62.7716 33.5466 63.6017C33.5466 64.4319 34.2116 65.1057 35.031 65.1057C35.8504 65.1057 36.5154 64.4319 36.5154 63.6017C36.5154 62.7716 35.8504 62.0978 35.031 62.0978Z" fill="#96964C"/>
<path d="M70.0618 34.1255H61.4332L69.7272 24.1943C71.3419 24.927 73.3373 24.6437 74.6946 23.2647C76.4351 21.5014 76.4351 18.648 74.6946 16.8849L66.2963 8.3759C64.5718 6.63317 61.7635 6.59588 60.0007 8.3774C58.6603 9.73543 58.3558 11.7507 59.0853 13.4084L34.9193 34.1255H5.9375C2.66356 34.1255 0 36.8241 0 40.1411C0 42.6597 1.54731 44.9038 3.8616 45.7639C3.95066 56.959 11.1922 66.7446 21.6717 69.9971V72.6252C21.6717 75.1129 23.6694 77.1369 26.1249 77.1369H49.8746C52.33 77.1369 54.3277 75.1129 54.3277 72.6252V69.9971C64.8072 66.7442 72.0487 56.9588 72.1378 45.7638C74.4521 44.904 75.9994 42.6597 75.9994 40.1411C75.9993 36.8241 73.3357 34.1255 70.0618 34.1255ZM62.0985 10.5056C62.686 9.91199 63.6203 9.91996 64.1985 10.5041L72.5953 19.0117C73.1677 19.5916 73.1837 20.5416 72.5938 21.1393C72.0168 21.7256 71.0751 21.7255 70.4983 21.1393C70.498 21.139 70.4979 21.1388 70.4976 21.1385C70.4973 21.1382 70.4971 21.138 70.4968 21.1377L62.0999 12.6303C62.0997 12.6302 62.0996 12.6302 62.0996 12.63C61.5214 12.0438 61.5216 11.0902 62.0985 10.5056ZM60.9665 15.7356L67.4322 22.2863L57.5443 34.1255H39.515L60.9665 15.7356ZM51.3589 72.6253C51.3589 73.4546 50.693 74.1291 49.8746 74.1291H26.1247C25.3062 74.1291 24.6403 73.4544 24.6403 72.6252V70.7209C26.1051 70.985 27.5959 71.1214 29.0935 71.1214H46.9058C48.4034 71.1214 49.8941 70.9852 51.3589 70.7209V72.6253ZM52.4735 67.403C50.6644 67.8745 48.7911 68.1136 46.9058 68.1136H29.0935C27.2081 68.1136 25.3349 67.8745 23.5256 67.403C13.8865 64.8916 7.09739 56.1905 6.83599 46.1415H69.1636C68.9019 56.1905 62.1128 64.8916 52.4735 67.403ZM71.0622 42.9605C71.0498 42.9648 71.0373 42.9694 71.025 42.974C70.7064 43.0951 70.4094 43.1491 70.0618 43.1491H5.9375C4.37668 43.1491 2.96875 41.8673 2.96875 40.1413C2.96875 38.4828 4.30053 37.1334 5.9375 37.1334H70.0619C71.6989 37.1333 73.0307 38.4827 73.0307 40.1411C73.0305 41.4161 72.2395 42.5492 71.0622 42.9605Z" fill="#96964C"/>
<path d="M29.0935 62.098C22.1928 62.098 16.0062 57.6655 13.6986 51.0685C13.4246 50.2856 12.5758 49.8761 11.8036 50.1534C11.0309 50.4305 10.6265 51.2902 10.9004 52.0731C13.627 59.8683 20.9382 65.1058 29.0935 65.1058C29.9131 65.1058 30.5779 64.4325 30.5779 63.6019C30.5779 62.7713 29.9131 62.098 29.0935 62.098Z" fill="#96964C"/>
<path d="M36.0805 24.6402L33.5465 22.073V16.6805C33.5465 7.55869 26.2217 0.137512 17.2185 0.137512H11.281C10.4613 0.137512 9.79663 0.810811 9.79663 1.64142V7.65704C9.79663 16.7787 17.1214 24.1999 26.1246 24.1999H31.4471L33.9811 26.7672C34.5609 27.3545 35.5005 27.3545 36.0805 26.7672C36.6601 26.1799 36.6601 25.2276 36.0805 24.6402ZM30.5777 19.0651L18.2681 6.59348C17.6883 6.00621 16.7487 6.00621 16.1688 6.59348C15.5891 7.18076 15.5891 8.13303 16.1688 8.72046L28.4784 21.1921H26.1246C18.7582 21.1921 12.7654 15.1202 12.7654 7.65704V3.14532H17.2185C24.5849 3.14532 30.5777 9.2172 30.5777 16.6803V19.0651Z" fill="#96964C"/>
<path d="M40.9683 0.137512C38.5128 0.137512 36.5151 2.16147 36.5151 4.64923C36.5151 7.13699 38.5128 9.16095 40.9683 9.16095C43.4237 9.16095 45.4214 7.13699 45.4214 4.64923C45.4214 2.16147 43.4237 0.137512 40.9683 0.137512ZM40.9683 6.15314C40.1498 6.15314 39.4839 5.47848 39.4839 4.64923C39.4839 3.81998 40.1498 3.14532 40.9683 3.14532C41.7867 3.14532 42.4526 3.81998 42.4526 4.64923C42.4526 5.47848 41.7867 6.15314 40.9683 6.15314Z" fill="#96964C"/>
</g>
<defs>
<clipPath id="clip0_285_363">
<rect width="76" height="77" fill="white" transform="translate(0 0.137207)"/>
</clipPath>
</defs>
</svg>
