<svg width="135" height="137" viewBox="0 0 135 137" fill="none" xmlns="http://www.w3.org/2000/svg">
<g clip-path="url(#clip0_285_397)">
<path d="M99.3368 26.6147L110.254 31.3359C112.556 32.3316 114.713 33.6168 116.665 35.1555C117.028 35.4415 117.458 35.5799 117.885 35.5799C118.474 35.5799 119.057 35.3168 119.448 34.8135C120.123 33.9449 119.971 32.6895 119.109 32.0099C116.888 30.259 114.434 28.7973 111.818 27.6658L100.901 22.9442C98.8663 22.0646 97.0215 20.8383 95.418 19.2991C91.7579 15.7858 89.659 10.8502 89.659 5.75773V2.93121C89.659 1.82793 88.7716 0.93396 87.6764 0.93396C86.5812 0.93396 85.6938 1.82793 85.6938 2.93121V5.75746C85.6938 11.9375 88.2413 17.9271 92.6825 22.1906C94.6289 24.0587 96.8676 25.5471 99.3368 26.6147Z" fill="#96964C"/>
<path d="M134.774 114.742L132.469 110.278C132.309 109.966 132.224 109.617 132.224 109.266V86.9427C132.224 83.7628 130.902 80.7496 128.59 78.6059C128.591 78.5811 128.593 78.5569 128.593 78.5318L128.594 71.9119C133.59 61.0995 132.412 48.4159 125.479 38.6986C124.84 37.8022 123.6 37.5988 122.712 38.2424C121.823 38.8861 121.62 40.1342 122.259 41.0298C128.433 49.6832 129.416 61.0117 124.825 70.5947C124.696 70.8656 124.628 71.1622 124.628 71.4629V75.1823L106.067 59.2117V56.8901C106.067 55.7868 105.18 54.8929 104.085 54.8929C102.989 54.8929 102.102 55.7868 102.102 56.8901V84.8298C102.102 87.56 101.614 90.2829 100.68 92.8426L100.33 92.2562C99.2987 90.5236 97.6521 89.3271 95.6947 88.8869C93.7375 88.4481 91.7422 88.8246 90.0771 89.9505C87.1858 91.9052 86.0826 95.664 87.4538 98.8887L92.9143 111.726C94.3256 115.044 96.4187 117.975 99.0233 120.358C99.023 120.403 99.0222 120.448 99.0251 120.493L99.9091 134.556C99.9757 135.614 100.848 136.427 101.886 136.427C101.928 136.427 101.97 136.426 102.013 136.423C103.106 136.354 103.936 135.405 103.867 134.304L103.183 123.437C103.847 123.827 104.53 124.187 105.232 124.516L107.466 125.563L115.221 136.124C115.61 136.654 116.21 136.934 116.817 136.934C117.226 136.934 117.64 136.806 117.994 136.542C118.874 135.886 119.06 134.636 118.409 133.749L110.353 122.778C110.156 122.51 109.895 122.296 109.595 122.155L106.903 120.894C102.252 118.717 98.5789 114.902 96.5588 110.153L91.0983 97.3156C90.4773 95.8552 90.977 94.1525 92.2865 93.2673C93.0409 92.7574 93.9447 92.5864 94.8308 92.7856C95.7174 92.9848 96.4631 93.5267 96.9302 94.3112L100.921 101.011C101.751 102.404 103.269 103.27 104.882 103.27H107.585C109.861 103.27 111.778 101.628 112.144 99.3643L112.549 96.856C112.725 95.7671 111.992 94.741 110.911 94.5639C109.83 94.3871 108.812 95.1256 108.636 96.2142L108.231 98.7222C108.179 99.0428 107.907 99.2756 107.585 99.2756H104.882C104.654 99.2756 104.438 99.1528 104.321 98.9558L103.184 97.0472C105.07 93.2705 106.067 89.0574 106.067 84.8293V76.881L110.626 82.3682C110.758 82.5269 110.815 82.7351 110.782 82.9396L110.012 87.703C109.836 88.7916 110.569 89.8179 111.65 89.995C111.758 90.0126 111.865 90.0214 111.971 90.0214C112.926 90.0214 113.768 89.325 113.926 88.3447L114.696 83.5812C114.914 82.2302 114.539 80.8535 113.667 79.8042L106.067 70.6579V64.4648L125.704 81.361C127.328 82.7575 128.259 84.792 128.259 86.9424V109.266C128.259 110.255 128.498 111.242 128.951 112.12L131.256 116.585C131.609 117.269 132.3 117.661 133.016 117.661C133.324 117.661 133.637 117.589 133.929 117.435C134.901 116.927 135.279 115.721 134.774 114.742Z" fill="#96964C"/>
<path d="M81.9861 82.3064C78.3882 85.5645 76.3247 90.2267 76.3247 95.097C76.3247 97.8849 77.0027 100.654 78.2859 103.106C78.6411 103.785 79.3292 104.172 80.0416 104.172C80.3533 104.172 80.6697 104.098 80.9644 103.941C81.933 103.426 82.3041 102.218 81.7937 101.243C80.8098 99.3632 80.2901 97.2381 80.2901 95.097C80.2901 91.3582 81.8746 87.7788 84.637 85.2767C85.4514 84.5393 85.518 83.2765 84.7858 82.4563C84.0546 81.6363 82.8008 81.5687 81.9861 82.3064Z" fill="#96964C"/>
<path d="M89.8678 78.27C88.7962 78.4972 88.1105 79.556 88.3354 80.6356C88.5319 81.5764 89.3555 82.2225 90.2736 82.2225C90.409 82.2225 90.5459 82.2084 90.6836 82.1793C92.3413 81.8283 94.1037 81.806 95.7748 82.1144C96.8499 82.3125 97.8848 81.5953 98.0823 80.5102C98.2797 79.4253 97.5668 78.3845 96.4899 78.1856C94.3146 77.7838 92.0275 77.8125 89.8678 78.27Z" fill="#96964C"/>
<path d="M47.3234 0.93396C46.2282 0.93396 45.3408 1.82793 45.3408 2.93121V5.75746C45.3408 10.8499 43.242 15.7853 39.5819 19.2989C37.9789 20.8373 36.1341 22.0639 34.0986 22.944L23.1815 27.6652C14.8896 31.2512 8.58216 37.9154 5.42168 46.4304C2.31513 54.8005 2.66776 63.831 6.40583 71.9121V78.5318C6.40583 78.5555 6.40847 78.5787 6.40927 78.6021C4.09838 80.7073 2.77588 83.6893 2.77588 86.8386V90.3798C2.77588 91.4831 3.66328 92.3771 4.75845 92.3771C5.85362 92.3771 6.74102 91.4831 6.74102 90.3798V86.8386C6.74102 84.7542 7.64322 82.7823 9.21659 81.4287L28.932 64.4648V70.6579L21.3327 79.804C20.4607 80.8532 20.0858 82.23 20.3039 83.5814L22.8548 99.3645C23.2207 101.628 25.1382 103.27 27.4142 103.27H30.1174C31.7309 103.27 33.2488 102.405 34.0783 101.011L38.0688 94.3118C38.5361 93.527 39.2816 92.985 40.1682 92.7856C41.0548 92.5864 41.9581 92.7576 42.7127 93.2676C44.022 94.1528 44.5216 95.8555 43.9007 97.3156L38.4402 110.153C36.4201 114.903 32.7465 118.717 28.0957 120.895L25.4041 122.155C25.1036 122.296 24.8429 122.51 24.646 122.778L16.5902 133.749C15.9388 134.636 16.1247 135.886 17.0049 136.542C17.3594 136.807 17.7726 136.934 18.1823 136.934C18.7895 136.934 19.3888 136.654 19.7776 136.124L27.5331 125.563L29.7666 124.517C30.4689 124.188 31.152 123.827 31.8155 123.438L31.1324 134.304C31.0632 135.405 31.8932 136.354 32.986 136.424C33.0286 136.426 33.0709 136.428 33.1129 136.428C34.1507 136.428 35.0233 135.614 35.0899 134.557L35.9739 120.493C35.9768 120.448 35.9757 120.403 35.9755 120.358C38.5798 117.975 40.6731 115.045 42.0844 111.727L47.5449 98.8887C48.9163 95.6643 47.8132 91.9052 44.9219 89.9508C43.2565 88.8249 41.261 88.4473 39.3038 88.8875C37.3463 89.3274 35.6997 90.5242 34.6683 92.257L34.3191 92.8431C33.3849 90.2829 32.8967 87.5602 32.8967 84.8298V56.8901C32.8967 55.7868 32.0093 54.8929 30.9141 54.8929C29.8189 54.8929 28.9315 55.7868 28.9315 56.8901V59.2117L10.3702 75.1826V71.4629C10.3702 71.1622 10.3028 70.8656 10.1732 70.5947C6.72569 63.3988 6.35693 55.3139 9.1349 47.8298C11.9129 40.3457 17.4575 34.4878 24.7459 31.3359L35.6627 26.6147C38.1328 25.5465 40.3715 24.0582 42.3173 22.1909C46.7588 17.9271 49.306 11.9378 49.306 5.75773V2.93121C49.306 1.82793 48.4186 0.93396 47.3234 0.93396ZM30.6788 98.9563C30.5615 99.1536 30.3463 99.2761 30.1179 99.2761H27.4147C27.0922 99.2761 26.8207 99.0434 26.7689 98.723L24.218 82.9402C24.185 82.7354 24.2418 82.5272 24.3737 82.3684L28.9326 76.8816V84.8301C28.9326 89.0582 29.9299 93.2713 31.8158 97.048L30.6788 98.9563Z" fill="#96964C"/>
<path d="M4.75882 96.8948C3.66365 96.8948 2.77625 97.7888 2.77625 98.8921V109.321C2.77625 109.636 2.70012 109.95 2.55605 110.229L0.226403 114.742C-0.278756 115.721 0.0995182 116.927 1.07071 117.436C1.36281 117.589 1.67553 117.661 1.98375 117.661C2.69959 117.661 3.39111 117.269 3.74427 116.585L6.07392 112.071C6.51035 111.225 6.74112 110.274 6.74112 109.321V98.8921C6.74139 97.7888 5.85399 96.8948 4.75882 96.8948Z" fill="#96964C"/>
<path d="M53.0139 82.3064C52.1997 81.5685 50.9459 81.6361 50.2142 82.4563C49.482 83.2765 49.5486 84.5393 50.363 85.2767C53.1254 87.7788 54.7099 91.3582 54.7099 95.097C54.7099 97.2381 54.1899 99.3635 53.2063 101.243C52.6956 102.218 53.067 103.426 54.0355 103.941C54.3305 104.098 54.6467 104.172 54.9584 104.172C55.6705 104.172 56.3589 103.784 56.7141 103.106C57.9972 100.654 58.6753 97.885 58.6753 95.097C58.6753 90.2269 56.6118 85.5648 53.0139 82.3064Z" fill="#96964C"/>
<path d="M38.5105 78.1854C37.4336 78.3843 36.7206 79.425 36.9181 80.5099C37.1156 81.5948 38.1502 82.3141 39.2256 82.1141C40.897 81.8057 42.6588 81.8284 44.3168 82.1791C44.4545 82.2081 44.5914 82.2222 44.7268 82.2222C45.6446 82.2222 46.4685 81.5762 46.6649 80.6353C46.8902 79.5557 46.2042 78.4969 45.1326 78.2698C42.9726 77.8125 40.6855 77.7838 38.5105 78.1854Z" fill="#96964C"/>
<path d="M67.7106 0.93396C66.6154 0.93396 65.728 1.82793 65.728 2.93121V7.6016C65.728 8.70488 66.6154 9.59885 67.7106 9.59885C68.8058 9.59885 69.6932 8.70488 69.6932 7.6016V2.93121C69.6932 1.82793 68.8058 0.93396 67.7106 0.93396Z" fill="#96964C"/>
<path d="M67.7106 18.808C66.6154 18.808 65.728 19.702 65.728 20.8053V25.4754C65.728 26.5787 66.6154 27.4727 67.7106 27.4727C68.8058 27.4727 69.6932 26.5787 69.6932 25.4754V20.8053C69.6932 19.7023 68.8058 18.808 67.7106 18.808Z" fill="#96964C"/>
<path d="M67.7106 36.6819C66.6154 36.6819 65.728 37.5759 65.728 38.6791V43.3493C65.728 44.4525 66.6154 45.3465 67.7106 45.3465C68.8058 45.3465 69.6932 44.4525 69.6932 43.3493V38.6791C69.6932 37.5761 68.8058 36.6819 67.7106 36.6819Z" fill="#96964C"/>
<path d="M67.7106 54.5557C66.6154 54.5557 65.728 55.4497 65.728 56.553V61.2234C65.728 62.3266 66.6154 63.2206 67.7106 63.2206C68.8058 63.2206 69.6932 62.3266 69.6932 61.2234V56.553C69.6932 55.45 68.8058 54.5557 67.7106 54.5557Z" fill="#96964C"/>
<path d="M67.7106 72.4301C66.6154 72.4301 65.728 73.3241 65.728 74.4274V79.0975C65.728 80.2008 66.6154 81.0947 67.7106 81.0947C68.8058 81.0947 69.6932 80.2008 69.6932 79.0975V74.4274C69.6932 73.3241 68.8058 72.4301 67.7106 72.4301Z" fill="#96964C"/>
<path d="M67.7106 90.3039C66.6154 90.3039 65.728 91.1979 65.728 92.3011V96.9715C65.728 98.0748 66.6154 98.9688 67.7106 98.9688C68.8058 98.9688 69.6932 98.0748 69.6932 96.9715V92.3011C69.6932 91.1979 68.8058 90.3039 67.7106 90.3039Z" fill="#96964C"/>
<path d="M67.7106 108.178C66.6154 108.178 65.728 109.072 65.728 110.175V114.845C65.728 115.949 66.6154 116.843 67.7106 116.843C68.8058 116.843 69.6932 115.949 69.6932 114.845V110.175C69.6932 109.072 68.8058 108.178 67.7106 108.178Z" fill="#96964C"/>
<path d="M67.7106 126.052C66.6154 126.052 65.728 126.946 65.728 128.049V132.719C65.728 133.823 66.6154 134.717 67.7106 134.717C68.8058 134.717 69.6932 133.823 69.6932 132.719V128.049C69.6932 126.946 68.8058 126.052 67.7106 126.052Z" fill="#96964C"/>
</g>
<defs>
<clipPath id="clip0_285_397">
<rect width="135" height="136" fill="white" transform="translate(0 0.93396)"/>
</clipPath>
</defs>
</svg>
