<svg xmlns="http://www.w3.org/2000/svg" viewBox="0 0 142.09 161.91"><defs><style>.cls-1{opacity:0.32;}.cls-2{fill:#ffffbd;}</style></defs><g id="Layer_2" data-name="Layer 2"><g id="Layer_1-2" data-name="Layer 1"><g class="cls-1"><path class="cls-2" d="M72.2,109.2c-.13-.37-.24-.73-.35-1.1a.48.48,0,0,1-.83,0A21.69,21.69,0,0,1,69.2,89a39,39,0,0,1,5.54-9.42A41,41,0,0,1,83,71c3.23-2.4,7.8-4.84,8.11-9.37,0-.64.92-1.08,1.31-.41,0,0,0,0,0,.08A.68.68,0,0,1,93,62c0,.07,0,.14,0,.21a29.25,29.25,0,0,1,3.05,20,22.73,22.73,0,0,1-4.77,9.69c-2.52,3-5.77,5.25-8.9,7.53-3.64,2.65-7.16,5.63-8.86,9.92C73.24,109.91,72.39,109.71,72.2,109.2ZM87.75,69.3c-1.57,1.25-3.29,2.3-4.86,3.56a33.36,33.36,0,0,0-4.32,4.25c-4.69,5.42-9.34,12-9.48,19.45A21.72,21.72,0,0,0,71.55,107a24.6,24.6,0,0,1,2.63-16.85,38.39,38.39,0,0,1,6.45-8.65c2.57-2.64,5.68-4.82,7.93-7.77a14.87,14.87,0,0,0,2.69-8.23A14.66,14.66,0,0,1,87.75,69.3Zm0,23.53a22.19,22.19,0,0,0,5.83-8.91,25.93,25.93,0,0,0,1.18-10.39,28.18,28.18,0,0,0-1.91-8.18,19.1,19.1,0,0,1-1.38,6.51c-1.44,3.28-4.23,5.6-6.84,7.92A13.5,13.5,0,0,0,86.74,79,13.23,13.23,0,0,0,88.37,78a7.49,7.49,0,0,1,1.57-1,.48.48,0,0,1,.57.67A4.22,4.22,0,0,1,89,79a13.5,13.5,0,0,1-1.7,1,15.28,15.28,0,0,1-3.79,1.23.74.74,0,0,1-.39,0A42.42,42.42,0,0,0,77.23,88c1.16-.5,2.31-1,3.43-1.62,1.38-.73,2.68-1.65,4.11-2.27.4-.18.79.44.47.73a18,18,0,0,1-4.15,2.54,48.46,48.46,0,0,1-4.49,2,.48.48,0,0,1-.26,0,27.37,27.37,0,0,0-2.6,5.43L76,93.29l1.3-.84a4.58,4.58,0,0,1,1.38-.73.49.49,0,0,1,.5.79,5,5,0,0,1-1.24.94l-1.31.82-2.62,1.64a.51.51,0,0,1-.65-.07c-.19.63-.36,1.26-.49,1.91a20.8,20.8,0,0,0,.11,9.32C76.28,101,82.89,97.5,87.75,92.83Z"/><path class="cls-2" d="M.26,24.29c.12.37.26.73.4,1.08a.49.49,0,0,0-.66.5A21.68,21.68,0,0,0,10.36,42a39.36,39.36,0,0,0,10.16,4A40.65,40.65,0,0,0,32.36,47.7c4-.1,9.12-1,12.16,2.37.43.48,1.39.28,1.28-.48,0,0,0-.06,0-.09a.68.68,0,0,0,0-.87l-.13-.16a29.18,29.18,0,0,0-9.95-17.61,22.49,22.49,0,0,0-9.73-4.68c-3.82-.79-7.78-.57-11.65-.43-4.5.16-9.11,0-13.1-2.34C.64,23.09.09,23.77.26,24.29ZM37.12,46.08c-2,0-4,.22-6,.2a33.83,33.83,0,0,1-6-.67c-7-1.38-14.77-3.69-19.47-9.46a21.65,21.65,0,0,1-4.48-9.7A24.54,24.54,0,0,0,13.59,38.08,38.42,38.42,0,0,0,24,40.91c3.66.49,7.45.29,11,1.22a14.91,14.91,0,0,1,7.21,4.81A14.74,14.74,0,0,0,37.12,46.08ZM22.6,27.57A22.15,22.15,0,0,1,32.68,31,26,26,0,0,1,40,38.42,28.17,28.17,0,0,1,43.57,46a19.07,19.07,0,0,0-5.11-4.27c-3.15-1.69-6.78-1.79-10.27-2a12.53,12.53,0,0,1,2.16-.66,13.19,13.19,0,0,1,1.87-.28,6.79,6.79,0,0,0,1.86-.17.49.49,0,0,0,0-.88,4.25,4.25,0,0,0-2-.11,15.79,15.79,0,0,0-1.93.3,14.67,14.67,0,0,0-3.73,1.37.64.64,0,0,0-.29.27,42.8,42.8,0,0,1-8.84-1.72c1.22-.33,2.46-.62,3.7-.84,1.54-.28,3.13-.36,4.64-.75a.46.46,0,0,0-.09-.87,18.33,18.33,0,0,0-4.83.56c-1.6.33-3.18.74-4.74,1.22a.45.45,0,0,0-.22.15,28,28,0,0,1-5.41-2.67l2.74-.24,1.54-.14A5,5,0,0,0,16.17,34a.49.49,0,0,0-.09-.94,5.1,5.1,0,0,0-1.56,0L13,33.27l-3.07.33a.5.5,0,0,0-.47.46c-.54-.38-1.06-.77-1.57-1.2a20.79,20.79,0,0,1-5.66-7.4C8.53,28.22,15.89,26.9,22.6,27.57Z"/><path class="cls-2" d="M130.08,154A9.27,9.27,0,0,0,127,150.1a23.52,23.52,0,0,1-3.46-2.37,5.56,5.56,0,0,1-1.48-3.9,40.33,40.33,0,0,0-.23-5.27,19.94,19.94,0,0,1-.49-4.93,8.43,8.43,0,0,1,1.48-3.9c.82-1.24,1.83-2.35,2.66-3.59a16.91,16.91,0,0,0,1.85-4.41,4.53,4.53,0,0,1-1.83.24.54.54,0,0,1-.11.52,14.93,14.93,0,0,1-3.39,3c-.83,1.86-2.57,3-4,4.44a13.34,13.34,0,0,0-2,3,10.17,10.17,0,0,1-2,2.46c-.86.79-1.78,1.5-2.6,2.34a8.07,8.07,0,0,0-2,3.62c-.6,2.1-1.29,4.32-3.66,4.89-.31.07-.71-.21-.52-.56,1-1.78.93-3.85,1.56-5.74a24.06,24.06,0,0,1,3-5.38c1.65-2.53,3-5.71,5.55-7.38-1.44,0-2.88-.2-4.32-.16-1.9.06-3.59.81-5.43,1.12-3.25.55-6.13-1.49-8.22-3.75A17.85,17.85,0,0,1,93,115.6c-.82-4.38,0-8.82-.29-13.23a.43.43,0,0,1,.85-.09c0,.21,0,.42,0,.62a.31.31,0,0,1,.51-.11c3.76,3.25,4.72,8.45,8.23,11.86a9.63,9.63,0,0,0,7.95,2.51c2.83-.25,5.52-.7,8.23.46,1.44.62,2.75,1.52,4.19,2.17a8,8,0,0,0,5,.57s.06,0,.1,0a11.25,11.25,0,0,1,2.06-3.39,29.46,29.46,0,0,1,4.12-3.52c.49-.38,1,.39.56.77-2.5,2-4.81,4.18-5.85,7.3l-.3,1a.48.48,0,0,1,.08.38c-.24,1.55.43,2.94,1,4.34a12.54,12.54,0,0,1,.69,8,33.5,33.5,0,0,0-.95,4.05c-.29,2.61.77,5.17,1.49,7.62a13.19,13.19,0,0,1,.55,7.06A.62.62,0,0,1,130.08,154Zm-12.39-27c-3.9.93-5.44,5.63-7.42,8.62a19.15,19.15,0,0,0-2.77,5.25c-.37,1.34-.54,2.72-1,4,1.57-1.21,1.72-4,2.55-5.63,1-1.93,2.79-3.17,4.27-4.66a10.09,10.09,0,0,0,1.95-2.76,10.45,10.45,0,0,1,1.68-2.57c.91-1,2-1.8,2.87-2.79A10.79,10.79,0,0,1,117.69,127.07Zm6.66-5.28a14.34,14.34,0,0,1-3.36-1.4,3.85,3.85,0,0,0-1.26.23,5.82,5.82,0,0,0-1.24.7c-.82.56-1.54,1.25-2.39,1.77-.5.31-1-.41-.54-.74.9-.61,1.6-1.44,2.46-2.09a5.78,5.78,0,0,1,1.36-.75,12.56,12.56,0,0,0-2.59-1.11,1.7,1.7,0,0,1-.31.51c-.2.22-.41.45-.62.66a17.14,17.14,0,0,1-1.33,1.23,23.1,23.1,0,0,1-2.86,2.07c-.52.32-1.08-.44-.56-.77a22.17,22.17,0,0,0,2.73-2.09q.6-.56,1.17-1.14l.6-.62.06-.07a19,19,0,0,0-4.19.16s0,0,0,0c-.06.61-.74,1.11-1.19,1.46a13.73,13.73,0,0,1-1.73,1.11,15.43,15.43,0,0,1-3.77,1.46c-.52.13-.85-.65-.31-.8A15.19,15.19,0,0,0,108,120.1c.53-.32,1-.68,1.55-1,.25-.18.53-.43.82-.63a12.66,12.66,0,0,1-5.42-.63.45.45,0,0,1-.23.3,4.77,4.77,0,0,1-1.48.35,12.63,12.63,0,0,1-1.51.11,14.46,14.46,0,0,1-3-.25.4.4,0,0,1,.14-.78,12.86,12.86,0,0,0,2.84.14c.47,0,.93-.09,1.39-.16l.83-.17a7.74,7.74,0,0,1-.83-.48,9.87,9.87,0,0,1-1.73-1.48,3.55,3.55,0,0,1-1.08-.11,9.25,9.25,0,0,1-1.36-.41,8.9,8.9,0,0,1-2.35-1.36c-.39-.31.09-.89.48-.59a8,8,0,0,0,2.2,1.15,7.67,7.67,0,0,0,1.15.27h0A20.57,20.57,0,0,1,98.92,112a10.69,10.69,0,0,1-1.35-.87,18.56,18.56,0,0,1-1.44-1.22.37.37,0,0,1,.47-.58,18.21,18.21,0,0,0,1.45,1.18l.09,0c-1.29-2.5-2.44-5.18-4.46-7.18,0,0,0,0,0-.07.2,3.18,0,6.38.17,9.56A17.31,17.31,0,0,0,97,122c1.76,2.43,4.63,5.25,7.88,5,1.63-.11,3.14-.87,4.76-1.1a26.3,26.3,0,0,1,4.86,0,10.73,10.73,0,0,0,5.62-1A30.08,30.08,0,0,0,124.35,121.79ZM129.19,146a16.8,16.8,0,0,1-1.14-7.11c.16-1.32.6-2.59.89-3.89a11.92,11.92,0,0,0,.16-4.57,28.42,28.42,0,0,0-1.26-4c.12,2.75-1.28,5.33-1.45,8.11-.22,3.38.89,6.86.09,10.2a.54.54,0,0,1-1.06-.18c.38-3.3-.18-6.55,0-9.85.16-3,1.81-5.82,1.7-8.79a25.64,25.64,0,0,1-2.35,3.33,9.92,9.92,0,0,0-2,3.69,12.62,12.62,0,0,0,.23,4.89,24.74,24.74,0,0,1,.35,4.94c0,1.64.07,3.25,1.41,4.37,1.18,1,2.66,1.52,3.82,2.54a9.54,9.54,0,0,1,1.84,2.21A17.17,17.17,0,0,0,129.19,146Z"/><path class="cls-2" d="M129.12,96.68a.79.79,0,0,1-.61.06,36.66,36.66,0,0,1-23.28-20.89A34.85,34.85,0,0,1,103,68.18a48.29,48.29,0,0,1-.44-9.23c.07-3.31-.2-6.59-.24-9.9a19.33,19.33,0,0,1,1.62-8.63,22.31,22.31,0,0,1,5-6.69l-1.83,1.42c-4.62,3.57-9.25,7.13-14,10.5q-4.55,3.23-9.23,6.25c-3,1.94-6.26,3.63-9.24,5.66a18.34,18.34,0,0,0-2.39,2,.5.5,0,0,1-.28.27c-1.67,1.68-3.1,3.58-4.62,5.41a69.14,69.14,0,0,0-6,7.89,48.14,48.14,0,0,0-6,16.54,77.45,77.45,0,0,0-.7,20.06c0,.4-.46.82-.82.5A20,20,0,0,1,48.24,102a18.83,18.83,0,0,1-4.45-9.26c-.38-1.75-.63-3.52-.84-5.29a16.86,16.86,0,0,1-.18-5,23.54,23.54,0,0,1,1.68-4.75q1-2.58,2.11-5.16c1.25-3,2.65-6.12,5.16-8.33a9.69,9.69,0,0,1,4.62-2.31c1.72-.3,3.47-.07,5.18-.36a39.09,39.09,0,0,1,10-2.87c2.49-2.36,5.64-3.91,8.55-5.69,2.57-1.57,5.1-3.21,7.59-4.89l-1,.58a99.84,99.84,0,0,1-13.07,6.87,68.17,68.17,0,0,1-13.8,3.79c-2.72.49-5.46.87-8.19,1.23a55.35,55.35,0,0,1-7.14.72.48.48,0,0,1-.24,0l-.07,0h-.38c-7,4.17-8.91,14.56-17.72,16.14a.55.55,0,0,1-.42-1c3.1-2.4,4.18-6.28,5.94-9.65-7.07,2.73-14.58-1.35-19.83-6.14-.43-.4-.24-1.26.45-1.15a18.36,18.36,0,0,0,9.17-.94c2.64-1,5.07-2.51,7.76-3.39a10.56,10.56,0,0,1,7.78.23A57.19,57.19,0,0,1,45.06,60a.34.34,0,0,1,.06.06,57.84,57.84,0,0,0,6-.63c2.3-.29,4.6-.6,6.89-1A72.31,72.31,0,0,0,72,55a86.45,86.45,0,0,0,12.86-6.47q6.29-3.64,12.32-7.67c3.45-2.3,6.83-4.69,10.18-7.12-2.29.95-4.63,1.79-7,2.56a28.19,28.19,0,0,1-6.08,1.37,20.78,20.78,0,0,1-12.57,3.69,42.66,42.66,0,0,1-7.24-1.32,26.9,26.9,0,0,0-7.6-.31A17.49,17.49,0,0,1,60,39a37.9,37.9,0,0,1-6-2.79c-2.13-1.15-4.3-2.14-6.5-3.13a21.22,21.22,0,0,1-6-3.77c-3.78-3.6-5.57-8.7-7.12-13.58a.44.44,0,0,1-.11-.34c-.05-.14-.09-.29-.14-.43a.61.61,0,0,1,.91-.73c.69.48,1.35,1,2,1.53a88.55,88.55,0,0,0,20.47,8.36c8,2.16,16.18,3.74,24,6.57,4.47,1.62,8.87,3.43,13.21,5.37a.54.54,0,0,1,.27.27A16.83,16.83,0,0,0,97.15,36,77.3,77.3,0,0,0,106,33a39.36,39.36,0,0,0,11.83-6.85,21.09,21.09,0,0,1,5.85-6c.55-.37,1.2.41.65.8a18.52,18.52,0,0,0-2,1.67,20.82,20.82,0,0,1-3.13,3.86,22.52,22.52,0,0,0-2.35,5,20.45,20.45,0,0,0,.31,13.44,37,37,0,0,1,2.25,8c.34,2.77.38,5.57.85,8.33a82.82,82.82,0,0,0,2,8.19c.82,2.91,1.65,5.82,2.56,8.7a73.48,73.48,0,0,0,8,18.17.64.64,0,0,1-.23,1A3.48,3.48,0,0,1,129.12,96.68ZM59.15,63c-.49,0-1,0-1.47.05a8.16,8.16,0,0,0-4.36,1.54c-2.59,1.87-4,4.77-5.24,7.64-1.28,3-2.7,6.12-3.73,9.26a11.17,11.17,0,0,0-.29,4.71c.17,1.6.35,3.21.62,4.8a24.68,24.68,0,0,0,2.88,8.61c0-.1-.05-.19-.07-.28a34.27,34.27,0,0,1-.41-7,49.85,49.85,0,0,1,.4-6.69c.68-4.31,3.18-7.75,4.89-11.67s2.7-7.72,6.06-10.41C58.66,63.33,58.9,63.15,59.15,63Zm3.45-.63a.59.59,0,0,1-.43.36,4,4,0,0,1-.48.09c-.48.25-.95.51-1.4.8a12.51,12.51,0,0,0-4,4.11,39,39,0,0,0-2.43,5.59c-1.45,3.58-3.83,6.78-4.87,10.52a26.81,26.81,0,0,0-.75,6.44,56.73,56.73,0,0,0,0,6.52,19,19,0,0,0,5.22,11.7c-.83-11.37.26-23.3,5.63-33.52a47.1,47.1,0,0,1,5.31-7.88c1.85-2.29,3.66-4.69,5.66-6.88A34,34,0,0,0,62.6,62.34ZM36.49,56.65a10.23,10.23,0,0,0-8.2.32c-2.56,1-4.95,2.47-7.61,3.26a19.77,19.77,0,0,1-6.57.77c5.14,4.21,12,7.38,18.39,4a.8.8,0,0,1,.24-.07,10.13,10.13,0,0,1,4.33-3.79,13.2,13.2,0,0,1,2.24-.69,19.92,19.92,0,0,0-7.39.48c-3.48,1-7,2.55-10.64,1.7-.32-.07-.27-.58.06-.51,3.81.76,7.39-1.35,11-2.3a23,23,0,0,1,10.6.16h.18C40.89,58.88,38.76,57.61,36.49,56.65ZM42.09,61a16.65,16.65,0,0,0-4.9,1.24,10.54,10.54,0,0,0-4.41,4.67c-1.62,2.93-2.63,6.29-4.79,8.86,3.38-1.44,5.76-4.66,7.83-7.61A30.07,30.07,0,0,1,42.09,61ZM70.3,28.78c-8-2.07-16-3.7-23.65-6.81-1.92-.78-3.79-1.63-5.64-2.55l1.13,1.09A33.67,33.67,0,0,0,49.73,26c5.32,2.77,11.18,4.24,17,5.57Q77.12,34,87.61,35.92a30.37,30.37,0,0,0,5.14.56C85.33,33.7,78,30.77,70.3,28.78Zm21.29,9-.82-.06c-3.5-.38-7-1.2-10.43-1.89q-5.4-1.08-10.79-2.28c-6.17-1.37-12.44-2.72-18.23-5.33a34.34,34.34,0,0,1-8.59-5.42c-2-1.78-3.86-3.77-5.87-5.55l-.86-.5c1.19,3.7,2.62,7.4,5.11,10.41,3.13,3.75,7.76,5,11.94,7.2,4,2.07,7.78,4.41,12.4,4.25a44.45,44.45,0,0,1,7.11-.16c2.26.28,4.44,1,6.68,1.37A19.36,19.36,0,0,0,91.59,37.75Zm23-7.27A34.06,34.06,0,0,0,106,39.16a16.39,16.39,0,0,0-2.43,8c-.16,3.07.23,6.13.24,9.19A94.7,94.7,0,0,0,104,66a32.23,32.23,0,0,0,1.77,7.56,35.61,35.61,0,0,0,8.32,13,33.94,33.94,0,0,0,12.36,7.87,30.39,30.39,0,0,1-4.16-4.9,32,32,0,0,1-4.34-9.92c0,.29,0,.58,0,.87a17.91,17.91,0,0,0,.29,2.43c.16.83.39,1.64.52,2.47a.36.36,0,0,1-.68.19,11.79,11.79,0,0,1-1-5.19,18.42,18.42,0,0,1,.26-3.48c-.14-.67-.27-1.34-.38-2-.47-2.67-.88-5.37-1.61-8l0-.1a20.57,20.57,0,0,1-1,3.34,20,20,0,0,1-1,2.31,10,10,0,0,1-1.5,2.2c-.3.3-.85-.12-.67-.49.36-.74.82-1.43,1.2-2.15a23,23,0,0,0,1-2.25A20.59,20.59,0,0,0,114.59,65a.55.55,0,0,1,.06-.18c-.7-2.05-1.53-4.05-2.25-6.1A34.55,34.55,0,0,1,111,53.53a23.21,23.21,0,0,1-4.71,6.39c-.33.3-.86-.19-.57-.54.88-1.06,1.79-2.1,2.59-3.22a28,28,0,0,0,2.16-3.55.43.43,0,0,1,.35-.25,30.71,30.71,0,0,1-.11-8A52.7,52.7,0,0,1,114.63,30.48Zm9.67,50c-.94-2.82-1.78-5.67-2.6-8.53s-1.7-5.77-2.35-8.7a70.37,70.37,0,0,1-1.1-8.67,27.91,27.91,0,0,0-.62-4.18,42.25,42.25,0,0,0-1.52-4.53,22.26,22.26,0,0,1-.91-13.68c0-.1,0-.21.08-.31-3,7.55-4.89,15.81-2.63,23.79.74,2.63,1.85,5.14,2.79,7.7a47.52,47.52,0,0,1,2,7.14c.29,1.48.55,3,.83,4.45a.45.45,0,0,1,.19.48c0,.07,0,.15,0,.22a37.44,37.44,0,0,0,3,9.75,29.71,29.71,0,0,0,4.5,6.65,28.27,28.27,0,0,0,2.94,2.85,4.31,4.31,0,0,0,2.61,1.29A73.37,73.37,0,0,1,124.3,80.48Z"/><path class="cls-2" d="M82.81,1.86c2.57-.11,5.1-.73,7.68-.73a9.62,9.62,0,0,1,6.68,2.42,50.64,50.64,0,0,1,5.71,6.27s0,0,0,.07a53.21,53.21,0,0,0,5.41,1.17c2.08.4,4.16.79,6.25,1.12a66.26,66.26,0,0,0,13,1,79.12,79.12,0,0,0,13-1.94l1.5-.34c-.07.36-.13.72-.2,1.08a89.22,89.22,0,0,1-13,2.16,61.78,61.78,0,0,1-13-.64c-2.49-.35-5-.79-7.45-1.26a49.75,49.75,0,0,1-6.38-1.41.34.34,0,0,1-.21-.06l-.06,0-.29-.1h0C94.24,12.2,89.6,20.66,81.52,19.51a.49.49,0,0,1-.09-.94c3.36-1.2,5.4-4.25,7.89-6.68-6.91.36-12.25-5.31-15.44-11C73.62.47,74-.22,74.6.07A16.68,16.68,0,0,0,82.81,1.86ZM90.3,12.27c-2.24,2.08-4.07,4.71-6.67,6.32,3.33-.29,6.31-2.4,8.94-4.37A27.33,27.33,0,0,1,100,9.8a15,15,0,0,0-4.6-.31A9.52,9.52,0,0,0,90.3,12.27Zm.28-1.69a.75.75,0,0,1,.22,0,9.32,9.32,0,0,1,4.84-2.05,11,11,0,0,1,2.14,0A18,18,0,0,0,91.24,6.9c-3.29-.16-6.76.22-9.71-1.56-.25-.15-.07-.58.2-.43,3.09,1.75,6.78.94,10.15,1.13A21,21,0,0,1,101,9.19l.17,0c-1.59-1.59-3.08-3.3-4.77-4.77a9.33,9.33,0,0,0-7.2-2.06c-2.51.18-5,.73-7.52.66a18.08,18.08,0,0,1-5.91-1.19C79.05,7,84.09,11.67,90.58,10.58Z"/><path class="cls-2" d="M63.24,124.13a2.5,2.5,0,0,1-1.39-.5,1.87,1.87,0,0,1-.8-1.36.6.6,0,0,1,.1-.35.41.41,0,0,1-.5-.57,4.79,4.79,0,0,1,2.11-2.45,2.34,2.34,0,0,1,1.52-.16,2.07,2.07,0,0,1,1.3,1.1C66.5,121.6,65.42,124.24,63.24,124.13Zm.45-1.1a1.14,1.14,0,0,0,.26-.09h0l.12-.08.17-.13s0,0,0-.06a.6.6,0,0,0,.08-.08l.09-.11a.35.35,0,0,1,.06-.09,2.17,2.17,0,0,0,.19-1.82,1.13,1.13,0,0,0-1.48-.81c-.91.27-1.41,1.18-1.84,2l0,0,.06,0a.51.51,0,0,1,.61.31c0,.09,0,.17.08.25l0,.13.12.18,0,0,.07.07a1.58,1.58,0,0,0,.73.34h.39Z"/><path class="cls-2" d="M30.13,91.73a.83.83,0,0,1-.29-1,.39.39,0,0,1,.32-.23.4.4,0,0,1,.36.16l.06.08s.05.11.08.16,0,0,0,0l0,.06,0,0h0l.06,0h0l.07,0h.3l.14-.06.05,0,.06,0a2.43,2.43,0,0,0,.25-.2l.05,0h0l.13-.14a4.87,4.87,0,0,0,.43-.49h0l0-.06.06-.13h0s0,0,0-.06h0v-.09s0,0,0,0a.08.08,0,0,0,0,0h0l-.06-.08a.46.46,0,0,1-.07-.07h0l0,0-.12,0h0l-.06,0-.15,0h-.1l-.16,0a2.19,2.19,0,0,0-.35.13,4.56,4.56,0,0,0-.65.4.4.4,0,0,1-.47-.64,3,3,0,0,1,1.73-.75,1.5,1.5,0,0,1,1.4.87,1.7,1.7,0,0,1-.54,1.71,2.46,2.46,0,0,1-1.59,1A1.5,1.5,0,0,1,30.13,91.73Z"/><path class="cls-2" d="M112.09,161.9a1.16,1.16,0,0,1-.37,0,.78.78,0,0,1-.31-.17.49.49,0,0,1-.18-.4.44.44,0,0,1,.2-.38.8.8,0,0,1,.42-.16h.28a2.9,2.9,0,0,0,.51,0l.27,0h0l.14-.05.11,0,0,0,.11-.07h0l.09-.11h0l0-.09v0a.11.11,0,0,1,0-.05s0-.06,0-.09h0a.92.92,0,0,1,0-.16.14.14,0,0,1,0-.06v0l0,0,0,0h-.17l-.06,0h0l-.12.07L113,160l0,0-.11.12a2.62,2.62,0,0,0-.22.25.51.51,0,0,1-.73.07.54.54,0,0,1-.07-.73,2.4,2.4,0,0,1,1.35-1,1.24,1.24,0,0,1,.8.12,1.19,1.19,0,0,1,.54.57,1.7,1.7,0,0,1,0,1.31,1.8,1.8,0,0,1-1.08,1,3.1,3.1,0,0,1-.9.16Z"/><path class="cls-2" d="M85.3,130.66c-.33,0-.86,0-1.06-.36a.48.48,0,0,1,0-.59.91.91,0,0,1,.61-.23h.39a2.69,2.69,0,0,0,.4,0l.19,0h.07l.16-.06.08,0h0l.12-.08,0-.05h0l0,0,0,0,0,0h0l0-.07s0,0,0,0v0s0,0,0-.08a.17.17,0,0,0,0-.07l0-.11-.09-.13h0l-.08-.08-.08-.06h0l0,0-.2-.09h0l-.11,0h-.15l-.22,0h0l-.13.05-.1,0-.07,0A4.17,4.17,0,0,0,83.66,130a.46.46,0,0,1-.59.09.45.45,0,0,1-.17-.57c.65-1.08,1.61-2.43,3.07-2.18a1.92,1.92,0,0,1,1.46,1.11,1.52,1.52,0,0,1-.51,1.73A2.74,2.74,0,0,1,85.3,130.66Z"/><path class="cls-2" d="M86.36,129.16l0,0h0Z"/><path class="cls-2" d="M58.46,15.14a3,3,0,0,1-1.63-3,.48.48,0,0,1,.12-.28h0a2.85,2.85,0,0,1,1.14-3.61c.25-.15.69-.13.78.23a3.91,3.91,0,0,0,1.41,1.83,5.57,5.57,0,0,1,1.64,1.91C62.75,14.24,60.33,16.07,58.46,15.14Zm2.21-1.37a1.16,1.16,0,0,0,0-1.53,9.8,9.8,0,0,0-1.44-1.44,4.92,4.92,0,0,1-1.09-1.37,1.9,1.9,0,0,0-.37,2.08.38.38,0,0,1,0,.27.46.46,0,0,1,.19.38A2.29,2.29,0,0,0,59,14,1.37,1.37,0,0,0,60.67,13.77Z"/><path class="cls-2" d="M25,14.16a.62.62,0,0,1,.54-.66l.27,0h0l.09,0,.24-.1.1-.06.21-.16,0,0,0,0,.17-.21.06-.09h0v0a2.26,2.26,0,0,0,.11-.22l.05-.11s.07-.15,0-.07,0-.05,0-.07a.5.5,0,0,1,0-.12,2,2,0,0,0,0-.24h0v-.12a.83.83,0,0,0,0-.22h0l-.09,0-.2.06-.39.16-.09,0-.06,0,0,0L26,12l-.32.23-.17.13a.6.6,0,0,0-.08.08h0a5.1,5.1,0,0,0-.54.67.51.51,0,0,1-.67.11.53.53,0,0,1-.2-.66,4.44,4.44,0,0,1,3.28-2.14.57.57,0,0,1,.51.23,2.62,2.62,0,0,1,0,2.6,2.65,2.65,0,0,1-2.16,1.48A.61.61,0,0,1,25,14.16Z"/><path class="cls-2" d="M102.57,24.15a.57.57,0,0,1,0-1.13h.13a1.27,1.27,0,0,1,.18-.06l.09,0,.18-.13h0l.07-.07.06-.09h0c0-.05.08-.15.09-.18a.14.14,0,0,0,0-.06h0a.11.11,0,0,0,0-.05s0-.07,0-.1,0-.14,0-.21l0-.09,0-.1h0a1.63,1.63,0,0,0-.11-.17l0,0,0,0,0,0,0,0a.12.12,0,0,0,0,.05,4.47,4.47,0,0,0-.35.41.61.61,0,0,1-.07.1v0h0l-.14.25a4.34,4.34,0,0,0-.2.5.49.49,0,0,1-.93-.29,3.88,3.88,0,0,1,.71-1.44,4.38,4.38,0,0,1,.56-.58.62.62,0,0,1,.58-.2,1.43,1.43,0,0,1,.39.15,2,2,0,0,1,.63,2.85,2.19,2.19,0,0,1-.74.58A1.82,1.82,0,0,1,102.57,24.15Z"/><path class="cls-2" d="M57,50.68a1.52,1.52,0,0,1-.67-.7l0-.15a.45.45,0,0,1,0-.23.51.51,0,0,1,.21-.31.6.6,0,0,1,.67,0h0l.14.06h0l.23.07h0l-.13,0a1.2,1.2,0,0,0,.2,0l.15,0a.58.58,0,0,0,.17-.06l.09-.07.06-.06s0,0,0,0v0s0-.05,0-.07,0,0,0-.06a.76.76,0,0,0-.08-.11l-.13-.1-.15-.08-.16,0h-.09l-.1,0h0a.58.58,0,0,1-.82-.13.61.61,0,0,1,.13-.82,1.61,1.61,0,0,1,1.56-.19,1.82,1.82,0,0,1,1.07,1A1.54,1.54,0,0,1,59,50.09a2,2,0,0,1-1.23.68A1.68,1.68,0,0,1,57,50.68Z"/><path class="cls-2" d="M103,99.81a.63.63,0,0,1,0-.78,4.18,4.18,0,0,1,.53-.5c.18-.14.38-.26.56-.4l.23-.19a.69.69,0,0,0,.13-.11s-.07.08,0,0l.2-.21.1-.14.06-.1a.76.76,0,0,0,.09-.18A1.23,1.23,0,0,1,105,97c0-.07,0-.14,0-.2a1,1,0,0,0,0-.16,3,3,0,0,0,0-.43.21.21,0,0,1,0-.06v0c0-.09-.06-.18-.1-.27a1.89,1.89,0,0,0-.09-.21h0a.41.41,0,0,0-.07-.11,2.14,2.14,0,0,0-.13-.19l-.12-.15a4.38,4.38,0,0,0-.34-.29l-.07-.05h0l-.26-.12-.07,0h0l-.26,0h-.15l-.33,0a1.54,1.54,0,0,0-.38.13,2.27,2.27,0,0,0-.42.27,2.08,2.08,0,0,0-.75,1.92.63.63,0,0,1-.35.79.61.61,0,0,1-.79-.35,3.27,3.27,0,0,1,.68-2.94,3.31,3.31,0,0,1,2.79-1.21,3.38,3.38,0,0,1,2.72,4.16,3.5,3.5,0,0,1-1,1.58,5.27,5.27,0,0,1-.76.58,3.77,3.77,0,0,1-1,.41A.68.68,0,0,1,103,99.81Z"/></g></g></g></svg>