<svg width="382" height="172" viewBox="0 0 382 172" fill="none" xmlns="http://www.w3.org/2000/svg">
<g opacity="0.45">
<path d="M169.054 71.2169C168.953 70.1735 168.026 69.4093 166.982 69.5099C166.876 69.5202 161.322 70.0323 151.496 69.9137C149.539 66.7546 148.367 62.9457 148.1 62.0268C148.21 61.957 148.32 61.8845 148.427 61.8063C149.655 60.9087 150.46 59.5867 150.694 58.0834C150.928 56.5802 150.563 55.0759 149.665 53.8477C147.812 51.3123 144.242 50.7566 141.706 52.6094C139.171 54.4623 138.615 58.0325 140.468 60.568C140.95 61.2269 141.547 61.7518 142.212 62.1359C142.885 62.5244 143.627 62.7651 144.389 62.8569C144.519 63.3313 145.425 66.523 147.099 69.8226C143.713 69.7246 139.939 69.5521 135.809 69.2716C135.754 67.9474 135.544 65.0793 134.748 61.6989C133.297 55.5435 130.565 50.6126 126.846 47.4389C122.986 44.1463 119.953 41.2688 117.571 38.642C114.71 35.4857 112.845 32.7345 112.028 30.4646C111.584 29.2307 110.448 28.438 109.134 28.4457C107.815 28.4533 106.684 29.263 106.252 30.5079C104.714 34.9473 102.782 43.7095 107.123 52.5158C109.829 58.0045 114.514 62.6778 121.111 66.4864C122.203 67.1168 123.353 67.7205 124.55 68.3033C121.061 67.9421 117.396 67.5073 113.564 66.9836C109.447 66.4209 105.412 66.2677 101.51 66.4162C101.097 62.0723 98.866 46.8565 87.3596 33.2428C84.2002 29.5048 80.404 26.3944 76.0766 23.9904C75.1596 23.4817 74.0041 23.8125 73.4953 24.7291C72.9919 25.6365 73.3106 26.7774 74.2056 27.2942C74.2151 27.2996 74.2248 27.305 74.2343 27.3104C78.1596 29.4879 81.5986 32.3084 84.4598 35.6936C92.6779 45.4169 95.8582 56.2261 97.073 62.4874C91.7593 56.7159 83.2255 46.2141 79.5776 41.6271C78.9256 40.8069 77.731 40.6703 76.9102 41.3229C76.0895 41.9755 75.9533 43.1697 76.606 43.9903C77.8111 45.5059 85.3902 55.0061 91.5461 62.01C85.9441 59.2971 78.7639 55.3665 73.3615 50.8371C65.1829 43.9806 58.2197 27.6748 56.0236 22.1468C58.7829 22.296 62.8773 22.8086 67.4713 24.3458C68.4657 24.6785 69.5414 24.1421 69.8741 23.1478C70.2068 22.1532 69.6702 21.077 68.676 20.7451C63.3954 18.9785 58.7143 18.4573 55.7171 18.3315C54.5321 18.2815 53.4136 18.8286 52.7252 19.7941C52.0366 20.76 51.8843 21.9959 52.3178 23.0999C54.9649 29.8444 62.0772 46.3319 70.9223 53.7471C74.1875 56.4843 78.0008 58.9849 81.7492 61.149C86.085 63.6523 90.3296 65.7022 93.5298 67.1421C87.9815 67.9361 82.822 69.2615 78.2398 70.7833C77.2171 68.1235 72.6898 57.7687 61.8133 50.5024C51.9498 43.9125 41.2807 45.4421 37.1508 46.4047L37.1507 46.4049C36.0905 46.6521 35.2394 47.412 34.874 48.4371C34.5086 49.4625 34.6876 50.5897 35.3526 51.4522C38.2122 55.1603 45.2067 63.6545 52.1199 67.6458C52.7821 68.0281 53.4443 68.3695 54.1014 68.6612C59.7987 71.1888 66.8723 72.584 71.5334 73.2887C70.8072 73.5902 70.1027 73.8926 69.4238 74.1931C65.5067 75.9268 62.1007 77.7206 59.3088 79.3335C56.836 77.4487 54.5553 76.2059 54.1783 76.0043C54.1851 75.9383 54.1967 75.8737 54.2013 75.8071C54.3039 74.2892 53.8093 72.8222 52.8085 71.6765C51.8077 70.5304 50.4204 69.8432 48.903 69.7405C47.3852 69.6379 45.9182 70.1325 44.7725 71.1332C43.6268 72.134 42.939 73.5211 42.8365 75.0387C42.7339 76.5564 43.2285 78.0236 44.2292 79.1693C44.6491 79.65 45.137 80.0503 45.6738 80.3603C46.4169 80.789 47.2536 81.0458 48.1347 81.1053C49.6526 81.208 51.1196 80.7133 52.2653 79.7126C52.3647 79.6259 52.4561 79.5325 52.5484 79.4399C53.013 79.6959 54.2899 80.4229 55.7874 81.4652C53.8203 82.7136 52.3923 83.7224 51.58 84.3182C50.2777 84.321 38.8022 84.5784 28.2509 92.5505C19.521 99.1462 17.565 108.911 17.1292 112.803C17.1292 112.803 17.1292 112.803 17.1293 112.803C17.0075 113.891 17.4426 114.949 18.2929 115.636C18.4241 115.742 18.5617 115.836 18.7046 115.919C19.4865 116.37 20.4254 116.469 21.2998 116.175C34.7658 111.656 40.2407 106.873 41.9694 105.026C47.2416 99.393 51.4934 91.0031 52.9037 88.0521C52.9872 88.005 53.0686 87.9512 53.1466 87.8901C53.215 87.8363 60.1193 82.4636 70.9604 77.6649C71.2039 77.5571 71.4533 77.4491 71.7034 77.3409C66.8699 81.7508 59.2502 89.3063 54.4005 97.1038C48.3523 106.828 46.7075 124.586 46.281 131.77C46.2071 133.013 46.7626 134.195 47.7671 134.931C47.8764 135.011 47.9887 135.084 48.1042 135.151C49.0545 135.699 50.1999 135.794 51.241 135.396C56.7461 133.289 70.2185 126.74 76.4064 111.469C83.9776 92.7842 79.635 75.8477 79.2537 74.4482C83.9043 72.8925 89.1746 71.5431 94.8485 70.7912C92.0689 75.2154 91.0236 81.1953 90.8587 82.2342C89.3729 82.5777 88.027 83.5105 87.2061 84.9323C85.6359 87.6521 86.571 91.1421 89.2908 92.7123C92.0106 94.2826 95.5005 93.3475 97.0708 90.6277C98.6411 87.9079 97.7059 84.418 94.9862 82.8477C94.8711 82.7813 94.754 82.7207 94.636 82.6634C95.1073 79.8676 96.895 72.8169 100.125 70.4377C100.194 70.3869 100.257 70.3313 100.317 70.2736C104.424 70.0391 108.692 70.1507 113.05 70.7464C117.597 71.3677 121.916 71.8661 125.987 72.2647C120.329 75.2176 111.414 80.3611 104.981 86.4054C96.9968 93.9068 91.037 109.907 88.8452 116.438C88.412 117.728 88.6664 119.129 89.5256 120.185C89.8358 120.566 90.206 120.879 90.6161 121.116C91.342 121.535 92.193 121.715 93.0567 121.611C96.9165 121.148 104.489 119.671 111.834 114.989C112.718 114.425 112.978 113.251 112.414 112.367C111.85 111.484 110.677 111.223 109.793 111.787C103.082 116.065 96.143 117.416 92.6043 117.841C92.5773 117.844 92.5219 117.851 92.4702 117.787C92.4185 117.724 92.4362 117.671 92.4448 117.646C94.5453 111.387 100.225 96.0834 107.581 89.1724C113.661 83.4592 122.352 78.4612 127.824 75.6016C120.962 87.056 108.565 98.5043 108.422 98.6354C107.65 99.3443 107.599 100.545 108.307 101.318C108.442 101.464 108.594 101.584 108.757 101.679C109.456 102.082 110.364 102.007 110.99 101.433C111.54 100.928 121.962 91.3056 129.179 80.5514C127.893 86.7429 125.114 95.2049 119.105 103.189C118.045 104.598 116.874 105.934 115.624 107.16C114.876 107.895 114.864 109.096 115.599 109.845C116.333 110.594 117.535 110.605 118.283 109.87C119.668 108.512 120.965 107.032 122.139 105.472C132.203 92.1002 133.793 77.7528 134.038 72.9519C138.568 73.2813 142.701 73.4832 146.398 73.5977C144.27 76.8341 142.966 80.1425 142.784 80.6179C142.717 80.6194 142.652 80.6157 142.585 80.6193C141.066 80.7037 139.671 81.3745 138.657 82.5085C136.563 84.8489 136.764 88.4564 139.104 90.5506C139.402 90.8174 139.721 91.0468 140.055 91.2395C142.339 92.5585 145.319 92.1455 147.146 90.1033C148.16 88.9696 148.673 87.5087 148.588 85.9896C148.504 84.4706 147.833 83.0755 146.699 82.0614C146.601 81.9734 146.497 81.8943 146.393 81.8138C146.768 80.8764 148.495 76.7484 151.025 73.7018C161.366 73.8434 167.239 73.2996 167.348 73.2887C168.392 73.188 169.155 72.2605 169.054 71.2169ZM144.094 58.8742C143.176 58.3441 142.861 57.1702 143.391 56.2521C143.921 55.3341 145.095 55.0195 146.013 55.5496C146.931 56.0796 147.246 57.2535 146.716 58.1716C146.186 59.0895 145.012 59.4042 144.094 58.8742ZM47.5695 77.0941C46.6514 76.5641 46.3369 75.3902 46.8669 74.4721C47.397 73.554 48.5709 73.2395 49.489 73.7695C50.407 74.2996 50.7216 75.4735 50.1915 76.3915C49.6616 77.3094 48.4876 77.6242 47.5695 77.0941ZM39.1967 102.431C38.0309 103.677 33.3304 107.994 21.0298 112.256C21.6131 108.397 23.6245 100.804 30.539 95.5803C37.2363 90.52 44.4869 88.8896 48.5062 88.3644C46.6571 91.9763 43.1903 98.1647 39.1967 102.431ZM55.6409 65.1903C53.9325 64.4322 47.7628 61.116 38.9562 49.9005C43.1078 49.0855 51.7407 48.34 59.7043 53.6597C67.4401 58.8278 71.7116 65.8626 73.6228 69.7466C69.3236 69.1599 61.555 67.8142 55.6409 65.1903ZM61.8993 106.933C61.4157 107.839 61.7409 108.961 62.6239 109.471C62.6423 109.482 62.6611 109.492 62.6799 109.502C63.6048 109.996 64.7548 109.647 65.2486 108.722C65.595 108.073 72.3723 95.3242 76.7925 83.1023C77.344 89.6479 77.1109 99.6188 72.8869 110.043C67.332 123.752 55.2455 129.763 50.0843 131.772C50.4308 126.129 51.9553 108.224 57.6244 99.1092C61.9766 92.1115 68.8911 85.1341 73.5831 80.7876C69.2391 93.1259 61.985 106.773 61.8993 106.933ZM93.0873 86.1357C93.9939 86.6591 94.3056 87.8223 93.7821 88.729C93.2587 89.6357 92.0955 89.9473 91.1888 89.4239C90.2821 88.9004 89.9705 87.7372 90.4939 86.8305C91.0174 85.9239 92.1806 85.6122 93.0873 86.1357ZM110.529 50.8374C107.422 44.5354 107.971 38.2576 109.26 33.6122C111.53 38.1449 116.404 43.5216 124.381 50.3275C129.82 54.9678 131.393 63.0717 131.848 67.3015C121.106 63.2883 113.94 57.758 110.529 50.8374ZM144.585 87.3021C144.055 88.2202 142.881 88.5347 141.963 88.0047C141.045 87.4746 140.73 86.3007 141.26 85.3826C141.79 84.4646 142.964 84.15 143.882 84.6801C144.8 85.2101 145.115 86.384 144.585 87.3021Z" fill="#96964C"/>
<path d="M212.945 71.2169C213.046 70.1735 213.974 69.4093 215.017 69.5099C215.123 69.5202 220.678 70.0323 230.504 69.9137C232.46 66.7546 233.633 62.9457 233.9 62.0268C233.789 61.957 233.68 61.8845 233.573 61.8063C232.345 60.9087 231.539 59.5867 231.305 58.0834C231.071 56.5802 231.437 55.0759 232.334 53.8477C234.187 51.3123 237.758 50.7566 240.293 52.6094C242.829 54.4623 243.384 58.0325 241.531 60.568C241.05 61.2269 240.453 61.7518 239.788 62.1359C239.115 62.5244 238.372 62.7651 237.611 62.8569C237.481 63.3313 236.574 66.523 234.901 69.8226C238.287 69.7246 242.061 69.5521 246.19 69.2716C246.245 67.9474 246.456 65.0793 247.252 61.6989C248.702 55.5435 251.434 50.6126 255.154 47.4389C259.013 44.1463 262.046 41.2688 264.428 38.642C267.29 35.4857 269.155 32.7345 269.972 30.4646C270.416 29.2307 271.551 28.438 272.865 28.4457C274.184 28.4533 275.316 29.263 275.747 30.5079C277.286 34.9473 279.218 43.7095 274.876 52.5158C272.171 58.0045 267.485 62.6778 260.889 66.4864C259.797 67.1168 258.646 67.7205 257.45 68.3033C260.939 67.9421 264.604 67.5073 268.436 66.9836C272.553 66.4209 276.588 66.2677 280.49 66.4162C280.903 62.0723 283.133 46.8565 294.64 33.2428C297.799 29.5048 301.596 26.3944 305.923 23.9904C306.84 23.4817 307.995 23.8125 308.504 24.7291C309.008 25.6365 308.689 26.7774 307.794 27.2942C307.784 27.2996 307.775 27.305 307.765 27.3104C303.84 29.4879 300.401 32.3084 297.54 35.6936C289.322 45.4169 286.141 56.2261 284.927 62.4874C290.24 56.7159 298.774 46.2141 302.422 41.6271C303.074 40.8069 304.269 40.6703 305.089 41.3229C305.91 41.9755 306.046 43.1697 305.394 43.9903C304.188 45.5059 296.609 55.0061 290.453 62.01C296.055 59.2971 303.236 55.3665 308.638 50.8371C316.817 43.9806 323.78 27.6748 325.976 22.1468C323.217 22.296 319.122 22.8086 314.528 24.3458C313.534 24.6785 312.458 24.1421 312.125 23.1478C311.793 22.1532 312.329 21.077 313.323 20.7451C318.604 18.9785 323.285 18.4573 326.282 18.3315C327.467 18.2815 328.586 18.8286 329.274 19.7941C329.963 20.76 330.115 21.9959 329.682 23.0999C327.035 29.8444 319.922 46.3319 311.077 53.7471C307.812 56.4843 303.999 58.9849 300.25 61.149C295.914 63.6523 291.67 65.7022 288.47 67.1421C294.018 67.9361 299.177 69.2615 303.76 70.7833C304.782 68.1235 309.31 57.7687 320.186 50.5024C330.05 43.9125 340.719 45.4421 344.849 46.4047L344.849 46.4049C345.909 46.6521 346.76 47.412 347.125 48.4371C347.491 49.4625 347.312 50.5897 346.647 51.4522C343.787 55.1603 336.793 63.6545 329.88 67.6458C329.217 68.0281 328.555 68.3695 327.898 68.6612C322.201 71.1888 315.127 72.584 310.466 73.2887C311.192 73.5902 311.897 73.8926 312.576 74.1931C316.493 75.9268 319.899 77.7206 322.691 79.3335C325.163 77.4487 327.444 76.2059 327.821 76.0043C327.814 75.9383 327.803 75.8737 327.798 75.8071C327.696 74.2892 328.19 72.8222 329.191 71.6765C330.192 70.5304 331.579 69.8432 333.096 69.7405C334.614 69.6379 336.081 70.1325 337.227 71.1332C338.373 72.134 339.06 73.5211 339.163 75.0387C339.266 76.5564 338.771 78.0236 337.77 79.1693C337.35 79.65 336.863 80.0503 336.326 80.3603C335.583 80.789 334.746 81.0458 333.865 81.1053C332.347 81.208 330.88 80.7133 329.734 79.7126C329.635 79.6259 329.543 79.5325 329.451 79.4399C328.987 79.6959 327.71 80.4229 326.212 81.4652C328.179 82.7136 329.607 83.7224 330.419 84.3182C331.722 84.321 343.197 84.5784 353.749 92.5505C362.478 99.1462 364.435 108.911 364.87 112.803C364.87 112.803 364.87 112.803 364.87 112.803C364.992 113.891 364.557 114.949 363.707 115.636C363.575 115.742 363.438 115.836 363.295 115.919C362.513 116.37 361.574 116.469 360.7 116.175C347.234 111.656 341.759 106.873 340.03 105.026C334.758 99.393 330.506 91.0031 329.096 88.0521C329.012 88.005 328.931 87.9512 328.853 87.8901C328.785 87.8363 321.88 82.4636 311.039 77.6649C310.796 77.5571 310.546 77.4491 310.296 77.3409C315.13 81.7508 322.749 89.3063 327.599 97.1038C333.647 106.828 335.292 124.586 335.718 131.77C335.792 133.013 335.237 134.195 334.232 134.931C334.123 135.011 334.011 135.084 333.895 135.151C332.945 135.699 331.8 135.794 330.758 135.396C325.253 133.289 311.781 126.74 305.593 111.469C298.022 92.7842 302.365 75.8477 302.746 74.4482C298.095 72.8925 292.825 71.5431 287.151 70.7912C289.931 75.2154 290.976 81.1953 291.141 82.2342C292.627 82.5777 293.972 83.5105 294.793 84.9323C296.364 87.6521 295.429 91.1421 292.709 92.7123C289.989 94.2826 286.499 93.3475 284.929 90.6277C283.358 87.9079 284.294 84.418 287.013 82.8477C287.128 82.7813 287.245 82.7207 287.363 82.6634C286.892 79.8676 285.105 72.8169 281.874 70.4377C281.805 70.3869 281.742 70.3313 281.682 70.2736C277.575 70.0391 273.308 70.1507 268.95 70.7464C264.402 71.3677 260.083 71.8661 256.013 72.2647C261.671 75.2176 270.586 80.3611 277.019 86.4054C285.003 93.9068 290.962 109.907 293.154 116.438C293.588 117.728 293.333 119.129 292.474 120.185C292.164 120.566 291.794 120.879 291.383 121.116C290.658 121.535 289.806 121.715 288.943 121.611C285.083 121.148 277.511 119.671 270.166 114.989C269.282 114.425 269.022 113.251 269.585 112.367C270.149 111.484 271.322 111.223 272.207 111.787C278.917 116.065 285.857 117.416 289.395 117.841C289.422 117.844 289.478 117.851 289.529 117.787C289.581 117.724 289.563 117.671 289.555 117.646C287.454 111.387 281.775 96.0834 274.419 89.1724C268.338 83.4592 259.647 78.4612 254.175 75.6016C261.038 87.056 273.434 98.5043 273.577 98.6354C274.349 99.3443 274.401 100.545 273.692 101.318C273.558 101.464 273.406 101.584 273.242 101.679C272.543 102.082 271.636 102.007 271.01 101.433C270.459 100.928 260.038 91.3056 252.821 80.5514C254.106 86.7429 256.886 95.2049 262.895 103.189C263.955 104.598 265.126 105.934 266.375 107.16C267.124 107.895 267.135 109.096 266.401 109.845C265.666 110.594 264.464 110.605 263.716 109.87C262.332 108.512 261.035 107.032 259.861 105.472C249.797 92.1002 248.207 77.7528 247.961 72.9519C243.431 73.2813 239.298 73.4832 235.602 73.5977C237.729 76.8341 239.033 80.1425 239.216 80.6179C239.282 80.6194 239.348 80.6157 239.414 80.6193C240.933 80.7037 242.328 81.3745 243.343 82.5085C245.436 84.8489 245.236 88.4564 242.895 90.5506C242.597 90.8174 242.278 91.0468 241.945 91.2395C239.66 92.5585 236.68 92.1455 234.853 90.1033C233.839 88.9696 233.327 87.5087 233.411 85.9896C233.496 84.4706 234.167 83.0755 235.301 82.0614C235.399 81.9734 235.503 81.8943 235.606 81.8138C235.231 80.8764 233.504 76.7484 230.975 73.7018C220.633 73.8434 214.761 73.2996 214.651 73.2887C213.608 73.188 212.844 72.2605 212.945 71.2169ZM237.906 58.8742C238.824 58.3441 239.138 57.1702 238.608 56.2521C238.078 55.3341 236.904 55.0195 235.986 55.5496C235.068 56.0796 234.754 57.2535 235.284 58.1716C235.813 59.0895 236.988 59.4042 237.906 58.8742ZM334.43 77.0941C335.348 76.5641 335.663 75.3902 335.133 74.4721C334.603 73.554 333.429 73.2395 332.511 73.7695C331.592 74.2996 331.278 75.4735 331.808 76.3915C332.338 77.3094 333.512 77.6242 334.43 77.0941ZM342.803 102.431C343.969 103.677 348.669 107.994 360.97 112.256C360.386 108.397 358.375 100.804 351.461 95.5803C344.763 90.52 337.513 88.8896 333.493 88.3644C335.342 91.9763 338.809 98.1647 342.803 102.431ZM326.359 65.1903C328.067 64.4322 334.237 61.116 343.043 49.9005C338.892 49.0855 330.259 48.34 322.295 53.6597C314.559 58.8278 310.288 65.8626 308.377 69.7466C312.676 69.1599 320.445 67.8142 326.359 65.1903ZM320.1 106.933C320.584 107.839 320.259 108.961 319.376 109.471C319.357 109.482 319.338 109.492 319.32 109.502C318.395 109.996 317.245 109.647 316.751 108.722C316.404 108.073 309.627 95.3242 305.207 83.1023C304.656 89.6479 304.889 99.6188 309.113 110.043C314.667 123.752 326.754 129.763 331.915 131.772C331.569 126.129 330.044 108.224 324.375 99.1092C320.023 92.1115 313.108 85.1341 308.416 80.7876C312.76 93.1259 320.014 106.773 320.1 106.933ZM288.912 86.1357C288.006 86.6591 287.694 87.8223 288.217 88.729C288.741 89.6357 289.904 89.9473 290.811 89.4239C291.717 88.9004 292.029 87.7372 291.506 86.8305C290.982 85.9239 289.819 85.6122 288.912 86.1357ZM271.471 50.8374C274.578 44.5354 274.029 38.2576 272.74 33.6122C270.469 38.1449 265.596 43.5216 257.618 50.3275C252.18 54.9678 250.606 63.0717 250.152 67.3015C260.894 63.2883 268.059 57.758 271.471 50.8374ZM237.415 87.3021C237.945 88.2202 239.119 88.5347 240.037 88.0047C240.955 87.4746 241.269 86.3007 240.739 85.3826C240.209 84.4646 239.035 84.15 238.117 84.6801C237.199 85.2101 236.885 86.384 237.415 87.3021Z" fill="#96964C"/>
</g>
<circle cx="191" cy="70.8491" r="8.5" fill="#5E6036"/>
</svg>
