<svg width="121" height="142" viewBox="0 0 121 142" fill="none" xmlns="http://www.w3.org/2000/svg">
<path d="M99.3686 32.6326C98.6212 31.3382 97.2286 30.5341 95.7337 30.5341H24.2704C22.7756 30.5341 21.383 31.3382 20.6358 32.6326L15.5358 41.4657C14.9657 42.4531 15.3041 43.7157 16.2915 44.2858C17.2786 44.8559 18.5415 44.5175 19.1116 43.5301L23.0392 36.7274L37.9449 62.5446H8.13355L14.4357 51.6287C15.0058 50.6413 14.6674 49.3784 13.68 48.8086C12.6926 48.2379 11.4298 48.5768 10.8599 49.5642L3.2328 62.7749C2.50902 64.0281 2.67065 65.5956 3.63442 66.6753L57.4519 126.951C58.0853 127.661 58.994 128.068 59.9454 128.069H59.9471C60.8977 128.069 61.8062 127.662 62.4401 126.954L116.367 66.677C117.333 65.5972 117.495 64.029 116.771 62.7741L99.3686 32.6326ZM64.3574 62.5448H45.0961L60.0018 36.7274L74.9075 62.5448H74.7285C73.5883 62.5448 72.6641 63.4693 72.6641 64.6093C72.6641 65.7495 73.5885 66.6737 74.7285 66.6737H75.7225L59.9518 120.2L44.2764 66.674H64.3574C65.4977 66.674 66.4219 65.7495 66.4219 64.6095C66.4221 63.4693 65.4977 62.5448 64.3574 62.5448ZM78.4835 60.4804L63.5778 34.663H93.3892L78.4835 60.4804ZM80.0276 66.674H110.829L64.9023 118.009L80.0276 66.674ZM111.871 62.5448H82.0593L96.9649 36.7277L111.871 62.5448ZM26.615 34.663H56.4263L41.5206 60.4801L26.615 34.663ZM39.9738 66.674L55.0101 118.017L9.16851 66.674H39.9738Z" fill="#96964C"/>
<path d="M109.965 120.373C109.867 120.308 109.764 120.251 109.656 120.203C108.345 119.623 107.136 118.939 106.063 118.169C105.137 117.504 103.847 117.716 103.182 118.642C102.517 119.569 102.729 120.858 103.656 121.523C104.285 121.975 104.951 122.402 105.648 122.8C101.189 125.344 98.0965 128.989 96.5822 133.495C95.0678 128.99 91.9761 125.345 87.5185 122.801C91.9767 120.257 95.0683 116.612 96.5824 112.106C96.6033 112.168 96.6248 112.23 96.6459 112.292C97.0209 113.369 98.1974 113.938 99.2747 113.563C100.351 113.188 100.92 112.011 100.546 110.934C100.389 110.484 100.251 110.016 100.135 109.545L99.2769 106.039C98.9721 104.794 97.864 103.924 96.5822 103.924C95.3004 103.924 94.1923 104.794 93.8871 106.039L93.0292 109.545C91.5665 115.52 87.0443 118.639 83.5084 120.203C83.4003 120.251 83.2967 120.308 83.1983 120.374C82.3846 120.916 81.8992 121.824 81.8992 122.801C81.8992 123.779 82.3849 124.687 83.1983 125.229C83.2964 125.295 83.4001 125.351 83.5084 125.399C87.0443 126.963 91.5662 130.083 93.0292 136.058L93.8874 139.564C94.1923 140.809 95.3004 141.678 96.5822 141.678C97.864 141.678 98.9721 140.809 99.2769 139.564L100.135 136.058C101.598 130.083 106.12 126.964 109.656 125.399C109.764 125.352 109.867 125.295 109.966 125.229C110.779 124.687 111.265 123.779 111.265 122.801C111.265 121.823 110.779 120.916 109.965 120.373Z" fill="#96964C"/>
<path d="M119.756 29.428C119.658 29.3623 119.554 29.3054 119.446 29.2576C117.159 28.2457 115.739 26.6709 115.226 24.5768L114.794 22.8092C114.528 21.7223 113.56 20.9628 112.441 20.9628C112.441 20.9628 112.441 20.9628 112.441 20.9628C111.321 20.963 110.354 21.7226 110.088 22.8092L109.656 24.5768C109.143 26.6709 107.723 28.2457 105.436 29.2576C105.328 29.3054 105.224 29.3623 105.125 29.428C104.43 29.8918 104.015 30.668 104.015 31.504C104.015 32.3399 104.431 33.1159 105.126 33.5794C105.224 33.6448 105.328 33.7017 105.436 33.7496C107.723 34.7614 109.143 36.3363 109.656 38.4307L110.088 40.1977C110.354 41.2849 111.322 42.0441 112.441 42.0444H112.441C113.56 42.0444 114.528 41.2854 114.794 40.198L115.227 38.4307C115.74 36.3366 117.159 34.7617 119.447 33.7498C119.554 33.702 119.658 33.6454 119.756 33.5797C120.452 33.1162 120.867 32.3402 120.868 31.5043C120.867 30.6678 120.452 29.8918 119.756 29.428ZM112.441 34.4734C111.752 33.34 110.844 32.3441 109.733 31.5037C110.844 30.6634 111.752 29.6674 112.441 28.5341C113.13 29.6674 114.038 30.6634 115.149 31.5037C114.038 32.3441 113.13 33.3397 112.441 34.4734Z" fill="#96964C"/>
<path d="M8.18661 24.85L8.80649 27.3817C9.08963 28.5382 10.1191 29.3461 11.3096 29.3461C12.5005 29.3461 13.5299 28.5382 13.8128 27.3817L14.4327 24.85C15.4338 20.7613 18.5475 18.6185 20.9836 17.5406C21.0916 17.4928 21.1953 17.4359 21.2934 17.3702C22.0408 16.8721 22.487 16.0384 22.487 15.1403C22.487 14.242 22.0411 13.4082 21.2937 12.9098C21.1953 12.8441 21.0916 12.7872 20.9833 12.7394C18.5475 11.6618 15.4338 9.51906 14.4327 5.43034L13.8128 2.8986C13.5297 1.74186 12.5002 0.93396 11.3094 0.93396C10.1188 0.93396 9.08935 1.74186 8.80622 2.89833L8.18634 5.43007C7.18574 9.51879 4.07178 11.6616 1.63598 12.7391C1.52794 12.787 1.42403 12.8439 1.3259 12.9096C0.578196 13.4082 0.132324 14.242 0.132324 15.1403C0.132324 16.0386 0.578746 16.8724 1.32617 17.3705C1.42431 17.4359 1.52794 17.4928 1.6357 17.5406C4.07178 18.6182 7.18574 20.7613 8.18661 24.85ZM11.3094 8.97808C12.4471 11.4686 14.2848 13.5506 16.7492 15.14C14.2851 16.7294 12.4471 18.8117 11.3094 21.3022C10.1716 18.8117 8.33368 16.7297 5.86956 15.14C8.33368 13.5506 10.1716 11.4683 11.3094 8.97808Z" fill="#96964C"/>
</svg>
