<svg width="132" height="132" viewBox="0 0 132 132" fill="none" xmlns="http://www.w3.org/2000/svg">
<g clip-path="url(#clip0_285_381)">
<path d="M92.0578 106.247V104.367C92.0578 102.726 92.6422 101.15 93.7037 99.9287C96.3273 96.9096 99.7543 94.4073 102.434 93.554C105.414 92.605 107.225 89.5516 106.556 86.6031C106.194 85.0088 105.178 83.6254 103.769 82.8082C102.358 81.9902 100.656 81.7939 99.0975 82.2698C97.5831 82.7324 96.0205 83.414 94.4324 84.3037V73.1436C94.4324 71.904 93.9074 70.7871 93.0715 69.9952C93.334 69.3996 93.5781 68.8001 93.8051 68.1971C100.797 67.1726 105.927 62.6081 105.927 57.2164C105.927 54.3298 104.432 51.6547 101.95 49.6434C102.466 46.9871 102.728 44.2596 102.728 41.5168C102.729 20.347 86.8068 1.94305 66 1.94305C59.5053 1.94305 53.1224 3.79368 47.5408 7.29486C42.1465 10.6789 37.6078 15.5225 34.4152 21.3027C33.903 22.2301 34.2394 23.3976 35.1672 23.9101C36.0947 24.4226 37.2622 24.0859 37.7747 23.1581C40.6533 17.9463 44.7356 13.5852 49.58 10.5463C54.5498 7.42868 60.2276 5.78094 66 5.78094C71.0446 5.78094 75.8266 7.02263 80.103 9.23709C66.905 10.8595 51.4025 19.9067 43.9629 29.5216C40.4499 34.0619 37.9387 39.6485 36.8034 46.493C35.6607 46.7463 34.5805 47.0976 33.576 47.5316C33.2664 45.5558 33.1068 43.5414 33.1068 41.5143C33.1068 37.9409 33.5914 34.4121 34.5465 31.0256C34.8343 30.0055 34.241 28.9454 33.2206 28.6576C32.2018 28.3703 31.1405 28.9633 30.8529 29.9835C29.8018 33.709 29.2689 37.5886 29.2689 41.5143C29.2689 44.2607 29.5314 46.9889 30.048 49.6427C27.5666 51.6535 26.0732 54.3282 26.0732 57.2166C26.0732 62.6083 31.2027 67.1729 38.1948 68.1973C38.4217 68.8004 38.6661 69.3999 38.9283 69.9955C38.0924 70.7874 37.5674 71.9042 37.5674 73.1439V84.3042C35.9793 83.4146 34.4168 82.7329 32.9021 82.2704C29.6547 81.2784 26.2075 83.2424 25.4443 86.6036C24.7752 89.5521 26.5857 92.6053 29.5659 93.5545C32.2458 94.4078 35.6728 96.9101 38.2964 99.9293C39.3577 101.15 39.9423 102.727 39.9423 104.368V106.247C31.7047 109.078 22.8389 113.818 22.8389 124.633V126.112C22.8389 128.287 24.6089 130.057 26.7845 130.057H105.215C107.391 130.057 109.161 128.288 109.161 126.112V124.633C109.161 113.818 100.295 109.078 92.0578 106.247ZM94.686 88.6369C96.6054 87.3829 98.4668 86.4759 100.219 85.9407C100.769 85.7728 101.345 85.8396 101.843 86.1282C103.393 87.0268 103.123 89.3067 101.27 89.897C97.2604 91.1738 93.2363 94.6158 90.8066 97.4113C89.1384 99.3308 88.2199 101.801 88.2199 104.367V126.219H78.814V117.597C78.814 116.537 77.9551 115.678 76.895 115.678C75.835 115.678 74.9761 116.537 74.9761 117.597V126.219H57.024V89.0581C60.2588 90.6845 63.369 91.5629 66 91.5629C68.631 91.5629 71.7413 90.6845 74.9761 89.0581V108.642C74.9761 109.702 75.835 110.561 76.895 110.561C77.9551 110.561 78.814 109.702 78.814 108.642V81.0292C78.814 76.4032 82.5774 72.6398 87.2034 72.6398H90.0907C90.3686 72.6398 90.5945 72.8657 90.5945 73.1436V86.4299C90.5945 87.3998 91.1239 88.2889 91.9762 88.7503C92.8318 89.2131 93.8703 89.1696 94.686 88.6369ZM42.5999 68.8017C40.825 64.9013 39.8742 60.77 39.8742 56.4153C39.8742 33.3999 51.6205 23.2817 66.0609 23.2712H66.0891C80.672 23.2712 92.1261 32.7982 92.1261 56.4153C92.1261 60.7692 91.1753 64.9003 89.4004 68.8017H87.2036C80.4615 68.8017 74.9764 74.2868 74.9764 81.0289V84.689C71.6763 86.6251 68.4468 87.7248 66.0003 87.7248C63.5538 87.7248 60.3243 86.6251 57.0242 84.689V81.0292C57.0242 74.287 51.5391 68.8019 44.797 68.8019L42.5999 68.8017ZM95.081 64.0158C95.8581 60.714 96.2633 56.9654 95.7273 50.6049C98.9013 51.622 102.089 53.9641 102.089 57.2164C102.089 60.1976 99.1763 62.89 95.081 64.0158ZM85.6117 12.846C93.6651 19.3661 98.8908 29.7905 98.8908 41.5166C98.8908 43.5412 98.7314 45.5548 98.4223 47.5318C97.4298 47.103 96.3636 46.7553 95.2366 46.5028C94.0164 38.7666 91.2641 32.5507 87.0089 27.9542C80.5216 20.946 70.8432 18.4831 61.7533 19.7266C68.7234 15.7684 77.6833 12.4118 85.6117 12.846ZM29.9111 57.2164C29.9111 53.9332 33.1423 51.6033 36.2861 50.5998C36.1208 52.464 36.0364 54.4019 36.0364 56.4153C36.0364 58.9866 36.3334 61.5253 36.9193 64.0156C32.8238 62.89 29.9111 60.1976 29.9111 57.2164ZM30.7303 89.8973C29.6332 89.5478 28.9552 88.4742 29.187 87.453C29.4551 86.2735 30.652 85.5955 31.7812 85.9407C33.5333 86.4759 35.3947 87.3829 37.3144 88.6372C39.0716 89.7842 41.4056 88.5292 41.4056 86.4299V73.1436C41.4056 72.8657 41.6315 72.6398 41.9093 72.6398H44.7967C49.4227 72.6398 53.1861 76.4032 53.1861 81.0292V126.219H43.7802V104.367C43.7802 101.801 42.8614 99.3308 41.1935 97.4111C38.7641 94.6161 34.7397 91.174 30.7303 89.8973ZM26.677 126.112V124.633C26.677 118.135 30.6799 113.773 39.9426 110.327V126.219H26.7845C26.7251 126.219 26.677 126.171 26.677 126.112ZM105.323 126.112C105.323 126.171 105.275 126.219 105.215 126.219H92.0575V110.327C101.32 113.773 105.323 118.135 105.323 124.633V126.112Z" fill="#96964C"/>
<path d="M57.8387 69.5222C57.3843 70.4796 57.7916 71.624 58.7493 72.0787C61.1549 73.2211 63.5774 73.7922 66.0001 73.7922C68.4228 73.7922 70.8453 73.2211 73.2509 72.0787C74.2083 71.624 74.6159 70.4796 74.1615 69.5222C73.7068 68.5647 72.5616 68.1574 71.605 68.6118C67.8336 70.4026 64.1671 70.4026 60.3955 68.6118C59.4381 68.1569 58.2936 68.5647 57.8387 69.5222Z" fill="#96964C"/>
<path d="M48.1512 46.2981C50.6389 44.93 55.708 44.93 58.1958 46.2981C59.1243 46.8088 60.2912 46.4697 60.8019 45.5412C61.3124 44.6125 60.9736 43.4457 60.0449 42.935C56.3843 40.9225 49.963 40.9225 46.3024 42.935C45.3736 43.4457 45.0349 44.6125 45.5453 45.5412C46.0563 46.47 47.2232 46.8088 48.1512 46.2981Z" fill="#96964C"/>
<path d="M73.8045 46.2981C76.2923 44.93 81.3614 44.93 83.8491 46.2981C84.7776 46.8088 85.9446 46.4697 86.4553 45.5412C86.9657 44.6125 86.6269 43.4457 85.6982 42.935C82.0376 40.9225 75.6163 40.9225 71.9557 42.935C71.0269 43.4457 70.6882 44.6125 71.1986 45.5412C71.7093 46.47 72.8765 46.8088 73.8045 46.2981Z" fill="#96964C"/>
<path d="M58.7532 55.0014C59.2905 54.088 58.9855 52.9118 58.0721 52.3745C54.607 50.336 50.9441 50.336 47.479 52.3745C46.5656 52.9118 46.2606 54.088 46.7979 55.0014C47.3352 55.9148 48.5112 56.2198 49.4251 55.6825C51.7109 54.3379 53.8407 54.3379 56.1263 55.6825C57.0446 56.2228 58.219 55.9094 58.7532 55.0014Z" fill="#96964C"/>
<path d="M84.5213 52.3745C81.0562 50.336 77.3933 50.336 73.9282 52.3745C73.0148 52.9118 72.7098 54.088 73.2471 55.0014C73.7844 55.9148 74.9604 56.2198 75.8743 55.6825C78.1601 54.3379 80.2899 54.3379 82.5755 55.6825C83.494 56.2228 84.6684 55.9097 85.2027 55.0014C85.7395 54.088 85.4347 52.9115 84.5213 52.3745Z" fill="#96964C"/>
<path d="M112.345 77.9182C110.426 77.5104 108.722 79.2136 109.128 81.1346C109.8 84.305 111.054 88.5374 113.213 90.6961C114.412 91.8945 115.986 92.4938 117.56 92.4938C119.134 92.4938 120.708 91.8945 121.907 90.6961C124.303 88.2992 124.303 84.3997 121.907 82.0028C119.747 79.8438 115.515 78.5899 112.345 77.9182ZM119.192 87.9824C118.292 88.8828 116.827 88.8828 115.926 87.9824C114.983 87.0383 114.034 84.8929 113.296 82.0862C116.103 82.8241 118.248 83.7725 119.192 84.7169C120.093 85.617 120.093 87.0821 119.192 87.9824Z" fill="#96964C"/>
<path d="M125.353 63.9357C122.299 63.9357 118.42 66.0417 115.703 67.8084C114.93 68.3112 114.469 69.1614 114.469 70.0827C114.469 71.0041 114.93 71.8543 115.703 72.3573C118.42 74.124 122.3 76.23 125.353 76.23C128.742 76.23 131.5 73.4724 131.5 70.0827C131.5 66.6934 128.742 63.9357 125.353 63.9357ZM125.353 72.3924C124.017 72.3924 121.83 71.546 119.323 70.083C121.83 68.62 124.018 67.7739 125.353 67.7739C126.626 67.7739 127.662 68.8099 127.662 70.083C127.662 71.3564 126.626 72.3924 125.353 72.3924Z" fill="#96964C"/>
<path d="M112.186 59.1995C115.28 59.3638 119.787 59.2834 122.479 57.7288C123.901 56.908 124.918 55.5822 125.343 53.9964C125.768 52.4105 125.55 50.7539 124.729 49.3318C123.908 47.9097 122.583 46.8927 120.997 46.4677C119.411 46.043 117.754 46.261 116.332 47.0818C113.687 48.6087 111.381 52.3722 109.912 55.2606C109.021 57.0109 110.228 59.0959 112.186 59.1995ZM118.251 50.4054C119.356 49.7673 120.767 50.1452 121.405 51.2507C122.043 52.3561 121.666 53.7669 120.56 54.4052C119.403 55.073 117.081 55.4376 114.183 55.4202C115.623 52.9 117.094 51.0732 118.251 50.4054Z" fill="#96964C"/>
<path d="M19.6554 77.9182C16.485 78.5898 12.2526 79.8438 10.0937 82.0027C7.69729 84.3996 7.69729 88.2992 10.0937 90.6961C12.4898 93.0922 16.3901 93.0935 18.7873 90.6961C20.9462 88.5371 22.2004 84.3047 22.8723 81.1341C23.2781 79.2154 21.5761 77.5096 19.6554 77.9182ZM16.0734 87.9824C15.1727 88.883 13.7077 88.8828 12.8076 87.9824C11.9069 87.082 11.9069 85.617 12.8076 84.7166C13.7514 83.7725 15.8968 82.824 18.7041 82.0859C17.9662 84.8929 17.0177 87.0383 16.0734 87.9824Z" fill="#96964C"/>
<path d="M17.531 70.083C17.531 69.1617 17.0695 68.3114 16.2965 67.8084C13.5798 66.0417 9.70045 63.9357 6.64702 63.9357C3.2574 63.9357 0.5 66.6934 0.5 70.083C0.5 73.4726 3.2574 76.2303 6.64702 76.2303C9.70019 76.2303 13.5795 74.1243 16.2968 72.3573C17.0697 71.8546 17.531 71.0044 17.531 70.083ZM6.64702 72.3924C5.37361 72.3924 4.33789 71.3564 4.33789 70.083C4.33789 68.8096 5.37387 67.7739 6.64702 67.7739C7.98235 67.7739 10.1702 68.6203 12.6766 70.083C10.1699 71.546 7.98235 72.3924 6.64702 72.3924Z" fill="#96964C"/>
<path d="M9.52091 57.7288C12.2136 59.2837 16.721 59.3638 19.8139 59.1995C20.7347 59.1509 21.5593 58.6453 22.0202 57.8475C22.481 57.0498 22.5065 56.0826 22.0885 55.2603C20.6196 52.3721 18.3133 48.6087 15.6682 47.0817C14.2461 46.2607 12.5894 46.0424 11.0039 46.4677C9.4178 46.8927 8.09219 47.91 7.27114 49.3318C6.45008 50.7536 6.23184 52.4103 6.65707 53.9963C7.08231 55.5824 8.09884 56.9078 9.52091 57.7288ZM10.5945 51.2505C11.2324 50.1454 12.6434 49.767 13.749 50.4051C14.9057 51.0729 16.3774 52.8997 17.8164 55.4199C14.919 55.4325 12.5963 55.0727 11.4396 54.405C10.3345 53.7668 9.95638 52.356 10.5945 51.2505Z" fill="#96964C"/>
</g>
<defs>
<clipPath id="clip0_285_381">
<rect width="131" height="131" fill="white" transform="translate(0.5 0.5)"/>
</clipPath>
</defs>
</svg>
