<svg width="135" height="136" viewBox="0 0 135 136" fill="none" xmlns="http://www.w3.org/2000/svg">
<g clip-path="url(#clip0_285_416)">
<path d="M32.7104 46.8612C35.4703 49.6208 37.1401 53.2771 37.4135 57.1591L38.473 77.1868C38.4735 77.1992 38.4743 77.2118 38.4753 77.2245C38.5777 78.642 38.1218 80.0096 37.1926 81.0757C36.2684 82.1359 34.9851 82.7719 33.5769 82.8676C33.3828 82.8792 33.1044 82.7571 33.0574 82.4333L31.7061 59.3458C31.6423 58.2557 30.7126 57.4233 29.6163 57.4871C28.526 57.5509 27.6938 58.4864 27.7577 59.577L29.1103 82.6854C29.157 83.6227 29.5343 84.583 30.3269 85.4658L38.44 93.5789C38.8263 93.9649 39.3325 94.158 39.8385 94.158C40.3445 94.158 40.8508 93.9649 41.237 93.5789C42.0093 92.8064 42.0093 91.5545 41.237 90.7822L36.6373 86.1824C37.9847 85.648 39.1946 84.7987 40.1739 83.6754C41.7965 81.8142 42.5944 79.4304 42.4217 76.9611L41.3623 56.9342C41.3314 56.4881 41.2716 55.888 41.1244 54.9443C48.878 43.3132 57.303 36.2115 67.5451 32.6733C77.6426 35.6926 85.8122 42.5855 93.8852 54.8945C93.7713 55.5568 93.687 56.226 93.64 56.9015C93.6395 56.9123 93.6387 56.9231 93.6382 56.934L93.3139 63.0564C93.2559 64.1469 94.0933 65.078 95.1841 65.1357C95.2197 65.1378 95.2553 65.1386 95.2903 65.1386C96.3345 65.1386 97.2075 64.3204 97.2631 63.2655L97.5869 57.1599C97.8603 53.2779 99.5302 49.6213 102.29 46.8617L134.421 14.7308C135.193 13.9582 135.193 12.7063 134.421 11.934C133.648 11.162 132.396 11.162 131.624 11.934L111.076 32.4827C110.729 31.9688 110.356 31.4721 109.96 30.9943C112.576 22.9763 109.413 14.0273 102.273 9.4732C101.106 8.72253 99.9106 7.98795 98.7207 7.28975C97.7791 6.73735 96.567 7.05244 96.0141 7.99454C95.4615 8.93637 95.7771 10.1482 96.7189 10.7011C97.8627 11.3722 99.0113 12.0785 100.135 12.801C105.224 16.0666 107.742 21.9897 106.669 27.8671L95.9938 19.7925C95.1232 19.1338 93.8826 19.3058 93.2237 20.1767C92.5648 21.0478 92.7367 22.2879 93.6079 22.9468L104.415 31.1219C105.936 32.2726 107.226 33.7193 108.209 35.3499L99.493 44.0655C97.7533 45.8052 96.3635 47.8326 95.3694 50.0371C87.7309 39.1504 79.8118 32.6438 70.2501 29.3843C74.0896 20.5806 71.8368 16.9517 69.9983 13.9973C68.663 11.852 67.6743 10.2592 69.0021 6.36769C73.5821 5.15322 78.0695 4.88902 81.0896 4.88902C83.1507 4.88902 85.7212 5.49863 88.7297 6.7015C88.9704 6.79774 89.2188 6.84335 89.4632 6.84335C90.2482 6.84335 90.9907 6.3727 91.3 5.59935C91.7055 4.58527 91.2119 3.43435 90.1978 3.02909C86.7202 1.63902 83.6559 0.93396 81.0896 0.93396C77.709 0.93396 72.6144 1.24377 67.4275 2.6966C65.5077 2.19747 60.8415 0.93396 53.9104 0.93396C48.6813 0.93396 41.5553 3.80639 32.73 9.47109C25.6812 13.948 22.407 22.8679 25.0397 30.9911C24.6445 31.4686 24.2701 31.9635 23.9228 32.4798L18.0627 26.6197C17.2902 25.8477 16.0383 25.8477 15.266 26.6197C14.4937 27.3923 14.4937 28.6442 15.266 29.4165L32.7104 46.8612ZM30.5847 31.1206L41.3923 22.9455C42.2635 22.2866 42.4354 21.0465 41.7765 20.1753C41.1179 19.3042 39.8773 19.1325 39.0064 19.7912L28.3319 27.8653C27.2583 21.9891 29.7761 16.0663 34.8662 12.7991C42.9287 7.62434 49.5139 4.88902 53.9104 4.88902C58.8558 4.88902 62.7151 5.62862 64.9326 6.14963C63.5568 11.132 65.1841 13.7465 66.6404 16.0861C68.3442 18.8238 69.8224 21.2 66.0856 28.9891C55.8729 32.5565 47.3869 39.3255 39.66 50.1041C38.6641 47.8732 37.2648 45.8218 35.5075 44.0644L26.7866 35.3435C27.7701 33.7035 29.0449 32.2855 30.5847 31.1206Z" fill="#96964C"/>
<path d="M8.7319 22.8828C9.11818 23.2691 9.62417 23.4621 10.1304 23.4621C10.6364 23.4621 11.1427 23.2691 11.5287 22.883C12.3012 22.1105 12.3012 20.8586 11.5289 20.0865L3.3762 11.9335C2.60391 11.1612 1.35173 11.161 0.579696 11.9333C-0.192863 12.7058 -0.192863 13.9577 0.579432 14.7298L8.7319 22.8828Z" fill="#96964C"/>
<path d="M131.624 46.278L119.654 58.2476C118.204 59.698 117.26 61.6146 116.995 63.6444L114.706 81.2383C114.489 82.9514 113.695 84.5696 112.47 85.7943L93.46 104.804C92.3346 105.93 90.5074 105.934 89.3876 104.814C88.2673 103.694 88.2717 101.866 89.3971 100.741L104.673 85.465C105.211 84.8448 105.798 83.8226 105.89 82.6851L107.242 59.5767C107.306 58.4862 106.474 57.5507 105.384 57.4869C104.29 57.4207 103.357 58.2552 103.294 59.3455L101.943 82.433C101.934 82.5844 101.803 82.8715 101.422 82.8673C100.014 82.7713 98.7313 82.1353 97.8074 81.0754C97.1113 80.2802 96.4627 78.7954 96.527 77.1862L96.7749 72.4929C96.8326 71.4024 95.9952 70.4713 94.9044 70.4139C93.8165 70.3485 92.8828 71.1935 92.8253 72.2843L92.578 76.9595C92.4053 79.429 93.2032 81.8129 94.8258 83.6744C95.8051 84.7976 97.0148 85.6466 98.3622 86.1814C98.0339 86.4883 86.7675 97.8166 86.4086 98.1141C78.5476 105.201 71.8321 109.104 67.4992 109.104C63.2689 109.275 55.0484 104.298 47.7672 97.3099C46.9946 96.5378 45.7427 96.5378 44.9704 97.3099C44.1981 98.0824 44.1981 99.3343 44.9704 100.107L45.6022 100.738C46.7275 101.865 46.7315 103.694 45.6109 104.814C45.0695 105.355 44.35 105.653 43.584 105.653C42.8133 105.653 42.0869 105.352 41.539 104.803L22.5281 85.7925C21.303 84.5674 20.5099 82.9504 20.2932 81.2299L18.004 63.6407C17.7372 61.6104 16.7932 59.6948 15.3457 58.2468L3.375 46.2761C2.60244 45.5041 1.35053 45.5041 0.578242 46.2761C-0.19405 47.0487 -0.19405 48.3006 0.578242 49.0729L12.5489 61.0433C13.3839 61.8786 13.9287 62.9839 14.0821 64.1533L16.37 81.7319C16.6943 84.3109 17.8882 86.7462 19.731 88.5892L38.742 107.6C40.0371 108.895 41.7568 109.608 43.5838 109.608C45.406 109.608 47.1188 108.899 48.4073 107.611C49.2616 106.756 49.8399 105.729 50.1452 104.64C51.134 105.434 52.1003 106.175 53.0429 106.857V114.483C53.0429 117.151 51.1311 119.395 48.497 119.819L30.4656 122.723C24.4666 123.689 19.4426 127.594 17.0263 133.169C16.5923 134.171 17.0524 135.336 18.0543 135.77C18.3106 135.881 18.5772 135.933 18.8398 135.933C19.6039 135.933 20.3319 135.488 20.6555 134.742C22.5323 130.411 26.4346 127.377 31.0945 126.627L49.1259 123.724C53.6874 122.989 56.998 119.103 56.998 114.482V109.472C61.0069 111.855 64.5187 113.058 67.4987 113.058C70.4787 113.058 73.9905 111.855 77.9994 109.472V114.482C77.9994 119.103 81.3103 122.989 85.8716 123.724L103.903 126.627C108.563 127.378 112.465 130.411 114.342 134.742C114.665 135.488 115.393 135.933 116.158 135.933C116.42 135.933 116.687 135.881 116.943 135.77C117.945 135.336 118.405 134.171 117.971 133.169C115.555 127.594 110.531 123.689 104.532 122.723L86.5004 119.819C83.8663 119.395 81.9545 117.151 81.9545 114.483V106.857C82.8971 106.175 83.8634 105.435 84.8519 104.64C85.1573 105.729 85.7355 106.756 86.5898 107.61C87.9192 108.939 89.6658 109.604 91.4139 109.604C93.1663 109.604 94.9205 108.936 96.2557 107.6L115.266 88.5905C117.108 86.7483 118.302 84.3133 118.628 81.7409L120.916 64.1543C121.068 62.9849 121.613 61.8804 122.45 61.0438L134.419 49.0742C135.192 48.3016 135.192 47.0497 134.419 46.2774C133.648 45.5059 132.396 45.5059 131.624 46.278Z" fill="#96964C"/>
<path d="M60.6263 81.8506C60.2456 82.8744 60.7666 84.0127 61.7902 84.3937C63.5502 85.0482 65.3221 85.3756 67.0939 85.3756C68.8658 85.3756 70.6379 85.0484 72.3977 84.3937C73.4213 84.013 73.9423 82.8744 73.5615 81.8506C73.1805 80.8268 72.0425 80.3058 71.0184 80.6868C68.3775 81.6695 65.8098 81.6695 63.1689 80.6868C62.1453 80.3063 61.0068 80.827 60.6263 81.8506Z" fill="#96964C"/>
<path d="M90.7276 59.1341C91.0524 58.0915 90.4705 56.9828 89.4277 56.6579C85.1449 55.3237 79.8155 53.6642 73.4747 56.77C72.4939 57.2507 72.0883 58.4351 72.5688 59.4159C73.0494 60.3968 74.2341 60.8021 75.2147 60.3219C79.7989 58.0757 83.3527 58.9081 88.2512 60.434C88.4468 60.4949 88.6451 60.5241 88.8397 60.5241C89.6829 60.5241 90.4639 59.981 90.7276 59.1341Z" fill="#96964C"/>
<path d="M61.5252 56.7702C55.1847 53.6636 49.8549 55.3237 45.5723 56.6582C44.5295 56.9827 43.9476 58.0917 44.2724 59.1343C44.5361 59.9815 45.3171 60.5241 46.1598 60.5241C46.3544 60.5241 46.5526 60.4951 46.7483 60.4339C51.6473 58.9081 55.2011 58.0757 59.7847 60.3219C60.7653 60.8025 61.95 60.3968 62.4307 59.4159C62.9116 58.4353 62.5061 57.2509 61.5252 56.7702Z" fill="#96964C"/>
<path d="M57.8705 94.978C60.4756 96.2692 63.3644 96.3386 66.4578 95.1842C66.7826 95.0627 67.141 95.0627 67.4669 95.1842C68.9263 95.7287 70.3398 96.0011 71.7001 96.0011C73.2226 96.0011 74.678 95.6599 76.0539 94.978C77.0326 94.4931 77.4326 93.3069 76.9477 92.3281C76.4628 91.3494 75.2763 90.9491 74.2978 91.4343C72.6662 92.2429 70.9347 92.2572 68.8501 91.4788C67.6322 91.024 66.2917 91.024 65.0748 91.4788C62.9895 92.2567 61.2585 92.2424 59.6269 91.4343C58.6481 90.9483 57.4618 91.3496 56.9769 92.3281C56.4918 93.3069 56.892 94.4931 57.8705 94.978Z" fill="#96964C"/>
<path d="M46.3615 71.5561C48.3863 72.3215 50.4252 72.7044 52.4642 72.7044C54.5032 72.7044 56.5424 72.3215 58.5672 71.5561C59.5889 71.1695 60.1038 70.0284 59.7176 69.0069C59.3313 67.9852 58.1893 67.4705 57.1684 67.8565C54.003 69.053 50.9262 69.0536 47.7603 67.8565C46.7396 67.4702 45.5977 67.9852 45.2111 69.0069C44.8248 70.0284 45.3398 71.1695 46.3615 71.5561Z" fill="#96964C"/>
<path d="M88.6384 71.5561C89.6602 71.1695 90.1751 70.0284 89.7888 69.0069C89.4026 67.9852 88.2603 67.4705 87.2397 67.8565C84.0738 69.0536 80.997 69.053 77.8316 67.8565C76.8112 67.4702 75.6687 67.9852 75.2824 69.0069C74.8961 70.0284 75.4111 71.1695 76.4328 71.5561C78.4575 72.3215 80.4965 72.7044 82.5358 72.7044C84.5747 72.7044 86.6137 72.3215 88.6384 71.5561Z" fill="#96964C"/>
</g>
<defs>
<clipPath id="clip0_285_416">
<rect width="135" height="135" fill="white" transform="translate(0 0.93396)"/>
</clipPath>
</defs>
</svg>
