<svg width="112" height="94" viewBox="0 0 112 94" fill="none" xmlns="http://www.w3.org/2000/svg">
<path d="M110.85 80.1924C110.541 79.7782 110.054 79.534 109.537 79.534H101.493C104.805 76.8441 106.927 72.7415 106.927 68.1522V48.3756C106.927 40.2924 100.35 33.7153 92.2663 33.7153H87.5137C89.1841 32.7244 90.7425 31.5205 92.1468 30.1153C97.0905 25.1716 99.5624 18.3352 98.9267 11.3591C98.8552 10.5711 98.2305 9.94723 97.4433 9.87566C92.1215 9.39156 86.9244 10.6847 82.5355 13.5405C81.4469 8.44357 78.6829 3.81893 74.5886 0.410011C73.9816 -0.0959802 73.0993 -0.0959802 72.4914 0.410011C68.3972 3.81893 65.634 8.44441 64.5446 13.5405C60.154 10.6847 54.9552 9.39072 49.6368 9.87566C48.8496 9.94723 48.2249 10.5711 48.1534 11.3591C47.5186 18.3344 49.9896 25.1707 54.9333 30.1145C56.3385 31.5196 57.896 32.7244 59.5655 33.7153H55.489C50.9207 33.7153 46.7634 35.8134 44.049 39.1987V31.7949C44.049 30.8899 43.3157 30.1566 42.4098 30.1566H36.8953V22.645C36.8953 20.0005 34.7442 17.8486 32.0989 17.8486H29.4384V10.0112C29.4384 7.37518 27.2941 5.23082 24.658 5.23082H18.3235C15.6874 5.23082 13.5422 7.37518 13.5422 10.0112V17.8486H10.8834C8.23731 17.8486 6.08453 20.0005 6.08453 22.6458V30.591C6.08453 31.496 6.81868 32.2294 7.72374 32.2294C8.6288 32.2294 9.36211 31.496 9.36211 30.591V22.6458C9.36211 21.8081 10.0449 21.127 10.8834 21.127H32.0997C32.9366 21.127 33.6177 21.8081 33.6177 22.6458V30.1566H27.9465C27.0406 30.1566 26.3073 30.8899 26.3073 31.7949V43.9471C19.242 47.3459 14.7361 54.4601 14.7361 62.3691C14.7361 69.5557 18.4641 75.8877 24.088 79.534H10.875C10.0407 79.529 9.36295 78.8504 9.36295 78.0161V37.147C9.36295 36.2419 8.6288 35.5078 7.72374 35.5078C6.81868 35.5078 6.08537 36.2419 6.08537 37.147V78.0161C6.08537 78.5465 6.17293 79.0567 6.3329 79.534H2.46346C1.94652 79.534 1.45905 79.7782 1.15007 80.1924C0.840243 80.6066 0.745107 81.1429 0.8916 81.6388C1.89264 85.0132 3.91239 87.9103 6.73281 90.0159C9.55322 92.1215 12.9049 93.2345 16.4241 93.2345H79.1636C80.0687 93.2345 80.802 92.5004 80.802 91.5953C80.802 90.6903 80.0687 89.9561 79.1636 89.9561H16.4249C11.509 89.9561 7.03169 87.1079 4.86881 82.8116H92.2663H92.2832H107.131C104.969 87.1079 100.492 89.9561 95.5759 89.9561H85.7196C84.8145 89.9561 84.0804 90.6903 84.0804 91.5953C84.0804 92.5004 84.8145 93.2345 85.7196 93.2345H95.5759C99.0951 93.2345 102.447 92.1215 105.267 90.0159C108.088 87.9103 110.107 85.0132 111.108 81.6388C111.255 81.1429 111.16 80.6066 110.85 80.1924ZM83.0229 17.2096C86.6794 14.401 91.1255 12.9537 95.7418 13.0598C95.8647 18.5693 93.7506 23.8759 89.829 27.7975C86.4866 31.1408 82.1364 33.1689 77.5135 33.6185C81.0722 29.4115 83.0566 24.072 83.0566 18.4657C83.0566 18.0456 83.0448 17.6272 83.0229 17.2096ZM73.5405 3.86439C77.5219 7.67237 79.7791 12.9192 79.7791 18.4657C79.7791 24.0131 77.5219 29.2599 73.5405 33.0671C69.559 29.2599 67.3019 24.0131 67.3019 18.4657C67.3019 12.9192 69.559 7.67237 73.5405 3.86439ZM51.3383 13.0598C55.9604 12.9503 60.4015 14.401 64.058 17.2104C64.0361 17.6272 64.0243 18.0456 64.0243 18.4666C64.0243 24.072 66.0087 29.4123 69.5683 33.6194C64.9454 33.1698 60.596 31.1424 57.2511 27.7975C53.3294 23.8759 51.2162 18.5693 51.3383 13.0598ZM26.1608 17.8486H16.8198V10.0112C16.8198 9.18277 17.4942 8.50839 18.3235 8.50839H24.658C25.4873 8.50839 26.1608 9.18277 26.1608 10.0112V17.8486ZM29.5849 33.4341H40.7714V37.9114H29.5849V33.4341ZM18.0136 62.3691C18.0136 55.4174 22.1601 49.1965 28.5771 46.52C29.1875 46.2658 29.5849 45.6688 29.5849 45.0079V41.189H40.7714V45.0079C40.7714 45.6688 41.1688 46.2658 41.7792 46.52C48.1963 49.1965 52.3427 55.4174 52.3427 62.3691C52.3427 71.8339 44.6434 79.534 35.1786 79.534C25.7129 79.534 18.0136 71.8339 18.0136 62.3691ZM92.2832 79.534H46.2691C50.0241 77.0992 52.9337 73.4664 54.4526 69.181H84.9417C89.5495 69.181 93.2977 65.4328 93.2977 60.825V58.7951C93.2977 54.1873 89.5495 50.4391 84.9417 50.4391H56.6786C55.7727 50.4391 55.0394 51.1724 55.0394 52.0775C55.0394 52.9826 55.7727 53.7167 56.6786 53.7167H84.9417C87.7419 53.7167 90.0201 55.9949 90.0201 58.7951V60.825C90.0201 63.6252 87.7419 65.9034 84.9417 65.9034H55.3147C55.5151 64.7551 55.6211 63.5747 55.6211 62.3691C55.6211 54.7607 51.4486 47.8881 44.8413 44.3521C46.4914 39.9615 50.6993 36.9938 55.4898 36.9938H71.5283H71.5333H92.2655C98.542 36.9938 103.648 42.1 103.648 48.3756V68.1522C103.649 74.4228 98.5512 79.5248 92.2832 79.534Z" fill="#96964C"/>
</svg>
